NotoSerifMyanmar-CondensedBold.ufo
<glyph name="question" format="2">
  <advance width="545"/>
  <unicode hex="003F"/>
  <outline>
    <contour>
      <point x="284" y="359" type="line"/>
      <point x="341" y="459"/>
      <point x="502" y="510"/>
      <point x="502" y="740" type="curve" smooth="yes"/>
      <point x="502" y="897"/>
      <point x="420" y="998"/>
      <point x="276" y="998" type="curve" smooth="yes"/>
      <point x="133" y="998"/>
      <point x="53" y="903"/>
      <point x="53" y="752" type="curve" smooth="yes"/>
      <point x="53" y="733"/>
      <point x="55" y="712"/>
      <point x="57" y="697" type="curve"/>
      <point x="144" y="697" type="line"/>
      <point x="144" y="703" type="line" smooth="yes"/>
      <point x="144" y="799"/>
      <point x="208" y="818"/>
      <point x="269" y="818" type="curve" smooth="yes"/>
      <point x="337" y="818"/>
      <point x="383" y="788"/>
      <point x="383" y="700" type="curve" smooth="yes"/>
      <point x="383" y="537"/>
      <point x="183" y="467"/>
      <point x="195" y="359" type="curve"/>
    </contour>
    <contour>
      <point x="242" y="-4" type="curve" smooth="yes"/>
      <point x="309" y="-4"/>
      <point x="352" y="47"/>
      <point x="352" y="126" type="curve" smooth="yes"/>
      <point x="352" y="207"/>
      <point x="309" y="258"/>
      <point x="242" y="258" type="curve" smooth="yes"/>
      <point x="175" y="258"/>
      <point x="132" y="207"/>
      <point x="132" y="126" type="curve" smooth="yes"/>
      <point x="132" y="47"/>
      <point x="175" y="-4"/>
    </contour>
    <contour>
      <point x="242" y="82" type="curve" smooth="yes"/>
      <point x="207" y="82"/>
      <point x="192" y="100"/>
      <point x="192" y="126" type="curve" smooth="yes"/>
      <point x="192" y="153"/>
      <point x="207" y="172"/>
      <point x="242" y="172" type="curve" smooth="yes"/>
      <point x="277" y="172"/>
      <point x="292" y="153"/>
      <point x="292" y="126" type="curve" smooth="yes"/>
      <point x="292" y="100"/>
      <point x="277" y="82"/>
    </contour>
  </outline>
</glyph>
<glyph name="nga" format="2">
  <advance width="486"/>
  <unicode hex="1004"/>
  <outline>
    <contour>
      <point x="360" y="243" type="line"/>
      <point x="351" y="198"/>
      <point x="310" y="173"/>
      <point x="243" y="173" type="curve" smooth="yes"/>
      <point x="178" y="173"/>
      <point x="121" y="202"/>
      <point x="121" y="269" type="curve" smooth="yes"/>
      <point x="121" y="277" type="line" smooth="yes"/>
      <point x="121" y="344"/>
      <point x="178" y="373"/>
      <point x="243" y="373" type="curve" smooth="yes"/>
      <point x="310" y="373"/>
      <point x="351" y="348"/>
      <point x="360" y="303" type="curve"/>
      <point x="442" y="303" type="line"/>
      <point x="439" y="464"/>
      <point x="366" y="553"/>
      <point x="252" y="553" type="curve" smooth="yes"/>
      <point x="234" y="553" type="line" smooth="yes"/>
      <point x="168" y="553"/>
      <point x="112" y="523"/>
      <point x="80" y="465" type="curve" smooth="yes"/>
      <point x="57" y="423"/>
      <point x="43" y="362"/>
      <point x="43" y="273" type="curve" smooth="yes"/>
      <point x="43" y="184"/>
      <point x="57" y="123"/>
      <point x="80" y="81" type="curve" smooth="yes"/>
      <point x="112" y="23"/>
      <point x="168" y="-7"/>
      <point x="234" y="-7" type="curve" smooth="yes"/>
      <point x="252" y="-7" type="line" smooth="yes"/>
      <point x="366" y="-7"/>
      <point x="439" y="82"/>
      <point x="442" y="243" type="curve"/>
    </contour>
  </outline>
</glyph>
<glyph name="ca" format="2">
  <advance width="486"/>
  <unicode hex="1005"/>
  <note>
ca
</note>
  <outline>
    <contour>
      <point x="174" y="189" type="curve" smooth="yes"/>
      <point x="270" y="189"/>
      <point x="291" y="221"/>
      <point x="291" y="272" type="curve" smooth="yes"/>
      <point x="291" y="323"/>
      <point x="270" y="357"/>
      <point x="174" y="357" type="curve" smooth="yes"/>
      <point x="103" y="357"/>
      <point x="69" y="318"/>
      <point x="69" y="272" type="curve" smooth="yes"/>
      <point x="69" y="226"/>
      <point x="103" y="189"/>
    </contour>
    <contour>
      <point x="149" y="237" type="curve" smooth="yes"/>
      <point x="113" y="237"/>
      <point x="97" y="250"/>
      <point x="97" y="274" type="curve" smooth="yes"/>
      <point x="97" y="297"/>
      <point x="113" y="309"/>
      <point x="149" y="309" type="curve" smooth="yes"/>
      <point x="186" y="309"/>
      <point x="200" y="297"/>
      <point x="200" y="274" type="curve" smooth="yes"/>
      <point x="200" y="250"/>
      <point x="186" y="237"/>
    </contour>
    <contour>
      <point x="234" y="553" type="line" smooth="yes"/>
      <point x="168" y="553"/>
      <point x="112" y="523"/>
      <point x="80" y="465" type="curve" smooth="yes"/>
      <point x="57" y="423"/>
      <point x="43" y="362"/>
      <point x="43" y="273" type="curve" smooth="yes"/>
      <point x="43" y="184"/>
      <point x="57" y="123"/>
      <point x="80" y="81" type="curve" smooth="yes"/>
      <point x="112" y="23"/>
      <point x="168" y="-7"/>
      <point x="234" y="-7" type="curve" smooth="yes"/>
      <point x="252" y="-7" type="line" smooth="yes"/>
      <point x="318" y="-7"/>
      <point x="374" y="23"/>
      <point x="406" y="81" type="curve" smooth="yes"/>
      <point x="429" y="123"/>
      <point x="443" y="184"/>
      <point x="443" y="273" type="curve" smooth="yes"/>
      <point x="443" y="362"/>
      <point x="429" y="423"/>
      <point x="406" y="465" type="curve" smooth="yes"/>
      <point x="374" y="523"/>
      <point x="318" y="553"/>
      <point x="252" y="553" type="curve" smooth="yes"/>
    </contour>
    <contour>
      <point x="229" y="149" type="curve" smooth="yes"/>
      <point x="160" y="149"/>
      <point x="94" y="185"/>
      <point x="94" y="268" type="curve" smooth="yes"/>
      <point x="94" y="278" type="line" smooth="yes"/>
      <point x="94" y="361"/>
      <point x="160" y="397"/>
      <point x="229" y="397" type="curve" smooth="yes"/>
      <point x="298" y="397"/>
      <point x="364" y="361"/>
      <point x="364" y="278" type="curve" smooth="yes"/>
      <point x="364" y="268" type="line" smooth="yes"/>
      <point x="364" y="185"/>
      <point x="298" y="149"/>
    </contour>
  </outline>
</glyph>
<glyph name="cha" format="2">
  <advance width="780"/>
  <unicode hex="1006"/>
  <note>
cha
</note>
  <outline>
    <contour>
      <point x="431" y="220" type="curve"/>
      <point x="373" y="81" type="line"/>
      <point x="407" y="20"/>
      <point x="461" y="-10"/>
      <point x="528" y="-10" type="curve" smooth="yes"/>
      <point x="546" y="-10" type="line" smooth="yes"/>
      <point x="613" y="-10"/>
      <point x="667" y="20"/>
      <point x="701" y="81" type="curve" smooth="yes"/>
      <point x="726" y="126"/>
      <point x="737" y="183"/>
      <point x="737" y="273" type="curve" smooth="yes"/>
      <point x="737" y="363"/>
      <point x="726" y="420"/>
      <point x="701" y="465" type="curve" smooth="yes"/>
      <point x="667" y="526"/>
      <point x="613" y="556"/>
      <point x="546" y="556" type="curve" smooth="yes"/>
      <point x="528" y="556" type="line" smooth="yes"/>
      <point x="461" y="556"/>
      <point x="407" y="526"/>
      <point x="373" y="465" type="curve"/>
      <point x="431" y="326" type="line"/>
      <point x="452" y="357"/>
      <point x="494" y="370"/>
      <point x="537" y="370" type="curve" smooth="yes"/>
      <point x="599" y="370"/>
      <point x="658" y="343"/>
      <point x="658" y="277" type="curve" smooth="yes"/>
      <point x="658" y="269" type="line" smooth="yes"/>
      <point x="658" y="203"/>
      <point x="599" y="176"/>
      <point x="537" y="176" type="curve" smooth="yes"/>
      <point x="494" y="176"/>
      <point x="452" y="189"/>
    </contour>
    <component base="kha"/>
  </outline>
</glyph>
<glyph name="ja" format="2">
  <advance width="523"/>
  <unicode hex="1007"/>
  <note>
ja
</note>
  <outline>
    <contour>
      <point x="241" y="373" type="curve"/>
      <point x="236" y="505" type="line"/>
      <point x="204" y="473"/>
      <point x="186" y="426"/>
      <point x="186" y="373" type="curve" smooth="yes"/>
      <point x="186" y="308"/>
      <point x="207" y="245"/>
      <point x="313" y="245" type="curve" smooth="yes"/>
      <point x="419" y="245"/>
      <point x="440" y="308"/>
      <point x="440" y="373" type="curve" smooth="yes"/>
      <point x="440" y="476"/>
      <point x="375" y="553"/>
      <point x="263" y="553" type="curve" smooth="yes"/>
      <point x="246" y="553" type="line" smooth="yes"/>
      <point x="177" y="553"/>
      <point x="113" y="523"/>
      <point x="80" y="465" type="curve" smooth="yes"/>
      <point x="57" y="423"/>
      <point x="43" y="362"/>
      <point x="43" y="273" type="curve" smooth="yes"/>
      <point x="43" y="184"/>
      <point x="57" y="123"/>
      <point x="80" y="81" type="curve" smooth="yes"/>
      <point x="112" y="23"/>
      <point x="168" y="-7"/>
      <point x="234" y="-7" type="curve" smooth="yes"/>
      <point x="252" y="-7" type="line" smooth="yes"/>
      <point x="362" y="-7"/>
      <point x="433" y="73"/>
      <point x="441" y="214" type="curve"/>
      <point x="359" y="214" type="line"/>
      <point x="349" y="188"/>
      <point x="309" y="173"/>
      <point x="243" y="173" type="curve" smooth="yes"/>
      <point x="178" y="173"/>
      <point x="121" y="202"/>
      <point x="121" y="269" type="curve" smooth="yes"/>
      <point x="121" y="277" type="line" smooth="yes"/>
      <point x="121" y="344"/>
      <point x="177" y="373"/>
    </contour>
    <contour>
      <point x="313" y="373" type="curve" smooth="yes"/>
      <point x="350" y="373"/>
      <point x="370" y="361"/>
      <point x="370" y="337" type="curve" smooth="yes"/>
      <point x="370" y="319"/>
      <point x="355" y="305"/>
      <point x="322" y="305" type="curve" smooth="yes"/>
      <point x="304" y="305" type="line" smooth="yes"/>
      <point x="271" y="305"/>
      <point x="256" y="319"/>
      <point x="256" y="337" type="curve" smooth="yes"/>
      <point x="256" y="361"/>
      <point x="276" y="373"/>
    </contour>
    <contour>
      <point x="520" y="292" type="line"/>
      <point x="477" y="293"/>
      <point x="435" y="297"/>
      <point x="434" y="374" type="curve"/>
      <point x="376" y="358" type="line"/>
      <point x="376" y="256"/>
      <point x="440" y="223"/>
      <point x="520" y="227" type="curve"/>
    </contour>
  </outline>
</glyph>
<glyph name="jha" format="2">
  <advance width="674"/>
  <unicode hex="1008"/>
  <outline>
    <contour>
      <point x="626" y="546" type="line"/>
      <point x="534" y="546" type="line"/>
      <point x="534" y="-300" type="line" smooth="yes"/>
      <point x="534" y="-351"/>
      <point x="509" y="-373"/>
      <point x="456" y="-373" type="curve" smooth="yes"/>
      <point x="403" y="-373"/>
      <point x="377" y="-352"/>
      <point x="377" y="-300" type="curve" smooth="yes"/>
      <point x="377" y="103" type="line"/>
      <point x="285" y="103" type="line"/>
      <point x="285" y="-361" type="line" smooth="yes"/>
      <point x="285" y="-486"/>
      <point x="332" y="-549"/>
      <point x="456" y="-549" type="curve" smooth="yes"/>
      <point x="580" y="-549"/>
      <point x="626" y="-486"/>
      <point x="626" y="-361" type="curve" smooth="yes"/>
    </contour>
    <component base="ca"/>
  </outline>
</glyph>
<glyph name="nya" format="2">
  <advance width="486"/>
  <unicode hex="1009"/>
  <note>
nya
</note>
  <outline>
    <contour>
      <point x="730" y="-235" type="line"/>
      <point x="651" y="-235" type="line"/>
      <point x="651" y="-249" type="line" smooth="yes"/>
      <point x="651" y="-303"/>
      <point x="637" y="-335"/>
      <point x="603" y="-351" type="curve" smooth="yes"/>
      <point x="566" y="-366"/>
      <point x="496" y="-371"/>
      <point x="388" y="-371" type="curve" smooth="yes"/>
      <point x="280" y="-371"/>
      <point x="213" y="-366"/>
      <point x="178" y="-351" type="curve" smooth="yes"/>
      <point x="144" y="-335"/>
      <point x="128" y="-303"/>
      <point x="128" y="-249" type="curve" smooth="yes"/>
      <point x="128" y="156" type="line"/>
      <point x="44" y="243" type="line"/>
      <point x="44" y="-327" type="line" smooth="yes"/>
      <point x="44" y="-432"/>
      <point x="73" y="-475"/>
      <point x="105" y="-499" type="curve" smooth="yes"/>
      <point x="158" y="-537"/>
      <point x="234" y="-549"/>
      <point x="386" y="-549" type="curve" smooth="yes"/>
      <point x="538" y="-549"/>
      <point x="618" y="-537"/>
      <point x="671" y="-499" type="curve" smooth="yes"/>
      <point x="701" y="-475"/>
      <point x="730" y="-432"/>
      <point x="730" y="-327" type="curve" smooth="yes"/>
    </contour>
    <component base="nga" xScale="-1" yScale="-1" xOffset="486" yOffset="546"/>
  </outline>
</glyph>
<glyph name="nnya" format="2">
  <advance width="773"/>
  <unicode hex="100A"/>
  <outline>
    <contour>
      <point x="730" y="-235" type="line"/>
      <point x="651" y="-235" type="line"/>
      <point x="651" y="-249" type="line" smooth="yes"/>
      <point x="651" y="-303"/>
      <point x="637" y="-335"/>
      <point x="603" y="-351" type="curve" smooth="yes"/>
      <point x="566" y="-368"/>
      <point x="496" y="-373"/>
      <point x="388" y="-373" type="curve" smooth="yes"/>
      <point x="280" y="-373"/>
      <point x="213" y="-368"/>
      <point x="178" y="-351" type="curve" smooth="yes"/>
      <point x="144" y="-335"/>
      <point x="128" y="-303"/>
      <point x="128" y="-249" type="curve" smooth="yes"/>
      <point x="128" y="156" type="line"/>
      <point x="44" y="243" type="line"/>
      <point x="44" y="-327" type="line" smooth="yes"/>
      <point x="44" y="-432"/>
      <point x="73" y="-475"/>
      <point x="105" y="-499" type="curve" smooth="yes"/>
      <point x="158" y="-537"/>
      <point x="234" y="-549"/>
      <point x="386" y="-549" type="curve" smooth="yes"/>
      <point x="538" y="-549"/>
      <point x="618" y="-537"/>
      <point x="671" y="-499" type="curve" smooth="yes"/>
      <point x="701" y="-475"/>
      <point x="730" y="-432"/>
      <point x="730" y="-327" type="curve" smooth="yes"/>
    </contour>
    <component base="nga" xScale="-1" yScale="-1" xOffset="486" yOffset="546"/>
    <component base="_aa" yScale="-1" xOffset="478" yOffset="546"/>
  </outline>
</glyph>
<glyph name="tta" format="2">
  <advance width="486"/>
  <unicode hex="100B"/>
  <outline>
    <contour>
      <point x="43" y="20" type="line"/>
      <point x="43" y="-210" type="line" smooth="yes"/>
      <point x="43" y="-312"/>
      <point x="62" y="-354"/>
      <point x="84" y="-378" type="curve" smooth="yes"/>
      <point x="117" y="-415"/>
      <point x="170" y="-424"/>
      <point x="242" y="-424" type="curve" smooth="yes"/>
      <point x="315" y="-424"/>
      <point x="368" y="-415"/>
      <point x="401" y="-378" type="curve" smooth="yes"/>
      <point x="423" y="-354"/>
      <point x="442" y="-312"/>
      <point x="442" y="-225" type="curve" smooth="yes"/>
      <point x="442" y="-216" type="line"/>
      <point x="363" y="-216" type="line"/>
      <point x="363" y="-238"/>
      <point x="356" y="-254"/>
      <point x="338" y="-268" type="curve" smooth="yes"/>
      <point x="319" y="-283"/>
      <point x="281" y="-288"/>
      <point x="244" y="-288" type="curve" smooth="yes"/>
      <point x="209" y="-288"/>
      <point x="171" y="-283"/>
      <point x="152" y="-268" type="curve" smooth="yes"/>
      <point x="134" y="-254"/>
      <point x="127" y="-238"/>
      <point x="127" y="-216" type="curve" smooth="yes"/>
      <point x="127" y="-111" type="line"/>
    </contour>
    <contour>
      <point x="442" y="247" type="line"/>
      <point x="358" y="196" type="line"/>
      <point x="358" y="21" type="line" smooth="yes"/>
      <point x="358" y="-5"/>
      <point x="350" y="-36"/>
      <point x="331" y="-51" type="curve" smooth="yes"/>
      <point x="313" y="-66"/>
      <point x="276" y="-71"/>
      <point x="241" y="-71" type="curve" smooth="yes"/>
      <point x="204" y="-71"/>
      <point x="167" y="-66"/>
      <point x="149" y="-51" type="curve" smooth="yes"/>
      <point x="130" y="-36"/>
      <point x="122" y="-11"/>
      <point x="122" y="20" type="curve" smooth="yes"/>
      <point x="122" y="21" type="line"/>
      <point x="43" y="21" type="line"/>
      <point x="43" y="7" type="line" smooth="yes"/>
      <point x="43" y="-95"/>
      <point x="62" y="-137"/>
      <point x="84" y="-161" type="curve" smooth="yes"/>
      <point x="117" y="-198"/>
      <point x="170" y="-207"/>
      <point x="243" y="-207" type="curve" smooth="yes"/>
      <point x="315" y="-207"/>
      <point x="368" y="-198"/>
      <point x="401" y="-161" type="curve" smooth="yes"/>
      <point x="423" y="-137"/>
      <point x="442" y="-95"/>
      <point x="442" y="7" type="curve" smooth="yes"/>
    </contour>
    <contour>
      <point x="539" y="-382" type="line"/>
      <point x="523" y="-382" type="line" smooth="yes"/>
      <point x="466" y="-382"/>
      <point x="442" y="-350"/>
      <point x="442" y="-286" type="curve" smooth="yes"/>
      <point x="442" y="-223" type="line"/>
      <point x="367" y="-290" type="line"/>
      <point x="367" y="-376" type="line" smooth="yes"/>
      <point x="367" y="-484"/>
      <point x="404" y="-550"/>
      <point x="519" y="-550" type="curve" smooth="yes"/>
      <point x="529" y="-550"/>
      <point x="534" y="-550"/>
      <point x="539" y="-549" type="curve"/>
    </contour>
    <component base="nga" yScale="0.988" yOffset="7"/>
  </outline>
</glyph>
<glyph name="ttha" format="2">
  <advance width="486"/>
  <unicode hex="100C"/>
  <note>
ttha
</note>
  <outline>
    <contour>
      <point x="442" y="243" type="line"/>
      <point x="358" y="196" type="line"/>
      <point x="358" y="-289" type="line" smooth="yes"/>
      <point x="358" y="-342"/>
      <point x="350" y="-373"/>
      <point x="330" y="-388" type="curve" smooth="yes"/>
      <point x="311" y="-403"/>
      <point x="271" y="-408"/>
      <point x="227" y="-408" type="curve" smooth="yes"/>
      <point x="166" y="-408"/>
      <point x="109" y="-398"/>
      <point x="109" y="-341" type="curve" smooth="yes"/>
      <point x="109" y="-306"/>
      <point x="131" y="-284"/>
      <point x="168" y="-284" type="curve" smooth="yes"/>
      <point x="211" y="-284"/>
      <point x="228" y="-317"/>
      <point x="231" y="-349" type="curve"/>
      <point x="336" y="-349" type="line"/>
      <point x="330" y="-267"/>
      <point x="281" y="-218"/>
      <point x="195" y="-218" type="curve" smooth="yes"/>
      <point x="91" y="-218"/>
      <point x="43" y="-284"/>
      <point x="43" y="-377" type="curve" smooth="yes"/>
      <point x="43" y="-440"/>
      <point x="61" y="-482"/>
      <point x="86" y="-507" type="curve" smooth="yes"/>
      <point x="119" y="-540"/>
      <point x="170" y="-549"/>
      <point x="243" y="-549" type="curve" smooth="yes"/>
      <point x="315" y="-549"/>
      <point x="368" y="-540"/>
      <point x="401" y="-503" type="curve" smooth="yes"/>
      <point x="423" y="-479"/>
      <point x="442" y="-437"/>
      <point x="442" y="-335" type="curve" smooth="yes"/>
    </contour>
    <component base="nga"/>
  </outline>
</glyph>
<glyph name="dda" format="2">
  <advance width="486"/>
  <unicode hex="100D"/>
  <note>
dda
</note>
  <outline>
    <contour>
      <point x="44" y="243" type="line"/>
      <point x="44" y="-26" type="line" smooth="yes"/>
      <point x="44" y="-128"/>
      <point x="63" y="-170"/>
      <point x="85" y="-194" type="curve" smooth="yes"/>
      <point x="118" y="-231"/>
      <point x="171" y="-240"/>
      <point x="243" y="-240" type="curve" smooth="yes"/>
      <point x="316" y="-240"/>
      <point x="369" y="-231"/>
      <point x="402" y="-194" type="curve" smooth="yes"/>
      <point x="424" y="-170"/>
      <point x="443" y="-128"/>
      <point x="443" y="-26" type="curve" smooth="yes"/>
      <point x="443" y="22" type="line"/>
      <point x="364" y="22" type="line"/>
      <point x="364" y="-25"/>
      <point x="356" y="-50"/>
      <point x="337" y="-65" type="curve" smooth="yes"/>
      <point x="319" y="-80"/>
      <point x="282" y="-85"/>
      <point x="245" y="-85" type="curve" smooth="yes"/>
      <point x="210" y="-85"/>
      <point x="173" y="-80"/>
      <point x="155" y="-65" type="curve" smooth="yes"/>
      <point x="136" y="-50"/>
      <point x="128" y="-19"/>
      <point x="128" y="22" type="curve" smooth="yes"/>
      <point x="128" y="196" type="line"/>
    </contour>
    <contour>
      <point x="541" y="-357" type="line"/>
      <point x="525" y="-357" type="line" smooth="yes"/>
      <point x="469" y="-357"/>
      <point x="443" y="-341"/>
      <point x="443" y="-274" type="curve" smooth="yes"/>
      <point x="443" y="-6" type="line"/>
      <point x="367" y="-141" type="line"/>
      <point x="367" y="-346" type="line" smooth="yes"/>
      <point x="367" y="-489"/>
      <point x="405" y="-549"/>
      <point x="526" y="-549" type="curve" smooth="yes"/>
      <point x="528" y="-549"/>
      <point x="534" y="-549"/>
      <point x="541" y="-548" type="curve"/>
    </contour>
    <component base="nga" xScale="-1" xOffset="486"/>
  </outline>
</glyph>
<glyph name="ddha" format="2">
  <advance width="486"/>
  <unicode hex="100E"/>
  <note>
ddha
</note>
  <outline>
    <contour>
      <point x="238" y="-7" type="curve" smooth="yes"/>
      <point x="252" y="-7" type="line" smooth="yes"/>
      <point x="318" y="-7"/>
      <point x="374" y="23"/>
      <point x="406" y="81" type="curve" smooth="yes"/>
      <point x="429" y="123"/>
      <point x="443" y="184"/>
      <point x="443" y="273" type="curve" smooth="yes"/>
      <point x="443" y="362"/>
      <point x="429" y="423"/>
      <point x="406" y="466" type="curve" smooth="yes"/>
      <point x="373" y="526"/>
      <point x="323" y="550"/>
      <point x="277" y="553" type="curve"/>
      <point x="277" y="369" type="line"/>
      <point x="319" y="364"/>
      <point x="365" y="337"/>
      <point x="365" y="277" type="curve" smooth="yes"/>
      <point x="365" y="269" type="line" smooth="yes"/>
      <point x="364" y="202"/>
      <point x="311" y="173"/>
      <point x="248" y="173" type="curve" smooth="yes"/>
      <point x="195" y="173"/>
      <point x="152" y="194"/>
      <point x="152" y="247" type="curve" smooth="yes"/>
      <point x="152" y="322"/>
      <point x="235" y="353"/>
      <point x="235" y="448" type="curve" smooth="yes"/>
      <point x="235" y="514"/>
      <point x="194" y="556"/>
      <point x="136" y="556" type="curve" smooth="yes"/>
      <point x="70" y="556"/>
      <point x="17" y="503"/>
      <point x="33" y="383" type="curve"/>
      <point x="84" y="383" type="line"/>
      <point x="85" y="399"/>
      <point x="94" y="414"/>
      <point x="111" y="414" type="curve" smooth="yes"/>
      <point x="129" y="414"/>
      <point x="134" y="397"/>
      <point x="134" y="382" type="curve" smooth="yes"/>
      <point x="134" y="323"/>
      <point x="59" y="271"/>
      <point x="59" y="160" type="curve" smooth="yes"/>
      <point x="59" y="53"/>
      <point x="130" y="-7"/>
    </contour>
  </outline>
</glyph>
<glyph name="nna" format="2">
  <advance width="868"/>
  <unicode hex="100F"/>
  <note>
nna
</note>
  <outline>
    <contour>
      <point x="592" y="173" type="line"/>
      <point x="592" y="-6" type="line"/>
      <point x="608" y="-7"/>
      <point x="620" y="-7"/>
      <point x="634" y="-7" type="curve" smooth="yes"/>
      <point x="700" y="-7"/>
      <point x="756" y="23"/>
      <point x="788" y="81" type="curve" smooth="yes"/>
      <point x="811" y="123"/>
      <point x="825" y="184"/>
      <point x="825" y="273" type="curve" smooth="yes"/>
      <point x="825" y="362"/>
      <point x="811" y="423"/>
      <point x="788" y="465" type="curve" smooth="yes"/>
      <point x="756" y="523"/>
      <point x="700" y="553"/>
      <point x="634" y="553" type="curve" smooth="yes"/>
      <point x="616" y="553" type="line" smooth="yes"/>
      <point x="518" y="553"/>
      <point x="450" y="463"/>
      <point x="450" y="361" type="curve" smooth="yes"/>
      <point x="450" y="299"/>
      <point x="466" y="250"/>
      <point x="466" y="194" type="curve" smooth="yes"/>
      <point x="466" y="161"/>
      <point x="457" y="137"/>
      <point x="434" y="137" type="curve" smooth="yes"/>
      <point x="411" y="137"/>
      <point x="402" y="161"/>
      <point x="402" y="194" type="curve" smooth="yes"/>
      <point x="402" y="250"/>
      <point x="418" y="299"/>
      <point x="418" y="361" type="curve" smooth="yes"/>
      <point x="418" y="463"/>
      <point x="350" y="553"/>
      <point x="252" y="553" type="curve" smooth="yes"/>
      <point x="234" y="553" type="line" smooth="yes"/>
      <point x="168" y="553"/>
      <point x="112" y="523"/>
      <point x="80" y="465" type="curve" smooth="yes"/>
      <point x="57" y="423"/>
      <point x="43" y="362"/>
      <point x="43" y="273" type="curve" smooth="yes"/>
      <point x="43" y="184"/>
      <point x="57" y="123"/>
      <point x="80" y="81" type="curve" smooth="yes"/>
      <point x="112" y="23"/>
      <point x="168" y="-7"/>
      <point x="234" y="-7" type="curve" smooth="yes"/>
      <point x="248" y="-7"/>
      <point x="260" y="-7"/>
      <point x="276" y="-6" type="curve"/>
      <point x="276" y="173" type="line"/>
      <point x="243" y="173" type="line" smooth="yes"/>
      <point x="178" y="173"/>
      <point x="122" y="202"/>
      <point x="121" y="269" type="curve" smooth="yes"/>
      <point x="121" y="277" type="line" smooth="yes"/>
      <point x="122" y="344"/>
      <point x="178" y="373"/>
      <point x="242" y="373" type="curve" smooth="yes"/>
      <point x="295" y="373"/>
      <point x="344" y="353"/>
      <point x="344" y="295" type="curve" smooth="yes"/>
      <point x="344" y="242"/>
      <point x="314" y="198"/>
      <point x="314" y="130" type="curve" smooth="yes"/>
      <point x="314" y="40"/>
      <point x="363" y="-8"/>
      <point x="431" y="-8" type="curve" smooth="yes"/>
      <point x="437" y="-8" type="line" smooth="yes"/>
      <point x="505" y="-8"/>
      <point x="554" y="40"/>
      <point x="554" y="130" type="curve" smooth="yes"/>
      <point x="554" y="198"/>
      <point x="524" y="242"/>
      <point x="524" y="295" type="curve" smooth="yes"/>
      <point x="524" y="353"/>
      <point x="573" y="373"/>
      <point x="626" y="373" type="curve" smooth="yes"/>
      <point x="690" y="373"/>
      <point x="746" y="344"/>
      <point x="747" y="277" type="curve" smooth="yes"/>
      <point x="747" y="269" type="line" smooth="yes"/>
      <point x="746" y="202"/>
      <point x="690" y="173"/>
      <point x="625" y="173" type="curve" smooth="yes"/>
    </contour>
    <contour>
      <point x="434" y="553" type="curve" smooth="yes"/>
      <point x="386" y="553"/>
      <point x="353" y="518"/>
      <point x="345" y="483" type="curve"/>
      <point x="390" y="369" type="line"/>
      <point x="395" y="406"/>
      <point x="407" y="425"/>
      <point x="434" y="425" type="curve" smooth="yes"/>
      <point x="461" y="425"/>
      <point x="473" y="406"/>
      <point x="478" y="369" type="curve"/>
      <point x="523" y="483" type="line"/>
      <point x="515" y="518"/>
      <point x="482" y="553"/>
    </contour>
  </outline>
</glyph>
<glyph name="ta" format="2">
  <advance width="781"/>
  <unicode hex="1010"/>
  <outline>
    <contour>
      <point x="234" y="553" type="line" smooth="yes"/>
      <point x="168" y="553"/>
      <point x="112" y="523"/>
      <point x="80" y="465" type="curve" smooth="yes"/>
      <point x="57" y="423"/>
      <point x="43" y="362"/>
      <point x="43" y="273" type="curve" smooth="yes"/>
      <point x="43" y="184"/>
      <point x="57" y="123"/>
      <point x="80" y="81" type="curve" smooth="yes"/>
      <point x="112" y="23"/>
      <point x="168" y="-7"/>
      <point x="234" y="-7" type="curve" smooth="yes"/>
      <point x="252" y="-7" type="line" smooth="yes"/>
      <point x="318" y="-7"/>
      <point x="374" y="23"/>
      <point x="406" y="81" type="curve" smooth="yes"/>
      <point x="429" y="123"/>
      <point x="443" y="184"/>
      <point x="443" y="273" type="curve" smooth="yes"/>
      <point x="443" y="362"/>
      <point x="429" y="423"/>
      <point x="406" y="465" type="curve" smooth="yes"/>
      <point x="374" y="523"/>
      <point x="318" y="553"/>
      <point x="252" y="553" type="curve" smooth="yes"/>
    </contour>
    <contour>
      <point x="243" y="173" type="curve" smooth="yes"/>
      <point x="178" y="173"/>
      <point x="121" y="202"/>
      <point x="121" y="269" type="curve" smooth="yes"/>
      <point x="121" y="277" type="line" smooth="yes"/>
      <point x="121" y="344"/>
      <point x="178" y="373"/>
      <point x="243" y="373" type="curve" smooth="yes"/>
      <point x="308" y="373"/>
      <point x="364" y="344"/>
      <point x="365" y="277" type="curve" smooth="yes"/>
      <point x="365" y="269" type="line" smooth="yes"/>
      <point x="364" y="202"/>
      <point x="308" y="173"/>
    </contour>
    <contour>
      <point x="375" y="465" type="curve"/>
      <point x="430" y="327" type="line"/>
      <point x="451" y="359"/>
      <point x="492" y="373"/>
      <point x="538" y="373" type="curve" smooth="yes"/>
      <point x="603" y="373"/>
      <point x="659" y="344"/>
      <point x="660" y="277" type="curve" smooth="yes"/>
      <point x="660" y="269" type="line" smooth="yes"/>
      <point x="659" y="202"/>
      <point x="603" y="173"/>
      <point x="538" y="173" type="curve" smooth="yes"/>
      <point x="505" y="173" type="line"/>
      <point x="505" y="-6" type="line"/>
      <point x="521" y="-7"/>
      <point x="533" y="-7"/>
      <point x="547" y="-7" type="curve" smooth="yes"/>
      <point x="613" y="-7"/>
      <point x="669" y="23"/>
      <point x="701" y="81" type="curve" smooth="yes"/>
      <point x="724" y="123"/>
      <point x="738" y="184"/>
      <point x="738" y="273" type="curve" smooth="yes"/>
      <point x="738" y="362"/>
      <point x="724" y="423"/>
      <point x="701" y="465" type="curve" smooth="yes"/>
      <point x="669" y="523"/>
      <point x="613" y="553"/>
      <point x="547" y="553" type="curve" smooth="yes"/>
      <point x="529" y="553" type="line" smooth="yes"/>
      <point x="463" y="553"/>
      <point x="407" y="523"/>
    </contour>
  </outline>
</glyph>
<glyph name="da" format="2">
  <advance width="474"/>
  <unicode hex="1012"/>
  <note>
da
</note>
  <outline>
    <contour>
      <point x="428" y="404" type="curve" smooth="yes"/>
      <point x="428" y="482"/>
      <point x="380" y="553"/>
      <point x="254" y="553" type="curve" smooth="yes"/>
      <point x="238" y="553" type="line" smooth="yes"/>
      <point x="126" y="553"/>
      <point x="35" y="504"/>
      <point x="54" y="323" type="curve"/>
      <point x="125" y="323" type="line"/>
      <point x="136" y="379"/>
      <point x="173" y="396"/>
      <point x="234" y="396" type="curve" smooth="yes"/>
      <point x="294" y="396"/>
      <point x="316" y="379"/>
      <point x="316" y="353" type="curve" smooth="yes"/>
      <point x="316" y="322"/>
      <point x="285" y="307"/>
      <point x="250" y="307" type="curve" smooth="yes"/>
      <point x="179" y="307" type="line"/>
      <point x="179" y="239" type="line"/>
      <point x="250" y="239" type="line" smooth="yes"/>
      <point x="285" y="239"/>
      <point x="316" y="224"/>
      <point x="316" y="193" type="curve" smooth="yes"/>
      <point x="316" y="167"/>
      <point x="294" y="150"/>
      <point x="234" y="150" type="curve" smooth="yes"/>
      <point x="173" y="150"/>
      <point x="136" y="167"/>
      <point x="125" y="223" type="curve"/>
      <point x="54" y="223" type="line"/>
      <point x="35" y="42"/>
      <point x="126" y="-7"/>
      <point x="238" y="-7" type="curve" smooth="yes"/>
      <point x="254" y="-7" type="line" smooth="yes"/>
      <point x="380" y="-7"/>
      <point x="428" y="64"/>
      <point x="428" y="142" type="curve" smooth="yes"/>
      <point x="428" y="224"/>
      <point x="375" y="285"/>
      <point x="306" y="285" type="curve"/>
      <point x="306" y="261" type="line"/>
      <point x="375" y="261"/>
      <point x="428" y="322"/>
    </contour>
  </outline>
</glyph>
<glyph name="dha" format="2">
  <advance width="486"/>
  <unicode hex="1013"/>
  <outline>
    <contour>
      <point x="344" y="169" type="line"/>
      <point x="344" y="208" type="line" smooth="yes"/>
      <point x="342" y="271"/>
      <point x="317" y="306"/>
      <point x="242" y="306" type="curve" smooth="yes"/>
      <point x="167" y="306"/>
      <point x="140" y="271"/>
      <point x="140" y="208" type="curve" smooth="yes"/>
      <point x="140" y="169" type="line"/>
      <point x="180" y="166" type="line"/>
      <point x="180" y="193" type="line" smooth="yes"/>
      <point x="180" y="237"/>
      <point x="202" y="242"/>
      <point x="235" y="242" type="curve" smooth="yes"/>
      <point x="249" y="242" type="line" smooth="yes"/>
      <point x="282" y="242"/>
      <point x="304" y="237"/>
      <point x="304" y="193" type="curve" smooth="yes"/>
      <point x="304" y="166" type="line"/>
    </contour>
    <component base="wa"/>
  </outline>
</glyph>
<glyph name="pa" format="2">
  <advance width="486"/>
  <unicode hex="1015"/>
  <outline>
    <contour>
      <point x="277" y="553" type="curve"/>
      <point x="277" y="369" type="line"/>
      <point x="319" y="364"/>
      <point x="365" y="337"/>
      <point x="365" y="277" type="curve" smooth="yes"/>
      <point x="365" y="269" type="line" smooth="yes"/>
      <point x="364" y="202"/>
      <point x="308" y="173"/>
      <point x="243" y="173" type="curve" smooth="yes"/>
      <point x="178" y="173"/>
      <point x="121" y="202"/>
      <point x="121" y="269" type="curve" smooth="yes"/>
      <point x="121" y="277" type="line" smooth="yes"/>
      <point x="121" y="337"/>
      <point x="167" y="364"/>
      <point x="209" y="369" type="curve"/>
      <point x="209" y="553" type="line"/>
      <point x="163" y="550"/>
      <point x="113" y="526"/>
      <point x="80" y="465" type="curve" smooth="yes"/>
      <point x="57" y="423"/>
      <point x="43" y="362"/>
      <point x="43" y="273" type="curve" smooth="yes"/>
      <point x="43" y="184"/>
      <point x="57" y="123"/>
      <point x="80" y="81" type="curve" smooth="yes"/>
      <point x="112" y="23"/>
      <point x="168" y="-7"/>
      <point x="234" y="-7" type="curve" smooth="yes"/>
      <point x="252" y="-7" type="line" smooth="yes"/>
      <point x="318" y="-7"/>
      <point x="374" y="23"/>
      <point x="406" y="81" type="curve" smooth="yes"/>
      <point x="429" y="123"/>
      <point x="443" y="184"/>
      <point x="443" y="273" type="curve" smooth="yes"/>
      <point x="443" y="362"/>
      <point x="429" y="423"/>
      <point x="406" y="465" type="curve" smooth="yes"/>
      <point x="373" y="526"/>
      <point x="323" y="550"/>
    </contour>
  </outline>
</glyph>
<glyph name="pha" format="2">
  <advance width="486"/>
  <unicode hex="1016"/>
  <note>
pha
</note>
  <outline>
    <contour>
      <point x="443" y="273" type="curve" smooth="yes"/>
      <point x="443" y="450"/>
      <point x="400" y="553"/>
      <point x="328" y="553" type="curve" smooth="yes"/>
      <point x="275" y="553"/>
      <point x="248" y="493"/>
      <point x="248" y="391" type="curve" smooth="yes"/>
      <point x="248" y="262"/>
      <point x="291" y="147"/>
      <point x="383" y="147" type="curve"/>
      <point x="366" y="214" type="line"/>
      <point x="341" y="217"/>
      <point x="319" y="265"/>
      <point x="319" y="313" type="curve" smooth="yes"/>
      <point x="319" y="338"/>
      <point x="324" y="366"/>
      <point x="341" y="366" type="curve" smooth="yes"/>
      <point x="358" y="366"/>
      <point x="368" y="339"/>
      <point x="368" y="295" type="curve" smooth="yes"/>
      <point x="368" y="289" type="line" smooth="yes"/>
      <point x="368" y="206"/>
      <point x="310" y="173"/>
      <point x="243" y="173" type="curve" smooth="yes"/>
      <point x="178" y="173"/>
      <point x="121" y="202"/>
      <point x="121" y="269" type="curve" smooth="yes"/>
      <point x="121" y="277" type="line" smooth="yes"/>
      <point x="121" y="337"/>
      <point x="167" y="364"/>
      <point x="209" y="369" type="curve"/>
      <point x="209" y="553" type="line"/>
      <point x="163" y="550"/>
      <point x="113" y="526"/>
      <point x="80" y="465" type="curve" smooth="yes"/>
      <point x="57" y="423"/>
      <point x="43" y="362"/>
      <point x="43" y="273" type="curve" smooth="yes"/>
      <point x="43" y="184"/>
      <point x="57" y="123"/>
      <point x="80" y="81" type="curve" smooth="yes"/>
      <point x="112" y="23"/>
      <point x="168" y="-7"/>
      <point x="234" y="-7" type="curve" smooth="yes"/>
      <point x="252" y="-7" type="line" smooth="yes"/>
      <point x="318" y="-7"/>
      <point x="374" y="23"/>
      <point x="406" y="81" type="curve" smooth="yes"/>
      <point x="429" y="123"/>
      <point x="443" y="184"/>
    </contour>
  </outline>
</glyph>
<glyph name="ba" format="2">
  <advance width="486"/>
  <unicode hex="1017"/>
  <note>
ba
</note>
  <outline>
    <contour>
      <point x="281" y="553" type="curve"/>
      <point x="283" y="524"/>
      <point x="285" y="501"/>
      <point x="285" y="466" type="curve" smooth="yes"/>
      <point x="285" y="407"/>
      <point x="269" y="379"/>
      <point x="243" y="379" type="curve" smooth="yes"/>
      <point x="224" y="379"/>
      <point x="202" y="403"/>
      <point x="202" y="466" type="curve" smooth="yes"/>
      <point x="202" y="501"/>
      <point x="203" y="524"/>
      <point x="206" y="553" type="curve"/>
      <point x="169" y="550"/>
      <point x="110" y="520"/>
      <point x="78" y="462" type="curve" smooth="yes"/>
      <point x="57" y="423"/>
      <point x="43" y="362"/>
      <point x="43" y="273" type="curve" smooth="yes"/>
      <point x="43" y="184"/>
      <point x="57" y="123"/>
      <point x="80" y="82" type="curve" smooth="yes"/>
      <point x="112" y="23"/>
      <point x="168" y="-7"/>
      <point x="234" y="-7" type="curve" smooth="yes"/>
      <point x="252" y="-7" type="line" smooth="yes"/>
      <point x="318" y="-7"/>
      <point x="374" y="23"/>
      <point x="406" y="82" type="curve" smooth="yes"/>
      <point x="429" y="123"/>
      <point x="443" y="184"/>
      <point x="443" y="273" type="curve" smooth="yes"/>
      <point x="443" y="362"/>
      <point x="429" y="423"/>
      <point x="408" y="462" type="curve" smooth="yes"/>
      <point x="376" y="520"/>
      <point x="318" y="550"/>
    </contour>
    <contour>
      <point x="243" y="248" type="curve" smooth="yes"/>
      <point x="293" y="248"/>
      <point x="325" y="288"/>
      <point x="325" y="355" type="curve" smooth="yes"/>
      <point x="325" y="389"/>
      <point x="320" y="413"/>
      <point x="317" y="428" type="curve"/>
      <point x="284" y="412" type="line"/>
      <point x="303" y="413"/>
      <point x="365" y="376"/>
      <point x="365" y="296" type="curve" smooth="yes"/>
      <point x="365" y="284" type="line" smooth="yes"/>
      <point x="365" y="205"/>
      <point x="308" y="173"/>
      <point x="243" y="173" type="curve" smooth="yes"/>
      <point x="178" y="173"/>
      <point x="121" y="205"/>
      <point x="121" y="284" type="curve" smooth="yes"/>
      <point x="121" y="296" type="line" smooth="yes"/>
      <point x="121" y="376"/>
      <point x="184" y="413"/>
      <point x="203" y="412" type="curve"/>
      <point x="169" y="428" type="line"/>
      <point x="166" y="413"/>
      <point x="162" y="389"/>
      <point x="162" y="355" type="curve" smooth="yes"/>
      <point x="162" y="288"/>
      <point x="195" y="248"/>
    </contour>
  </outline>
</glyph>
<glyph name="ya" format="2">
  <advance width="781"/>
  <unicode hex="101A"/>
  <note>
ya
</note>
  <outline>
    <contour>
      <point x="277" y="553" type="curve"/>
      <point x="277" y="369" type="line"/>
      <point x="319" y="364"/>
      <point x="365" y="337"/>
      <point x="365" y="277" type="curve" smooth="yes"/>
      <point x="365" y="269" type="line" smooth="yes"/>
      <point x="364" y="202"/>
      <point x="308" y="173"/>
      <point x="243" y="173" type="curve" smooth="yes"/>
      <point x="178" y="173"/>
      <point x="121" y="202"/>
      <point x="121" y="269" type="curve" smooth="yes"/>
      <point x="121" y="277" type="line" smooth="yes"/>
      <point x="121" y="337"/>
      <point x="167" y="364"/>
      <point x="209" y="369" type="curve"/>
      <point x="209" y="553" type="line"/>
      <point x="163" y="550"/>
      <point x="113" y="526"/>
      <point x="80" y="465" type="curve" smooth="yes"/>
      <point x="57" y="423"/>
      <point x="43" y="362"/>
      <point x="43" y="273" type="curve" smooth="yes"/>
      <point x="43" y="184"/>
      <point x="57" y="123"/>
      <point x="80" y="81" type="curve" smooth="yes"/>
      <point x="112" y="23"/>
      <point x="168" y="-7"/>
      <point x="234" y="-7" type="curve" smooth="yes"/>
      <point x="252" y="-7" type="line" smooth="yes"/>
      <point x="318" y="-7"/>
      <point x="374" y="23"/>
      <point x="406" y="81" type="curve" smooth="yes"/>
      <point x="429" y="123"/>
      <point x="443" y="184"/>
      <point x="443" y="273" type="curve" smooth="yes"/>
      <point x="443" y="362"/>
      <point x="429" y="423"/>
      <point x="406" y="465" type="curve" smooth="yes"/>
      <point x="373" y="526"/>
      <point x="323" y="550"/>
    </contour>
    <contour>
      <point x="375" y="81" type="line"/>
      <point x="407" y="23"/>
      <point x="463" y="-7"/>
      <point x="529" y="-7" type="curve" smooth="yes"/>
      <point x="547" y="-7" type="line" smooth="yes"/>
      <point x="613" y="-7"/>
      <point x="669" y="23"/>
      <point x="701" y="81" type="curve" smooth="yes"/>
      <point x="724" y="123"/>
      <point x="738" y="184"/>
      <point x="738" y="273" type="curve" smooth="yes"/>
      <point x="738" y="362"/>
      <point x="724" y="423"/>
      <point x="701" y="465" type="curve" smooth="yes"/>
      <point x="669" y="523"/>
      <point x="613" y="553"/>
      <point x="547" y="553" type="curve" smooth="yes"/>
      <point x="533" y="553"/>
      <point x="521" y="553"/>
      <point x="505" y="552" type="curve"/>
      <point x="505" y="373" type="line"/>
      <point x="538" y="373" type="line" smooth="yes"/>
      <point x="603" y="373"/>
      <point x="659" y="344"/>
      <point x="660" y="277" type="curve" smooth="yes"/>
      <point x="660" y="269" type="line" smooth="yes"/>
      <point x="659" y="202"/>
      <point x="603" y="173"/>
      <point x="538" y="173" type="curve" smooth="yes"/>
      <point x="492" y="173"/>
      <point x="451" y="187"/>
      <point x="430" y="219" type="curve"/>
    </contour>
  </outline>
</glyph>
<glyph name="ra" format="2">
  <advance width="491"/>
  <unicode hex="101B"/>
  <outline>
    <contour>
      <point x="443" y="273" type="line" smooth="yes"/>
      <point x="443" y="362"/>
      <point x="429" y="423"/>
      <point x="406" y="465" type="curve" smooth="yes"/>
      <point x="374" y="523"/>
      <point x="318" y="553"/>
      <point x="252" y="553" type="curve" smooth="yes"/>
      <point x="234" y="553" type="line" smooth="yes"/>
      <point x="168" y="553"/>
      <point x="112" y="523"/>
      <point x="80" y="465" type="curve" smooth="yes"/>
      <point x="57" y="423"/>
      <point x="43" y="362"/>
      <point x="43" y="273" type="curve" smooth="yes"/>
      <point x="43" y="184"/>
      <point x="57" y="123"/>
      <point x="80" y="81" type="curve" smooth="yes"/>
      <point x="107" y="30"/>
      <point x="150" y="-7"/>
      <point x="208" y="-7" type="curve" smooth="yes"/>
      <point x="280" y="-7"/>
      <point x="327" y="38"/>
      <point x="327" y="171" type="curve" smooth="yes"/>
      <point x="327" y="262"/>
      <point x="296" y="305"/>
      <point x="223" y="305" type="curve" smooth="yes"/>
      <point x="165" y="305"/>
      <point x="120" y="277"/>
      <point x="120" y="177" type="curve" smooth="yes"/>
      <point x="120" y="146" type="line"/>
      <point x="163" y="146" type="line"/>
      <point x="163" y="191" type="line" smooth="yes"/>
      <point x="163" y="225"/>
      <point x="176" y="241"/>
      <point x="219" y="241" type="curve" smooth="yes"/>
      <point x="224" y="241" type="line" smooth="yes"/>
      <point x="262" y="241"/>
      <point x="275" y="226"/>
      <point x="275" y="206" type="curve" smooth="yes"/>
      <point x="275" y="191"/>
      <point x="264" y="173"/>
      <point x="224" y="173" type="curve" smooth="yes"/>
      <point x="204" y="173" type="line" smooth="yes"/>
      <point x="126" y="173"/>
      <point x="117" y="215"/>
      <point x="117" y="265" type="curve" smooth="yes"/>
      <point x="117" y="273" type="line" smooth="yes"/>
      <point x="117" y="344"/>
      <point x="169" y="373"/>
      <point x="233" y="373" type="curve" smooth="yes"/>
      <point x="304" y="373"/>
      <point x="359" y="337"/>
      <point x="359" y="251" type="curve" smooth="yes"/>
      <point x="359" y="-345" type="line" smooth="yes"/>
      <point x="359" y="-486"/>
      <point x="403" y="-549"/>
      <point x="533" y="-549" type="curve" smooth="yes"/>
      <point x="539" y="-549"/>
      <point x="546" y="-549"/>
      <point x="554" y="-548" type="curve"/>
      <point x="554" y="-357" type="line"/>
      <point x="523" y="-357" type="line" smooth="yes"/>
      <point x="471" y="-357"/>
      <point x="443" y="-337"/>
      <point x="443" y="-273" type="curve" smooth="yes"/>
    </contour>
  </outline>
</glyph>
<glyph name="wa" format="2">
  <advance width="486"/>
  <unicode hex="101D"/>
  <outline>
    <contour>
      <point x="234" y="553" type="line" smooth="yes"/>
      <point x="168" y="553"/>
      <point x="112" y="523"/>
      <point x="80" y="465" type="curve" smooth="yes"/>
      <point x="57" y="423"/>
      <point x="43" y="362"/>
      <point x="43" y="273" type="curve" smooth="yes"/>
      <point x="43" y="184"/>
      <point x="57" y="123"/>
      <point x="80" y="81" type="curve" smooth="yes"/>
      <point x="112" y="23"/>
      <point x="168" y="-7"/>
      <point x="234" y="-7" type="curve" smooth="yes"/>
      <point x="252" y="-7" type="line" smooth="yes"/>
      <point x="318" y="-7"/>
      <point x="374" y="23"/>
      <point x="406" y="81" type="curve" smooth="yes"/>
      <point x="429" y="123"/>
      <point x="443" y="184"/>
      <point x="443" y="273" type="curve" smooth="yes"/>
      <point x="443" y="362"/>
      <point x="429" y="423"/>
      <point x="406" y="465" type="curve" smooth="yes"/>
      <point x="374" y="523"/>
      <point x="318" y="553"/>
      <point x="252" y="553" type="curve" smooth="yes"/>
    </contour>
    <contour>
      <point x="243" y="173" type="curve" smooth="yes"/>
      <point x="178" y="173"/>
      <point x="121" y="202"/>
      <point x="121" y="269" type="curve" smooth="yes"/>
      <point x="121" y="277" type="line" smooth="yes"/>
      <point x="121" y="344"/>
      <point x="178" y="373"/>
      <point x="243" y="373" type="curve" smooth="yes"/>
      <point x="308" y="373"/>
      <point x="364" y="344"/>
      <point x="365" y="277" type="curve" smooth="yes"/>
      <point x="365" y="269" type="line" smooth="yes"/>
      <point x="364" y="202"/>
      <point x="308" y="173"/>
    </contour>
  </outline>
</glyph>
<glyph name="sa" format="2">
  <advance width="781"/>
  <unicode hex="101E"/>
  <note>
sa
</note>
  <outline>
    <contour>
      <point x="126" y="303" type="line"/>
      <point x="135" y="348"/>
      <point x="176" y="373"/>
      <point x="243" y="373" type="curve" smooth="yes"/>
      <point x="308" y="373"/>
      <point x="365" y="344"/>
      <point x="365" y="277" type="curve" smooth="yes"/>
      <point x="365" y="269" type="line" smooth="yes"/>
      <point x="365" y="202"/>
      <point x="308" y="173"/>
      <point x="243" y="173" type="curve" smooth="yes"/>
      <point x="176" y="173"/>
      <point x="135" y="198"/>
      <point x="126" y="243" type="curve"/>
      <point x="44" y="243" type="line"/>
      <point x="47" y="82"/>
      <point x="120" y="-7"/>
      <point x="234" y="-7" type="curve" smooth="yes"/>
      <point x="252" y="-7" type="line" smooth="yes"/>
      <point x="318" y="-7"/>
      <point x="374" y="23"/>
      <point x="406" y="81" type="curve" smooth="yes"/>
      <point x="429" y="123"/>
      <point x="443" y="184"/>
      <point x="443" y="273" type="curve" smooth="yes"/>
      <point x="443" y="362"/>
      <point x="429" y="423"/>
      <point x="406" y="465" type="curve" smooth="yes"/>
      <point x="374" y="523"/>
      <point x="318" y="553"/>
      <point x="252" y="553" type="curve" smooth="yes"/>
      <point x="234" y="553" type="line" smooth="yes"/>
      <point x="120" y="553"/>
      <point x="47" y="464"/>
      <point x="44" y="303" type="curve"/>
    </contour>
    <contour>
      <point x="375" y="81" type="line"/>
      <point x="407" y="23"/>
      <point x="463" y="-7"/>
      <point x="529" y="-7" type="curve" smooth="yes"/>
      <point x="547" y="-7" type="line" smooth="yes"/>
      <point x="613" y="-7"/>
      <point x="669" y="23"/>
      <point x="701" y="81" type="curve" smooth="yes"/>
      <point x="724" y="123"/>
      <point x="738" y="184"/>
      <point x="738" y="273" type="curve" smooth="yes"/>
      <point x="738" y="362"/>
      <point x="724" y="423"/>
      <point x="701" y="465" type="curve" smooth="yes"/>
      <point x="669" y="523"/>
      <point x="613" y="553"/>
      <point x="547" y="553" type="curve" smooth="yes"/>
      <point x="533" y="553"/>
      <point x="521" y="553"/>
      <point x="505" y="552" type="curve"/>
      <point x="505" y="373" type="line"/>
      <point x="538" y="373" type="line" smooth="yes"/>
      <point x="603" y="373"/>
      <point x="659" y="344"/>
      <point x="660" y="277" type="curve" smooth="yes"/>
      <point x="660" y="269" type="line" smooth="yes"/>
      <point x="659" y="202"/>
      <point x="603" y="173"/>
      <point x="538" y="173" type="curve" smooth="yes"/>
      <point x="492" y="173"/>
      <point x="451" y="187"/>
      <point x="430" y="219" type="curve"/>
    </contour>
  </outline>
</glyph>
<glyph name="lla" format="2">
  <advance width="486"/>
  <unicode hex="1020"/>
  <note>
lla
</note>
  <outline>
    <contour>
      <point x="442" y="243" type="line"/>
      <point x="358" y="189" type="line"/>
      <point x="358" y="28" type="line" smooth="yes"/>
      <point x="358" y="-25"/>
      <point x="350" y="-56"/>
      <point x="331" y="-71" type="curve" smooth="yes"/>
      <point x="313" y="-86"/>
      <point x="276" y="-91"/>
      <point x="241" y="-91" type="curve" smooth="yes"/>
      <point x="204" y="-91"/>
      <point x="167" y="-86"/>
      <point x="149" y="-71" type="curve" smooth="yes"/>
      <point x="130" y="-56"/>
      <point x="122" y="-31"/>
      <point x="122" y="16" type="curve"/>
      <point x="43" y="16" type="line"/>
      <point x="43" y="-30" type="line" smooth="yes"/>
      <point x="43" y="-132"/>
      <point x="62" y="-174"/>
      <point x="84" y="-198" type="curve" smooth="yes"/>
      <point x="117" y="-235"/>
      <point x="170" y="-244"/>
      <point x="243" y="-244" type="curve" smooth="yes"/>
      <point x="315" y="-244"/>
      <point x="368" y="-235"/>
      <point x="401" y="-198" type="curve" smooth="yes"/>
      <point x="423" y="-174"/>
      <point x="442" y="-132"/>
      <point x="442" y="-30" type="curve" smooth="yes"/>
    </contour>
    <contour>
      <point x="442" y="-292" type="line"/>
      <point x="363" y="-292" type="line"/>
      <point x="363" y="-336"/>
      <point x="355" y="-361"/>
      <point x="336" y="-376" type="curve" smooth="yes"/>
      <point x="318" y="-391"/>
      <point x="281" y="-396"/>
      <point x="244" y="-396" type="curve" smooth="yes"/>
      <point x="209" y="-396"/>
      <point x="172" y="-391"/>
      <point x="154" y="-376" type="curve" smooth="yes"/>
      <point x="135" y="-361"/>
      <point x="127" y="-330"/>
      <point x="127" y="-280" type="curve" smooth="yes"/>
      <point x="127" y="-116" type="line"/>
      <point x="43" y="-19" type="line"/>
      <point x="43" y="-335" type="line" smooth="yes"/>
      <point x="43" y="-437"/>
      <point x="62" y="-479"/>
      <point x="84" y="-503" type="curve" smooth="yes"/>
      <point x="117" y="-540"/>
      <point x="170" y="-549"/>
      <point x="242" y="-549" type="curve" smooth="yes"/>
      <point x="315" y="-549"/>
      <point x="368" y="-540"/>
      <point x="401" y="-503" type="curve" smooth="yes"/>
      <point x="423" y="-479"/>
      <point x="442" y="-437"/>
      <point x="442" y="-335" type="curve" smooth="yes"/>
    </contour>
    <component base="nga"/>
  </outline>
</glyph>
<glyph name="a_m" format="2">
  <advance width="795"/>
  <unicode hex="1021"/>
  <note>
a_m
</note>
  <outline>
    <contour>
      <point x="561" y="553" type="curve" smooth="yes"/>
      <point x="543" y="553" type="line" smooth="yes"/>
      <point x="477" y="553"/>
      <point x="421" y="523"/>
      <point x="389" y="465" type="curve" smooth="yes"/>
      <point x="379" y="447"/>
      <point x="371" y="426"/>
      <point x="365" y="400" type="curve"/>
      <point x="426" y="304" type="line"/>
      <point x="444" y="349"/>
      <point x="496" y="373"/>
      <point x="552" y="373" type="curve" smooth="yes"/>
      <point x="619" y="373"/>
      <point x="678" y="344"/>
      <point x="678" y="277" type="curve" smooth="yes"/>
      <point x="678" y="265" type="line" smooth="yes"/>
      <point x="678" y="215"/>
      <point x="669" y="173"/>
      <point x="591" y="173" type="curve" smooth="yes"/>
      <point x="571" y="173" type="line" smooth="yes"/>
      <point x="531" y="173"/>
      <point x="520" y="191"/>
      <point x="520" y="206" type="curve" smooth="yes"/>
      <point x="520" y="226"/>
      <point x="533" y="241"/>
      <point x="571" y="241" type="curve" smooth="yes"/>
      <point x="576" y="241" type="line" smooth="yes"/>
      <point x="619" y="241"/>
      <point x="632" y="225"/>
      <point x="632" y="191" type="curve" smooth="yes"/>
      <point x="632" y="146" type="line"/>
      <point x="675" y="146" type="line"/>
      <point x="675" y="177" type="line" smooth="yes"/>
      <point x="676" y="277"/>
      <point x="630" y="305"/>
      <point x="572" y="305" type="curve" smooth="yes"/>
      <point x="499" y="305"/>
      <point x="468" y="262"/>
      <point x="468" y="171" type="curve" smooth="yes"/>
      <point x="468" y="38"/>
      <point x="515" y="-7"/>
      <point x="587" y="-7" type="curve" smooth="yes"/>
      <point x="645" y="-7"/>
      <point x="688" y="30"/>
      <point x="715" y="81" type="curve" smooth="yes"/>
      <point x="738" y="123"/>
      <point x="752" y="184"/>
      <point x="752" y="273" type="curve" smooth="yes"/>
      <point x="752" y="362"/>
      <point x="738" y="423"/>
      <point x="715" y="465" type="curve" smooth="yes"/>
      <point x="683" y="523"/>
      <point x="627" y="553"/>
    </contour>
    <component base="da"/>
  </outline>
</glyph>
<glyph name="a_shn" format="2">
  <advance width="781"/>
  <unicode hex="1022"/>
  <note>
a_shn
</note>
  <outline>
    <contour>
      <point x="238" y="553" type="line" smooth="yes"/>
      <point x="130" y="553"/>
      <point x="59" y="493"/>
      <point x="59" y="386" type="curve" smooth="yes"/>
      <point x="59" y="275"/>
      <point x="134" y="223"/>
      <point x="134" y="164" type="curve" smooth="yes"/>
      <point x="134" y="149"/>
      <point x="129" y="132"/>
      <point x="111" y="132" type="curve" smooth="yes"/>
      <point x="94" y="132"/>
      <point x="85" y="147"/>
      <point x="84" y="163" type="curve"/>
      <point x="33" y="163" type="line"/>
      <point x="17" y="43"/>
      <point x="70" y="-10"/>
      <point x="136" y="-10" type="curve" smooth="yes"/>
      <point x="194" y="-10"/>
      <point x="235" y="32"/>
      <point x="235" y="98" type="curve" smooth="yes"/>
      <point x="235" y="193"/>
      <point x="152" y="224"/>
      <point x="152" y="299" type="curve" smooth="yes"/>
      <point x="152" y="352"/>
      <point x="195" y="373"/>
      <point x="248" y="373" type="curve" smooth="yes"/>
      <point x="311" y="373"/>
      <point x="364" y="344"/>
      <point x="365" y="277" type="curve" smooth="yes"/>
      <point x="365" y="269" type="line" smooth="yes"/>
      <point x="365" y="209"/>
      <point x="319" y="182"/>
      <point x="277" y="177" type="curve"/>
      <point x="277" y="-7" type="line"/>
      <point x="323" y="-4"/>
      <point x="373" y="20"/>
      <point x="406" y="80" type="curve" smooth="yes"/>
      <point x="429" y="123"/>
      <point x="443" y="184"/>
      <point x="443" y="273" type="curve" smooth="yes"/>
      <point x="443" y="362"/>
      <point x="429" y="423"/>
      <point x="406" y="465" type="curve" smooth="yes"/>
      <point x="374" y="523"/>
      <point x="318" y="553"/>
      <point x="252" y="553" type="curve" smooth="yes"/>
    </contour>
    <contour>
      <point x="375" y="465" type="curve"/>
      <point x="430" y="327" type="line"/>
      <point x="451" y="359"/>
      <point x="492" y="373"/>
      <point x="538" y="373" type="curve" smooth="yes"/>
      <point x="603" y="373"/>
      <point x="659" y="344"/>
      <point x="660" y="277" type="curve" smooth="yes"/>
      <point x="660" y="269" type="line" smooth="yes"/>
      <point x="659" y="202"/>
      <point x="603" y="173"/>
      <point x="538" y="173" type="curve" smooth="yes"/>
      <point x="505" y="173" type="line"/>
      <point x="505" y="-6" type="line"/>
      <point x="521" y="-7"/>
      <point x="533" y="-7"/>
      <point x="547" y="-7" type="curve" smooth="yes"/>
      <point x="613" y="-7"/>
      <point x="669" y="23"/>
      <point x="701" y="81" type="curve" smooth="yes"/>
      <point x="724" y="123"/>
      <point x="738" y="184"/>
      <point x="738" y="273" type="curve" smooth="yes"/>
      <point x="738" y="362"/>
      <point x="724" y="423"/>
      <point x="701" y="465" type="curve" smooth="yes"/>
      <point x="669" y="523"/>
      <point x="613" y="553"/>
      <point x="547" y="553" type="curve" smooth="yes"/>
      <point x="529" y="553" type="line" smooth="yes"/>
      <point x="463" y="553"/>
      <point x="407" y="523"/>
    </contour>
  </outline>
</glyph>
<glyph name="i_m" format="2">
  <advance width="781"/>
  <unicode hex="1023"/>
  <note>
Unlikely to ever have marks below.
</note>
  <outline>
    <contour>
      <point x="505" y="173" type="line"/>
      <point x="505" y="-5" type="line"/>
      <point x="521" y="-7"/>
      <point x="533" y="-7"/>
      <point x="547" y="-7" type="curve" smooth="yes"/>
      <point x="613" y="-7"/>
      <point x="669" y="23"/>
      <point x="701" y="81" type="curve" smooth="yes"/>
      <point x="724" y="123"/>
      <point x="738" y="184"/>
      <point x="738" y="273" type="curve" smooth="yes"/>
      <point x="738" y="362"/>
      <point x="724" y="423"/>
      <point x="701" y="465" type="curve" smooth="yes"/>
      <point x="669" y="523"/>
      <point x="613" y="553"/>
      <point x="549" y="553" type="curve" smooth="yes"/>
      <point x="531" y="553" type="line" smooth="yes"/>
      <point x="409" y="553"/>
      <point x="350" y="443"/>
      <point x="360" y="271" type="curve"/>
      <point x="421" y="271" type="line"/>
      <point x="431" y="443"/>
      <point x="372" y="553"/>
      <point x="250" y="553" type="curve" smooth="yes"/>
      <point x="232" y="553" type="line" smooth="yes"/>
      <point x="168" y="553"/>
      <point x="112" y="523"/>
      <point x="80" y="465" type="curve" smooth="yes"/>
      <point x="57" y="423"/>
      <point x="43" y="362"/>
      <point x="43" y="273" type="curve" smooth="yes"/>
      <point x="43" y="184"/>
      <point x="57" y="123"/>
      <point x="80" y="81" type="curve" smooth="yes"/>
      <point x="112" y="23"/>
      <point x="168" y="-7"/>
      <point x="234" y="-7" type="curve" smooth="yes"/>
      <point x="248" y="-7"/>
      <point x="260" y="-7"/>
      <point x="276" y="-5" type="curve"/>
      <point x="276" y="173" type="line"/>
      <point x="243" y="173" type="line" smooth="yes"/>
      <point x="178" y="173"/>
      <point x="122" y="202"/>
      <point x="121" y="269" type="curve" smooth="yes"/>
      <point x="121" y="277" type="line" smooth="yes"/>
      <point x="122" y="344"/>
      <point x="173" y="373"/>
      <point x="231" y="373" type="curve" smooth="yes"/>
      <point x="299" y="373"/>
      <point x="345" y="358"/>
      <point x="352" y="277" type="curve" smooth="yes"/>
      <point x="358" y="208" type="line"/>
      <point x="423" y="208" type="line"/>
      <point x="429" y="277" type="line" smooth="yes"/>
      <point x="436" y="358"/>
      <point x="482" y="373"/>
      <point x="550" y="373" type="curve" smooth="yes"/>
      <point x="608" y="373"/>
      <point x="659" y="344"/>
      <point x="660" y="277" type="curve" smooth="yes"/>
      <point x="660" y="269" type="line" smooth="yes"/>
      <point x="659" y="202"/>
      <point x="603" y="173"/>
      <point x="538" y="173" type="curve" smooth="yes"/>
    </contour>
    <contour>
      <point x="789" y="-412" type="line"/>
      <point x="661" y="-412" type="line"/>
      <point x="661" y="-445" type="line" smooth="yes"/>
      <point x="661" y="-490"/>
      <point x="637" y="-498"/>
      <point x="608" y="-498" type="curve" smooth="yes"/>
      <point x="585" y="-498"/>
      <point x="566" y="-491"/>
      <point x="566" y="-469" type="curve" smooth="yes"/>
      <point x="566" y="-441" type="line"/>
      <point x="632" y="-408"/>
      <point x="678" y="-348"/>
      <point x="678" y="-250" type="curve" smooth="yes"/>
      <point x="678" y="-146"/>
      <point x="626" y="-68"/>
      <point x="525" y="-68" type="curve" smooth="yes"/>
      <point x="512" y="-68" type="line" smooth="yes"/>
      <point x="394" y="-68"/>
      <point x="351" y="-157"/>
      <point x="359" y="-308" type="curve"/>
      <point x="410" y="-308" type="line"/>
      <point x="418" y="-157"/>
      <point x="379" y="-68"/>
      <point x="264" y="-68" type="curve" smooth="yes"/>
      <point x="249" y="-68" type="line" smooth="yes"/>
      <point x="194" y="-68"/>
      <point x="150" y="-96"/>
      <point x="122" y="-138" type="curve" smooth="yes"/>
      <point x="90" y="-186"/>
      <point x="85" y="-249"/>
      <point x="85" y="-308" type="curve" smooth="yes"/>
      <point x="85" y="-381"/>
      <point x="94" y="-434"/>
      <point x="119" y="-474" type="curve" smooth="yes"/>
      <point x="146" y="-519"/>
      <point x="191" y="-549"/>
      <point x="249" y="-549" type="curve" smooth="yes"/>
      <point x="259" y="-549"/>
      <point x="270" y="-549"/>
      <point x="280" y="-546" type="curve"/>
      <point x="280" y="-397" type="line"/>
      <point x="258" y="-397" type="line" smooth="yes"/>
      <point x="213" y="-397"/>
      <point x="149" y="-381"/>
      <point x="149" y="-311" type="curve" smooth="yes"/>
      <point x="149" y="-306" type="line" smooth="yes"/>
      <point x="149" y="-236"/>
      <point x="196" y="-220"/>
      <point x="249" y="-220" type="curve" smooth="yes"/>
      <point x="300" y="-220"/>
      <point x="345" y="-236"/>
      <point x="352" y="-312" type="curve" smooth="yes"/>
      <point x="357" y="-370" type="line"/>
      <point x="413" y="-370" type="line"/>
      <point x="418" y="-312" type="line" smooth="yes"/>
      <point x="425" y="-236"/>
      <point x="467" y="-220"/>
      <point x="509" y="-220" type="curve" smooth="yes"/>
      <point x="556" y="-220"/>
      <point x="582" y="-246"/>
      <point x="582" y="-290" type="curve" smooth="yes"/>
      <point x="582" y="-293" type="line" smooth="yes"/>
      <point x="582" y="-350"/>
      <point x="538" y="-387"/>
      <point x="447" y="-412" type="curve"/>
      <point x="447" y="-468" type="line" smooth="yes"/>
      <point x="447" y="-536"/>
      <point x="499" y="-559"/>
      <point x="606" y="-559" type="curve" smooth="yes"/>
      <point x="725" y="-559"/>
      <point x="789" y="-534"/>
      <point x="789" y="-443" type="curve" smooth="yes"/>
    </contour>
  </outline>
</glyph>
<glyph name="ii" format="2">
  <advance width="969"/>
  <unicode hex="1024"/>
  <outline>
    <contour>
      <point x="738" y="273" type="line" smooth="yes"/>
      <point x="738" y="362"/>
      <point x="724" y="423"/>
      <point x="701" y="465" type="curve" smooth="yes"/>
      <point x="669" y="523"/>
      <point x="613" y="553"/>
      <point x="547" y="553" type="curve" smooth="yes"/>
      <point x="529" y="553" type="line" smooth="yes"/>
      <point x="463" y="553"/>
      <point x="407" y="523"/>
      <point x="375" y="465" type="curve"/>
      <point x="430" y="327" type="line"/>
      <point x="451" y="359"/>
      <point x="492" y="373"/>
      <point x="538" y="373" type="curve" smooth="yes"/>
      <point x="596" y="373"/>
      <point x="646" y="344"/>
      <point x="646" y="277" type="curve" smooth="yes"/>
      <point x="646" y="-251" type="line" smooth="yes"/>
      <point x="646" y="-307"/>
      <point x="634" y="-340"/>
      <point x="608" y="-355" type="curve" smooth="yes"/>
      <point x="575" y="-372"/>
      <point x="514" y="-377"/>
      <point x="369" y="-377" type="curve" smooth="yes"/>
      <point x="266" y="-377"/>
      <point x="198" y="-374"/>
      <point x="162" y="-356" type="curve" smooth="yes"/>
      <point x="143" y="-347"/>
      <point x="134" y="-333"/>
      <point x="134" y="-309" type="curve" smooth="yes"/>
      <point x="134" y="-270"/>
      <point x="167" y="-244"/>
      <point x="227" y="-244" type="curve" smooth="yes"/>
      <point x="295" y="-244"/>
      <point x="325" y="-274"/>
      <point x="330" y="-312" type="curve"/>
      <point x="499" y="-312" type="line"/>
      <point x="490" y="-218"/>
      <point x="403" y="-155"/>
      <point x="265" y="-155" type="curve" smooth="yes"/>
      <point x="120" y="-155"/>
      <point x="43" y="-226"/>
      <point x="43" y="-359" type="curve" smooth="yes"/>
      <point x="43" y="-429"/>
      <point x="67" y="-476"/>
      <point x="99" y="-502" type="curve" smooth="yes"/>
      <point x="144" y="-539"/>
      <point x="217" y="-549"/>
      <point x="373" y="-549" type="curve" smooth="yes"/>
      <point x="564" y="-549"/>
      <point x="638" y="-537"/>
      <point x="686" y="-497" type="curve" smooth="yes"/>
      <point x="714" y="-473"/>
      <point x="738" y="-429"/>
      <point x="738" y="-322" type="curve" smooth="yes"/>
    </contour>
    <contour>
      <point x="921" y="10" type="line"/>
      <point x="829" y="10" type="line"/>
      <point x="829" y="-542" type="line"/>
      <point x="921" y="-542" type="line"/>
    </contour>
    <component base="asatstem" xOffset="781"/>
    <component base="ga"/>
  </outline>
</glyph>
<glyph name="e_m" format="2">
  <advance width="486"/>
  <unicode hex="1027"/>
  <note>
e_m
</note>
  <outline>
    <contour>
      <point x="244" y="426" type="line"/>
      <point x="191" y="426" type="line"/>
      <point x="191" y="401" type="line" smooth="yes"/>
      <point x="191" y="315"/>
      <point x="223" y="285"/>
      <point x="316" y="285" type="curve" smooth="yes"/>
      <point x="410" y="285"/>
      <point x="443" y="317"/>
      <point x="443" y="386" type="curve" smooth="yes"/>
      <point x="443" y="486"/>
      <point x="368" y="553"/>
      <point x="263" y="553" type="curve" smooth="yes"/>
      <point x="131" y="553"/>
      <point x="43" y="464"/>
      <point x="43" y="273" type="curve" smooth="yes"/>
      <point x="43" y="82"/>
      <point x="132" y="-7"/>
      <point x="263" y="-7" type="curve" smooth="yes"/>
      <point x="368" y="-7"/>
      <point x="443" y="55"/>
      <point x="443" y="155" type="curve" smooth="yes"/>
      <point x="443" y="224"/>
      <point x="410" y="261"/>
      <point x="316" y="261" type="curve" smooth="yes"/>
      <point x="223" y="261"/>
      <point x="191" y="231"/>
      <point x="191" y="145" type="curve" smooth="yes"/>
      <point x="191" y="120" type="line"/>
      <point x="244" y="120" type="line"/>
      <point x="244" y="164" type="line" smooth="yes"/>
      <point x="244" y="198"/>
      <point x="262" y="215"/>
      <point x="303" y="215" type="curve" smooth="yes"/>
      <point x="304" y="215" type="line" smooth="yes"/>
      <point x="335" y="215"/>
      <point x="368" y="212"/>
      <point x="368" y="185" type="curve" smooth="yes"/>
      <point x="368" y="163"/>
      <point x="345" y="153"/>
      <point x="304" y="153" type="curve" smooth="yes"/>
      <point x="247" y="153" type="line" smooth="yes"/>
      <point x="186" y="153"/>
      <point x="121" y="192"/>
      <point x="121" y="270" type="curve" smooth="yes"/>
      <point x="121" y="276" type="line" smooth="yes"/>
      <point x="121" y="354"/>
      <point x="185" y="393"/>
      <point x="247" y="393" type="curve" smooth="yes"/>
      <point x="304" y="393" type="line" smooth="yes"/>
      <point x="345" y="393"/>
      <point x="368" y="383"/>
      <point x="368" y="361" type="curve" smooth="yes"/>
      <point x="368" y="334"/>
      <point x="335" y="331"/>
      <point x="304" y="331" type="curve" smooth="yes"/>
      <point x="303" y="331" type="line" smooth="yes"/>
      <point x="262" y="331"/>
      <point x="244" y="348"/>
      <point x="244" y="382" type="curve" smooth="yes"/>
    </contour>
  </outline>
</glyph>
<glyph name="e_mon" format="2">
  <advance width="481"/>
  <unicode hex="1028"/>
  <outline>
    <contour>
      <point x="165" y="249" type="curve"/>
      <point x="203" y="249" type="line"/>
      <point x="205" y="276"/>
      <point x="223" y="288"/>
      <point x="254" y="288" type="curve" smooth="yes"/>
      <point x="290" y="288"/>
      <point x="301" y="272"/>
      <point x="301" y="252" type="curve" smooth="yes"/>
      <point x="301" y="181"/>
      <point x="148" y="210"/>
      <point x="148" y="91" type="curve" smooth="yes"/>
      <point x="148" y="29"/>
      <point x="190" y="-7"/>
      <point x="264" y="-7" type="curve" smooth="yes"/>
      <point x="387" y="-7"/>
      <point x="448" y="92"/>
      <point x="448" y="272" type="curve" smooth="yes"/>
      <point x="448" y="434"/>
      <point x="399" y="553"/>
      <point x="257" y="553" type="curve" smooth="yes"/>
      <point x="239" y="553" type="line" smooth="yes"/>
      <point x="173" y="553"/>
      <point x="117" y="523"/>
      <point x="85" y="465" type="curve" smooth="yes"/>
      <point x="62" y="423"/>
      <point x="48" y="362"/>
      <point x="48" y="273" type="curve" smooth="yes"/>
      <point x="48" y="-269" type="line" smooth="yes"/>
      <point x="48" y="-358"/>
      <point x="62" y="-419"/>
      <point x="85" y="-461" type="curve" smooth="yes"/>
      <point x="117" y="-519"/>
      <point x="173" y="-549"/>
      <point x="239" y="-549" type="curve" smooth="yes"/>
      <point x="257" y="-549" type="line" smooth="yes"/>
      <point x="323" y="-549"/>
      <point x="379" y="-519"/>
      <point x="411" y="-461" type="curve" smooth="yes"/>
      <point x="434" y="-419"/>
      <point x="448" y="-354"/>
      <point x="448" y="-279" type="curve" smooth="yes"/>
      <point x="448" y="-251"/>
      <point x="446" y="-234"/>
      <point x="443" y="-222" type="curve"/>
      <point x="370" y="-223" type="line"/>
      <point x="370" y="-247" type="line" smooth="yes"/>
      <point x="370" y="-332"/>
      <point x="319" y="-369"/>
      <point x="251" y="-369" type="curve" smooth="yes"/>
      <point x="183" y="-369"/>
      <point x="132" y="-332"/>
      <point x="132" y="-247" type="curve" smooth="yes"/>
      <point x="133" y="235" type="line" smooth="yes"/>
      <point x="133" y="380"/>
      <point x="210" y="400"/>
      <point x="259" y="400" type="curve" smooth="yes"/>
      <point x="325" y="400"/>
      <point x="374" y="363"/>
      <point x="374" y="266" type="curve" smooth="yes"/>
      <point x="374" y="247" type="line" smooth="yes"/>
      <point x="374" y="112"/>
      <point x="293" y="87"/>
      <point x="248" y="87" type="curve" smooth="yes"/>
      <point x="222" y="87"/>
      <point x="206" y="95"/>
      <point x="206" y="112" type="curve" smooth="yes"/>
      <point x="206" y="163"/>
      <point x="353" y="138"/>
      <point x="353" y="270" type="curve" smooth="yes"/>
      <point x="353" y="335"/>
      <point x="318" y="366"/>
      <point x="261" y="366" type="curve" smooth="yes"/>
      <point x="195" y="366"/>
      <point x="153" y="324"/>
    </contour>
  </outline>
</glyph>
<glyph name="_tall_aa" format="2">
  <advance width="188"/>
  <unicode hex="102B"/>
  <note>
_tall_aa
</note>
  <outline>
    <contour>
      <point x="140" y="846" type="line" smooth="yes"/>
      <point x="140" y="1004"/>
      <point x="80" y="1095"/>
      <point x="-46" y="1095" type="curve" smooth="yes"/>
      <point x="-171" y="1095"/>
      <point x="-241" y="1003"/>
      <point x="-241" y="855" type="curve" smooth="yes"/>
      <point x="-241" y="840"/>
      <point x="-240" y="826"/>
      <point x="-238" y="812" type="curve"/>
      <point x="-158" y="812" type="line"/>
      <point x="-158" y="826" type="line" smooth="yes"/>
      <point x="-158" y="895"/>
      <point x="-107" y="915"/>
      <point x="-56" y="915" type="curve" smooth="yes"/>
      <point x="6" y="915"/>
      <point x="48" y="886"/>
      <point x="48" y="793" type="curve" smooth="yes"/>
      <point x="48" y="0" type="line"/>
      <point x="140" y="0" type="line"/>
    </contour>
  </outline>
</glyph>
<glyph name="_aa" format="2">
  <advance width="295"/>
  <unicode hex="102C"/>
  <outline>
    <contour>
      <point x="-111" y="465" type="curve"/>
      <point x="-56" y="327" type="line"/>
      <point x="-35" y="359"/>
      <point x="6" y="373"/>
      <point x="52" y="373" type="curve" smooth="yes"/>
      <point x="117" y="373"/>
      <point x="173" y="344"/>
      <point x="174" y="277" type="curve" smooth="yes"/>
      <point x="174" y="269" type="line" smooth="yes"/>
      <point x="173" y="202"/>
      <point x="117" y="173"/>
      <point x="52" y="173" type="curve" smooth="yes"/>
      <point x="19" y="173" type="line"/>
      <point x="19" y="-6" type="line"/>
      <point x="35" y="-7"/>
      <point x="47" y="-7"/>
      <point x="61" y="-7" type="curve" smooth="yes"/>
      <point x="127" y="-7"/>
      <point x="183" y="23"/>
      <point x="215" y="81" type="curve" smooth="yes"/>
      <point x="238" y="123"/>
      <point x="252" y="184"/>
      <point x="252" y="273" type="curve" smooth="yes"/>
      <point x="252" y="362"/>
      <point x="238" y="423"/>
      <point x="215" y="465" type="curve" smooth="yes"/>
      <point x="183" y="523"/>
      <point x="127" y="553"/>
      <point x="61" y="553" type="curve" smooth="yes"/>
      <point x="43" y="553" type="line" smooth="yes"/>
      <point x="-23" y="553"/>
      <point x="-79" y="523"/>
    </contour>
  </outline>
</glyph>
<glyph name="_u" format="2">
  <unicode hex="102F"/>
  <outline>
    <contour>
      <point x="-205" y="86" type="line"/>
      <point x="-281" y="86" type="line"/>
      <point x="-281" y="-346" type="line" smooth="yes"/>
      <point x="-281" y="-489"/>
      <point x="-243" y="-549"/>
      <point x="-122" y="-549" type="curve" smooth="yes"/>
      <point x="-120" y="-549"/>
      <point x="-114" y="-549"/>
      <point x="-107" y="-548" type="curve"/>
      <point x="-107" y="-357" type="line"/>
      <point x="-123" y="-357" type="line" smooth="yes"/>
      <point x="-179" y="-357"/>
      <point x="-205" y="-341"/>
      <point x="-205" y="-274" type="curve" smooth="yes"/>
    </contour>
  </outline>
</glyph>
<glyph name="_uu" format="2">
  <unicode hex="1030"/>
  <outline>
    <contour>
      <point x="-353" y="-542" type="line"/>
      <point x="-277" y="-542" type="line"/>
      <point x="-277" y="25" type="line"/>
      <point x="-353" y="25" type="line"/>
    </contour>
    <component base="_u" xOffset="72"/>
  </outline>
</glyph>
<glyph name="_e" format="2">
  <advance width="486"/>
  <unicode hex="1031"/>
  <note>
_e
</note>
  <outline>
    <contour>
      <point x="442" y="312" type="line"/>
      <point x="439" y="467"/>
      <point x="366" y="553"/>
      <point x="252" y="553" type="curve" smooth="yes"/>
      <point x="234" y="553" type="line" smooth="yes"/>
      <point x="168" y="553"/>
      <point x="112" y="523"/>
      <point x="80" y="465" type="curve" smooth="yes"/>
      <point x="57" y="423"/>
      <point x="43" y="362"/>
      <point x="43" y="273" type="curve" smooth="yes"/>
      <point x="43" y="184"/>
      <point x="57" y="123"/>
      <point x="80" y="81" type="curve" smooth="yes"/>
      <point x="113" y="23"/>
      <point x="177" y="-7"/>
      <point x="246" y="-7" type="curve" smooth="yes"/>
      <point x="263" y="-7" type="line" smooth="yes"/>
      <point x="375" y="-7"/>
      <point x="440" y="70"/>
      <point x="440" y="173" type="curve" smooth="yes"/>
      <point x="440" y="238"/>
      <point x="419" y="301"/>
      <point x="314" y="301" type="curve" smooth="yes"/>
      <point x="235" y="301"/>
      <point x="186" y="277"/>
      <point x="186" y="177" type="curve" smooth="yes"/>
      <point x="186" y="146" type="line"/>
      <point x="239" y="146" type="line"/>
      <point x="239" y="190" type="line" smooth="yes"/>
      <point x="239" y="225"/>
      <point x="257" y="241"/>
      <point x="292" y="241" type="curve" smooth="yes"/>
      <point x="322" y="241" type="line" smooth="yes"/>
      <point x="355" y="241"/>
      <point x="370" y="228"/>
      <point x="370" y="210" type="curve" smooth="yes"/>
      <point x="370" y="186"/>
      <point x="343" y="173"/>
      <point x="294" y="173" type="curve" smooth="yes"/>
      <point x="241" y="173" type="line" smooth="yes"/>
      <point x="177" y="173"/>
      <point x="121" y="202"/>
      <point x="121" y="269" type="curve" smooth="yes"/>
      <point x="121" y="277" type="line" smooth="yes"/>
      <point x="121" y="344"/>
      <point x="178" y="373"/>
      <point x="243" y="373" type="curve" smooth="yes"/>
      <point x="310" y="373"/>
      <point x="351" y="351"/>
      <point x="360" y="312" type="curve"/>
    </contour>
  </outline>
</glyph>
<glyph name="_ai" format="2">
  <unicode hex="1032"/>
  <note>
_ai
</note>
  <outline>
    <contour>
      <point x="-75" y="641" type="line"/>
      <point x="-275" y="942" type="line"/>
      <point x="-423" y="900" type="line"/>
      <point x="-162" y="656" type="line"/>
    </contour>
  </outline>
</glyph>
<glyph name="_ii_mon" format="2">
  <unicode hex="1033"/>
  <outline>
    <contour>
      <point x="-243" y="798" type="curve" smooth="yes"/>
      <point x="-189" y="798"/>
      <point x="-164" y="815"/>
      <point x="-164" y="855" type="curve" smooth="yes"/>
      <point x="-164" y="895"/>
      <point x="-189" y="911"/>
      <point x="-243" y="911" type="curve" smooth="yes"/>
      <point x="-295" y="911"/>
      <point x="-322" y="895"/>
      <point x="-322" y="855" type="curve" smooth="yes"/>
      <point x="-322" y="815"/>
      <point x="-297" y="798"/>
    </contour>
    <contour>
      <point x="-243" y="828" type="curve" smooth="yes"/>
      <point x="-268" y="828"/>
      <point x="-280" y="836"/>
      <point x="-280" y="855" type="curve" smooth="yes"/>
      <point x="-280" y="873"/>
      <point x="-268" y="882"/>
      <point x="-243" y="882" type="curve" smooth="yes"/>
      <point x="-218" y="882"/>
      <point x="-206" y="873"/>
      <point x="-206" y="855" type="curve" smooth="yes"/>
      <point x="-206" y="836"/>
      <point x="-218" y="828"/>
    </contour>
    <component base="_i"/>
  </outline>
</glyph>
<glyph name="_o_mon" format="2">
  <unicode hex="1034"/>
  <note>
_o_mon
</note>
  <outline>
    <contour>
      <point x="-63" y="900" type="line"/>
      <point x="-211" y="942" type="line"/>
      <point x="-411" y="641" type="line"/>
      <point x="-324" y="656" type="line"/>
    </contour>
  </outline>
</glyph>
<glyph name="dot_below" format="2">
  <unicode hex="1037"/>
  <outline>
    <contour>
      <point x="-243" y="-352" type="curve" smooth="yes"/>
      <point x="-176" y="-352"/>
      <point x="-133" y="-301"/>
      <point x="-133" y="-222" type="curve" smooth="yes"/>
      <point x="-133" y="-141"/>
      <point x="-176" y="-90"/>
      <point x="-243" y="-90" type="curve" smooth="yes"/>
      <point x="-310" y="-90"/>
      <point x="-353" y="-141"/>
      <point x="-353" y="-222" type="curve" smooth="yes"/>
      <point x="-353" y="-301"/>
      <point x="-310" y="-352"/>
    </contour>
    <contour>
      <point x="-243" y="-266" type="curve" smooth="yes"/>
      <point x="-278" y="-266"/>
      <point x="-293" y="-248"/>
      <point x="-293" y="-222" type="curve" smooth="yes"/>
      <point x="-293" y="-195"/>
      <point x="-278" y="-176"/>
      <point x="-243" y="-176" type="curve" smooth="yes"/>
      <point x="-208" y="-176"/>
      <point x="-193" y="-195"/>
      <point x="-193" y="-222" type="curve" smooth="yes"/>
      <point x="-193" y="-248"/>
      <point x="-208" y="-266"/>
    </contour>
  </outline>
</glyph>
<glyph name="virama" format="2">
  <unicode hex="1039"/>
  <note>
virama
</note>
  <outline>
    <contour>
      <point x="-300" y="-542" type="line"/>
      <point x="-185" y="-542" type="line"/>
      <point x="-213" y="-305" type="line"/>
      <point x="-185" y="-68" type="line"/>
      <point x="-300" y="-68" type="line"/>
      <point x="-271" y="-305" type="line"/>
    </contour>
    <contour>
      <point x="-55" y="-345" type="line"/>
      <point x="-55" y="-262" type="line"/>
      <point x="-431" y="-262" type="line"/>
      <point x="-431" y="-345" type="line"/>
    </contour>
  </outline>
</glyph>
<glyph name="asat" format="2">
  <unicode hex="103A"/>
  <outline>
    <contour>
      <point x="-238" y="697" type="line"/>
      <point x="-323" y="756"/>
      <point x="-342" y="803"/>
      <point x="-342" y="842" type="curve" smooth="yes"/>
      <point x="-342" y="902"/>
      <point x="-302" y="928"/>
      <point x="-240" y="928" type="curve" smooth="yes"/>
      <point x="-191" y="928"/>
      <point x="-141" y="908"/>
      <point x="-141" y="849" type="curve" smooth="yes"/>
      <point x="-141" y="842" type="line"/>
      <point x="-80" y="842" type="line"/>
      <point x="-79" y="854"/>
      <point x="-79" y="869"/>
      <point x="-79" y="887" type="curve" smooth="yes"/>
      <point x="-79" y="1017"/>
      <point x="-128" y="1095"/>
      <point x="-241" y="1095" type="curve" smooth="yes"/>
      <point x="-348" y="1095"/>
      <point x="-415" y="1021"/>
      <point x="-415" y="889" type="curve" smooth="yes"/>
      <point x="-415" y="753"/>
      <point x="-343" y="678"/>
      <point x="-250" y="613" type="curve"/>
      <point x="-238" y="605" type="line"/>
    </contour>
  </outline>
</glyph>
<glyph name="medial_ya" format="2">
  <advance width="188"/>
  <unicode hex="103B"/>
  <outline>
    <contour>
      <point x="140" y="546" type="line"/>
      <point x="48" y="546" type="line"/>
      <point x="48" y="-291" type="line" smooth="yes"/>
      <point x="48" y="-342"/>
      <point x="42" y="-363"/>
      <point x="18" y="-363" type="curve" smooth="yes"/>
      <point x="3" y="-363"/>
      <point x="-9" y="-360"/>
      <point x="-41" y="-342" type="curve" smooth="yes"/>
      <point x="-102" y="-308"/>
      <point x="-109" y="-300"/>
      <point x="-109" y="-218" type="curve" smooth="yes"/>
      <point x="-109" y="115" type="line"/>
      <point x="-201" y="115" type="line"/>
      <point x="-201" y="-254" type="line" smooth="yes"/>
      <point x="-201" y="-411"/>
      <point x="-199" y="-444"/>
      <point x="-78" y="-503" type="curve" smooth="yes"/>
      <point x="8" y="-545"/>
      <point x="30" y="-549"/>
      <point x="58" y="-549" type="curve" smooth="yes"/>
      <point x="116" y="-549"/>
      <point x="140" y="-498"/>
      <point x="140" y="-392" type="curve" smooth="yes"/>
    </contour>
  </outline>
</glyph>
<glyph name="medial_wa" format="2">
  <unicode hex="103D"/>
  <outline>
    <contour>
      <point x="-250" y="-68" type="line" smooth="yes"/>
      <point x="-308" y="-68"/>
      <point x="-353" y="-96"/>
      <point x="-379" y="-142" type="curve" smooth="yes"/>
      <point x="-405" y="-184"/>
      <point x="-414" y="-237"/>
      <point x="-414" y="-308" type="curve" smooth="yes"/>
      <point x="-414" y="-380"/>
      <point x="-405" y="-433"/>
      <point x="-380" y="-475" type="curve" smooth="yes"/>
      <point x="-353" y="-521"/>
      <point x="-308" y="-549"/>
      <point x="-250" y="-549" type="curve" smooth="yes"/>
      <point x="-237" y="-549" type="line" smooth="yes"/>
      <point x="-179" y="-549"/>
      <point x="-134" y="-521"/>
      <point x="-107" y="-475" type="curve" smooth="yes"/>
      <point x="-82" y="-433"/>
      <point x="-73" y="-380"/>
      <point x="-73" y="-308" type="curve" smooth="yes"/>
      <point x="-73" y="-237"/>
      <point x="-82" y="-184"/>
      <point x="-108" y="-142" type="curve" smooth="yes"/>
      <point x="-134" y="-96"/>
      <point x="-179" y="-68"/>
      <point x="-237" y="-68" type="curve" smooth="yes"/>
    </contour>
    <contour>
      <point x="-243" y="-397" type="curve" smooth="yes"/>
      <point x="-298" y="-397"/>
      <point x="-350" y="-382"/>
      <point x="-350" y="-311" type="curve" smooth="yes"/>
      <point x="-350" y="-306" type="line" smooth="yes"/>
      <point x="-350" y="-234"/>
      <point x="-298" y="-220"/>
      <point x="-243" y="-220" type="curve" smooth="yes"/>
      <point x="-189" y="-220"/>
      <point x="-137" y="-234"/>
      <point x="-137" y="-306" type="curve" smooth="yes"/>
      <point x="-137" y="-311" type="line" smooth="yes"/>
      <point x="-137" y="-382"/>
      <point x="-189" y="-397"/>
    </contour>
  </outline>
</glyph>
<glyph name="great_sa" format="2">
  <advance width="1076"/>
  <unicode hex="103F"/>
  <note>
Disable this ligature (sa+virama+sa) and use sa with subjoined sa for Mon.
</note>
  <outline>
    <contour>
      <point x="126" y="303" type="line"/>
      <point x="135" y="348"/>
      <point x="176" y="373"/>
      <point x="243" y="373" type="curve" smooth="yes"/>
      <point x="308" y="373"/>
      <point x="365" y="344"/>
      <point x="365" y="277" type="curve" smooth="yes"/>
      <point x="365" y="269" type="line" smooth="yes"/>
      <point x="365" y="202"/>
      <point x="308" y="173"/>
      <point x="243" y="173" type="curve" smooth="yes"/>
      <point x="176" y="173"/>
      <point x="135" y="198"/>
      <point x="126" y="243" type="curve"/>
      <point x="44" y="243" type="line"/>
      <point x="47" y="82"/>
      <point x="120" y="-7"/>
      <point x="234" y="-7" type="curve" smooth="yes"/>
      <point x="252" y="-7" type="line" smooth="yes"/>
      <point x="318" y="-7"/>
      <point x="374" y="23"/>
      <point x="406" y="81" type="curve" smooth="yes"/>
      <point x="429" y="123"/>
      <point x="443" y="184"/>
      <point x="443" y="273" type="curve" smooth="yes"/>
      <point x="443" y="362"/>
      <point x="429" y="423"/>
      <point x="406" y="465" type="curve" smooth="yes"/>
      <point x="374" y="523"/>
      <point x="318" y="553"/>
      <point x="252" y="553" type="curve" smooth="yes"/>
      <point x="234" y="553" type="line" smooth="yes"/>
      <point x="120" y="553"/>
      <point x="47" y="464"/>
      <point x="44" y="303" type="curve"/>
    </contour>
    <contour>
      <point x="375" y="81" type="line"/>
      <point x="407" y="23"/>
      <point x="463" y="-7"/>
      <point x="529" y="-7" type="curve" smooth="yes"/>
      <point x="547" y="-7" type="line" smooth="yes"/>
      <point x="613" y="-7"/>
      <point x="669" y="23"/>
      <point x="701" y="81" type="curve" smooth="yes"/>
      <point x="724" y="123"/>
      <point x="738" y="184"/>
      <point x="738" y="273" type="curve" smooth="yes"/>
      <point x="738" y="362"/>
      <point x="724" y="423"/>
      <point x="701" y="465" type="curve" smooth="yes"/>
      <point x="669" y="523"/>
      <point x="613" y="553"/>
      <point x="547" y="553" type="curve" smooth="yes"/>
      <point x="533" y="553"/>
      <point x="521" y="553"/>
      <point x="505" y="552" type="curve"/>
      <point x="505" y="373" type="line"/>
      <point x="538" y="373" type="line" smooth="yes"/>
      <point x="603" y="373"/>
      <point x="659" y="344"/>
      <point x="660" y="277" type="curve" smooth="yes"/>
      <point x="660" y="269" type="line" smooth="yes"/>
      <point x="659" y="202"/>
      <point x="603" y="173"/>
      <point x="538" y="173" type="curve" smooth="yes"/>
      <point x="492" y="173"/>
      <point x="451" y="187"/>
      <point x="430" y="219" type="curve"/>
    </contour>
    <contour>
      <point x="670" y="81" type="line"/>
      <point x="702" y="23"/>
      <point x="758" y="-7"/>
      <point x="824" y="-7" type="curve" smooth="yes"/>
      <point x="842" y="-7" type="line" smooth="yes"/>
      <point x="908" y="-7"/>
      <point x="964" y="23"/>
      <point x="996" y="81" type="curve" smooth="yes"/>
      <point x="1019" y="123"/>
      <point x="1033" y="184"/>
      <point x="1033" y="273" type="curve" smooth="yes"/>
      <point x="1033" y="362"/>
      <point x="1019" y="423"/>
      <point x="996" y="465" type="curve" smooth="yes"/>
      <point x="964" y="523"/>
      <point x="908" y="553"/>
      <point x="842" y="553" type="curve" smooth="yes"/>
      <point x="828" y="553"/>
      <point x="816" y="553"/>
      <point x="800" y="552" type="curve"/>
      <point x="800" y="373" type="line"/>
      <point x="833" y="373" type="line" smooth="yes"/>
      <point x="898" y="373"/>
      <point x="954" y="344"/>
      <point x="955" y="277" type="curve" smooth="yes"/>
      <point x="955" y="269" type="line" smooth="yes"/>
      <point x="954" y="202"/>
      <point x="898" y="173"/>
      <point x="833" y="173" type="curve" smooth="yes"/>
      <point x="787" y="173"/>
      <point x="746" y="187"/>
      <point x="725" y="219" type="curve"/>
    </contour>
  </outline>
</glyph>
<glyph name="two_m" format="2">
  <advance width="462"/>
  <unicode hex="1042"/>
  <outline>
    <contour>
      <point x="414" y="-200" type="curve" smooth="yes"/>
      <point x="414" y="546" type="line"/>
      <point x="322" y="546" type="line"/>
      <point x="322" y="-147" type="line" smooth="yes"/>
      <point x="322" y="-240"/>
      <point x="280" y="-269"/>
      <point x="218" y="-269" type="curve" smooth="yes"/>
      <point x="167" y="-269"/>
      <point x="116" y="-249"/>
      <point x="116" y="-180" type="curve" smooth="yes"/>
      <point x="116" y="-166" type="line"/>
      <point x="36" y="-166" type="line"/>
      <point x="34" y="-180"/>
      <point x="33" y="-194"/>
      <point x="33" y="-209" type="curve" smooth="yes"/>
      <point x="33" y="-357"/>
      <point x="103" y="-449"/>
      <point x="228" y="-449" type="curve" smooth="yes"/>
      <point x="354" y="-449"/>
      <point x="414" y="-358"/>
    </contour>
  </outline>
</glyph>
<glyph name="three_m" format="2">
  <advance width="486"/>
  <unicode hex="1043"/>
  <outline>
    <contour>
      <point x="234" y="-7" type="curve" smooth="yes"/>
      <point x="252" y="-7" type="line" smooth="yes"/>
      <point x="318" y="-7"/>
      <point x="374" y="23"/>
      <point x="406" y="81" type="curve" smooth="yes"/>
      <point x="429" y="123"/>
      <point x="443" y="184"/>
      <point x="443" y="273" type="curve" smooth="yes"/>
      <point x="443" y="362"/>
      <point x="429" y="423"/>
      <point x="406" y="465" type="curve" smooth="yes"/>
      <point x="374" y="523"/>
      <point x="318" y="553"/>
      <point x="252" y="553" type="curve" smooth="yes"/>
      <point x="234" y="553" type="line" smooth="yes"/>
      <point x="120" y="553"/>
      <point x="47" y="464"/>
      <point x="44" y="303" type="curve"/>
      <point x="126" y="303" type="line"/>
      <point x="135" y="348"/>
      <point x="176" y="373"/>
      <point x="243" y="373" type="curve" smooth="yes"/>
      <point x="308" y="373"/>
      <point x="365" y="344"/>
      <point x="365" y="277" type="curve" smooth="yes"/>
      <point x="365" y="269" type="line" smooth="yes"/>
      <point x="365" y="202"/>
      <point x="308" y="173"/>
      <point x="243" y="173" type="curve" smooth="yes"/>
      <point x="176" y="173"/>
      <point x="135" y="198"/>
      <point x="126" y="243" type="curve"/>
      <point x="44" y="243" type="line"/>
      <point x="45" y="185"/>
      <point x="56" y="137"/>
      <point x="80" y="81" type="curve" smooth="yes"/>
      <point x="312" y="-452" type="line"/>
      <point x="430" y="-405" type="line"/>
      <point x="194" y="-3" type="line"/>
      <point x="206" y="-6"/>
      <point x="220" y="-7"/>
    </contour>
  </outline>
</glyph>
<glyph name="five_m" format="2">
  <advance width="491"/>
  <unicode hex="1045"/>
  <outline>
    <contour>
      <point x="204" y="49" type="curve" smooth="yes"/>
      <point x="265" y="49"/>
      <point x="306" y="100"/>
      <point x="306" y="179" type="curve" smooth="yes"/>
      <point x="306" y="260"/>
      <point x="265" y="311"/>
      <point x="204" y="311" type="curve" smooth="yes"/>
      <point x="143" y="311"/>
      <point x="102" y="260"/>
      <point x="102" y="179" type="curve" smooth="yes"/>
      <point x="102" y="100"/>
      <point x="143" y="49"/>
    </contour>
    <contour>
      <point x="121" y="-123" type="line"/>
      <point x="48" y="-122" type="line"/>
      <point x="45" y="-134"/>
      <point x="43" y="-155"/>
      <point x="43" y="-169" type="curve" smooth="yes"/>
      <point x="43" y="-258"/>
      <point x="57" y="-319"/>
      <point x="80" y="-361" type="curve" smooth="yes"/>
      <point x="112" y="-419"/>
      <point x="168" y="-449"/>
      <point x="234" y="-449" type="curve" smooth="yes"/>
      <point x="252" y="-449" type="line" smooth="yes"/>
      <point x="318" y="-449"/>
      <point x="374" y="-419"/>
      <point x="406" y="-361" type="curve" smooth="yes"/>
      <point x="429" y="-319"/>
      <point x="443" y="-258"/>
      <point x="443" y="-169" type="curve" smooth="yes"/>
      <point x="443" y="273" type="line" smooth="yes"/>
      <point x="443" y="362"/>
      <point x="429" y="423"/>
      <point x="406" y="465" type="curve" smooth="yes"/>
      <point x="374" y="523"/>
      <point x="318" y="553"/>
      <point x="252" y="553" type="curve" smooth="yes"/>
      <point x="234" y="553" type="line" smooth="yes"/>
      <point x="168" y="553"/>
      <point x="112" y="523"/>
      <point x="80" y="465" type="curve" smooth="yes"/>
      <point x="57" y="423"/>
      <point x="43" y="362"/>
      <point x="43" y="273" type="curve" smooth="yes"/>
      <point x="43" y="188"/>
      <point x="55" y="126"/>
      <point x="85" y="73" type="curve" smooth="yes"/>
      <point x="112" y="25"/>
      <point x="150" y="-7"/>
      <point x="201" y="-7" type="curve" smooth="yes"/>
      <point x="280" y="-7"/>
      <point x="306" y="54"/>
      <point x="306" y="179" type="curve"/>
      <point x="278" y="125"/>
      <point x="243" y="111"/>
      <point x="202" y="111" type="curve" smooth="yes"/>
      <point x="140" y="111"/>
      <point x="117" y="194"/>
      <point x="117" y="257" type="curve" smooth="yes"/>
      <point x="117" y="271" type="line" smooth="yes"/>
      <point x="117" y="346"/>
      <point x="172" y="373"/>
      <point x="240" y="373" type="curve" smooth="yes"/>
      <point x="307" y="373"/>
      <point x="359" y="337"/>
      <point x="359" y="251" type="curve" smooth="yes"/>
      <point x="359" y="-147" type="line" smooth="yes"/>
      <point x="359" y="-232"/>
      <point x="309" y="-269"/>
      <point x="239" y="-269" type="curve" smooth="yes"/>
      <point x="175" y="-269"/>
      <point x="121" y="-232"/>
      <point x="121" y="-147" type="curve" smooth="yes"/>
    </contour>
    <contour>
      <point x="204" y="134" type="curve" smooth="yes"/>
      <point x="171" y="134"/>
      <point x="156" y="152"/>
      <point x="156" y="179" type="curve" smooth="yes"/>
      <point x="156" y="207"/>
      <point x="171" y="226"/>
      <point x="204" y="226" type="curve" smooth="yes"/>
      <point x="237" y="226"/>
      <point x="252" y="207"/>
      <point x="252" y="179" type="curve" smooth="yes"/>
      <point x="252" y="152"/>
      <point x="237" y="134"/>
    </contour>
  </outline>
</glyph>
<glyph name="seven_m" format="2">
  <advance width="486"/>
  <unicode hex="1047"/>
  <outline>
    <contour>
      <point x="421" y="-218" type="curve"/>
      <point x="348" y="-218" type="line"/>
      <point x="348" y="-225" type="line" smooth="yes"/>
      <point x="348" y="-284"/>
      <point x="319" y="-297"/>
      <point x="296" y="-297" type="curve" smooth="yes"/>
      <point x="262" y="-297"/>
      <point x="237" y="-280"/>
      <point x="237" y="-235" type="curve" smooth="yes"/>
      <point x="237" y="-196"/>
      <point x="254" y="-163"/>
      <point x="298" y="-98" type="curve" smooth="yes"/>
      <point x="371" y="10"/>
      <point x="443" y="108"/>
      <point x="443" y="274" type="curve" smooth="yes"/>
      <point x="443" y="362"/>
      <point x="429" y="423"/>
      <point x="406" y="465" type="curve" smooth="yes"/>
      <point x="374" y="523"/>
      <point x="318" y="553"/>
      <point x="252" y="553" type="curve" smooth="yes"/>
      <point x="234" y="553" type="line" smooth="yes"/>
      <point x="168" y="553"/>
      <point x="112" y="523"/>
      <point x="80" y="465" type="curve" smooth="yes"/>
      <point x="57" y="423"/>
      <point x="43" y="362"/>
      <point x="43" y="273" type="curve" smooth="yes"/>
      <point x="43" y="184"/>
      <point x="57" y="123"/>
      <point x="80" y="81" type="curve" smooth="yes"/>
      <point x="113" y="20"/>
      <point x="163" y="-4"/>
      <point x="209" y="-7" type="curve"/>
      <point x="209" y="177" type="line"/>
      <point x="167" y="182"/>
      <point x="121" y="209"/>
      <point x="121" y="269" type="curve" smooth="yes"/>
      <point x="121" y="277" type="line" smooth="yes"/>
      <point x="121" y="344"/>
      <point x="178" y="373"/>
      <point x="243" y="373" type="curve" smooth="yes"/>
      <point x="305" y="373"/>
      <point x="357" y="344"/>
      <point x="357" y="264" type="curve" smooth="yes"/>
      <point x="357" y="257" type="line" smooth="yes"/>
      <point x="357" y="148"/>
      <point x="315" y="70"/>
      <point x="251" y="-23" type="curve" smooth="yes"/>
      <point x="180" y="-126"/>
      <point x="133" y="-193"/>
      <point x="133" y="-289" type="curve" smooth="yes"/>
      <point x="133" y="-383"/>
      <point x="191" y="-449"/>
      <point x="283" y="-449" type="curve" smooth="yes"/>
      <point x="377" y="-449"/>
      <point x="425" y="-377"/>
      <point x="425" y="-258" type="curve" smooth="yes"/>
      <point x="425" y="-244"/>
      <point x="424" y="-230"/>
    </contour>
  </outline>
</glyph>
<glyph name="nine_m" format="2">
  <advance width="481"/>
  <unicode hex="1049"/>
  <outline>
    <contour>
      <point x="256" y="255" type="curve"/>
      <point x="334" y="168" type="line"/>
      <point x="402" y="188"/>
      <point x="443" y="238"/>
      <point x="443" y="345" type="curve" smooth="yes"/>
      <point x="443" y="455"/>
      <point x="393" y="553"/>
      <point x="256" y="553" type="curve" smooth="yes"/>
      <point x="244" y="553" type="line" smooth="yes"/>
      <point x="173" y="553"/>
      <point x="117" y="523"/>
      <point x="85" y="465" type="curve" smooth="yes"/>
      <point x="62" y="423"/>
      <point x="48" y="362"/>
      <point x="48" y="273" type="curve" smooth="yes"/>
      <point x="48" y="-169" type="line" smooth="yes"/>
      <point x="48" y="-258"/>
      <point x="62" y="-319"/>
      <point x="85" y="-361" type="curve" smooth="yes"/>
      <point x="117" y="-419"/>
      <point x="173" y="-449"/>
      <point x="239" y="-449" type="curve" smooth="yes"/>
      <point x="257" y="-449" type="line" smooth="yes"/>
      <point x="323" y="-449"/>
      <point x="379" y="-419"/>
      <point x="411" y="-361" type="curve" smooth="yes"/>
      <point x="434" y="-319"/>
      <point x="448" y="-258"/>
      <point x="448" y="-169" type="curve" smooth="yes"/>
      <point x="448" y="-155"/>
      <point x="446" y="-134"/>
      <point x="443" y="-122" type="curve"/>
      <point x="370" y="-123" type="line"/>
      <point x="370" y="-147" type="line" smooth="yes"/>
      <point x="370" y="-232"/>
      <point x="318" y="-269"/>
      <point x="258" y="-269" type="curve" smooth="yes"/>
      <point x="184" y="-269"/>
      <point x="132" y="-232"/>
      <point x="132" y="-147" type="curve" smooth="yes"/>
      <point x="132" y="243" type="line" smooth="yes"/>
      <point x="132" y="338"/>
      <point x="186" y="373"/>
      <point x="270" y="373" type="curve" smooth="yes"/>
      <point x="335" y="373"/>
      <point x="365" y="353"/>
      <point x="365" y="325" type="curve" smooth="yes"/>
      <point x="365" y="297"/>
      <point x="338" y="285"/>
      <point x="276" y="278" type="curve" smooth="yes"/>
      <point x="202" y="270"/>
      <point x="154" y="234"/>
      <point x="154" y="123" type="curve" smooth="yes"/>
      <point x="154" y="44"/>
      <point x="194" y="-7"/>
      <point x="256" y="-7" type="curve" smooth="yes"/>
      <point x="318" y="-7"/>
      <point x="358" y="44"/>
      <point x="358" y="123" type="curve" smooth="yes"/>
      <point x="358" y="204"/>
      <point x="317" y="255"/>
    </contour>
    <contour>
      <point x="256" y="78" type="curve" smooth="yes"/>
      <point x="223" y="78"/>
      <point x="208" y="96"/>
      <point x="208" y="123" type="curve" smooth="yes"/>
      <point x="208" y="151"/>
      <point x="223" y="170"/>
      <point x="256" y="170" type="curve" smooth="yes"/>
      <point x="289" y="170"/>
      <point x="304" y="151"/>
      <point x="304" y="123" type="curve" smooth="yes"/>
      <point x="304" y="96"/>
      <point x="289" y="78"/>
    </contour>
  </outline>
</glyph>
<glyph name="little_section" format="2">
  <advance width="282"/>
  <unicode hex="104A"/>
  <note>
little_section
</note>
  <outline>
    <contour>
      <point x="187" y="546" type="line"/>
      <point x="95" y="546" type="line"/>
      <point x="95" y="0" type="line"/>
      <point x="187" y="0" type="line"/>
    </contour>
  </outline>
</glyph>
<glyph name="locative" format="2">
  <advance width="486"/>
  <unicode hex="104C"/>
  <note>
locative
</note>
  <outline>
    <contour>
      <point x="44" y="247" type="line"/>
      <point x="44" y="1" type="line" smooth="yes"/>
      <point x="44" y="-101"/>
      <point x="63" y="-143"/>
      <point x="85" y="-167" type="curve" smooth="yes"/>
      <point x="119" y="-204"/>
      <point x="171" y="-213"/>
      <point x="243" y="-213" type="curve" smooth="yes"/>
      <point x="316" y="-213"/>
      <point x="368" y="-204"/>
      <point x="402" y="-167" type="curve" smooth="yes"/>
      <point x="424" y="-143"/>
      <point x="443" y="-101"/>
      <point x="443" y="1" type="curve" smooth="yes"/>
      <point x="443" y="27" type="line"/>
      <point x="364" y="27" type="line"/>
      <point x="364" y="0"/>
      <point x="356" y="-25"/>
      <point x="337" y="-40" type="curve" smooth="yes"/>
      <point x="319" y="-55"/>
      <point x="282" y="-60"/>
      <point x="245" y="-60" type="curve" smooth="yes"/>
      <point x="210" y="-60"/>
      <point x="173" y="-55"/>
      <point x="155" y="-40" type="curve" smooth="yes"/>
      <point x="136" y="-25"/>
      <point x="128" y="6"/>
      <point x="128" y="59" type="curve" smooth="yes"/>
      <point x="128" y="189" type="line"/>
    </contour>
    <contour>
      <point x="443" y="16" type="line"/>
      <point x="359" y="-131" type="line"/>
      <point x="359" y="-301" type="line" smooth="yes"/>
      <point x="359" y="-354"/>
      <point x="351" y="-385"/>
      <point x="331" y="-400" type="curve" smooth="yes"/>
      <point x="312" y="-415"/>
      <point x="272" y="-420"/>
      <point x="228" y="-420" type="curve" smooth="yes"/>
      <point x="167" y="-420"/>
      <point x="110" y="-412"/>
      <point x="110" y="-364" type="curve" smooth="yes"/>
      <point x="110" y="-335"/>
      <point x="132" y="-317"/>
      <point x="169" y="-317" type="curve" smooth="yes"/>
      <point x="212" y="-317"/>
      <point x="229" y="-339"/>
      <point x="232" y="-361" type="curve"/>
      <point x="337" y="-361" type="line"/>
      <point x="331" y="-292"/>
      <point x="282" y="-242"/>
      <point x="195" y="-242" type="curve" smooth="yes"/>
      <point x="92" y="-242"/>
      <point x="44" y="-301"/>
      <point x="44" y="-388" type="curve" smooth="yes"/>
      <point x="44" y="-446"/>
      <point x="62" y="-484"/>
      <point x="87" y="-507" type="curve" smooth="yes"/>
      <point x="121" y="-539"/>
      <point x="171" y="-549"/>
      <point x="244" y="-549" type="curve" smooth="yes"/>
      <point x="316" y="-549"/>
      <point x="368" y="-540"/>
      <point x="402" y="-503" type="curve" smooth="yes"/>
      <point x="424" y="-479"/>
      <point x="443" y="-437"/>
      <point x="443" y="-335" type="curve" smooth="yes"/>
    </contour>
    <component base="asat" xOffset="493"/>
    <component base="nga" xScale="-1" yScale="0.988" xOffset="486" yOffset="7"/>
  </outline>
</glyph>
<glyph name="completed" format="2">
  <advance width="681"/>
  <unicode hex="104D"/>
  <note>
completed
</note>
  <outline>
    <contour>
      <point x="633" y="110" type="line"/>
      <point x="541" y="90" type="line"/>
      <point x="541" y="-263" type="line" smooth="yes"/>
      <point x="541" y="-319"/>
      <point x="531" y="-351"/>
      <point x="509" y="-367" type="curve" smooth="yes"/>
      <point x="482" y="-383"/>
      <point x="429" y="-388"/>
      <point x="303" y="-388" type="curve" smooth="yes"/>
      <point x="197" y="-388"/>
      <point x="118" y="-381"/>
      <point x="118" y="-324" type="curve" smooth="yes"/>
      <point x="118" y="-304"/>
      <point x="131" y="-284"/>
      <point x="168" y="-284" type="curve" smooth="yes"/>
      <point x="211" y="-284"/>
      <point x="228" y="-317"/>
      <point x="231" y="-349" type="curve"/>
      <point x="336" y="-349" type="line"/>
      <point x="330" y="-267"/>
      <point x="281" y="-218"/>
      <point x="195" y="-218" type="curve" smooth="yes"/>
      <point x="91" y="-218"/>
      <point x="43" y="-284"/>
      <point x="43" y="-372" type="curve" smooth="yes"/>
      <point x="43" y="-439"/>
      <point x="66" y="-482"/>
      <point x="93" y="-506" type="curve" smooth="yes"/>
      <point x="133" y="-542"/>
      <point x="196" y="-551"/>
      <point x="311" y="-551" type="curve" smooth="yes"/>
      <point x="479" y="-551"/>
      <point x="545" y="-539"/>
      <point x="587" y="-501" type="curve" smooth="yes"/>
      <point x="612" y="-476"/>
      <point x="633" y="-432"/>
      <point x="633" y="-326" type="curve" smooth="yes"/>
    </contour>
    <component base="ra.alt2"/>
    <component base="asatstem" xOffset="493"/>
  </outline>
</glyph>
<glyph name="aforementioned" format="2">
  <advance width="486"/>
  <unicode hex="104E"/>
  <outline>
    <contour>
      <point x="350" y="-542" type="line"/>
      <point x="442" y="-542" type="line"/>
      <point x="442" y="243" type="line"/>
      <point x="350" y="123" type="line"/>
    </contour>
    <component base="nga"/>
  </outline>
</glyph>
<glyph name="genitive" format="2">
  <advance width="893"/>
  <unicode hex="104F"/>
  <note>
genitive
</note>
  <outline>
    <contour>
      <point x="434" y="335" type="curve" smooth="yes"/>
      <point x="447" y="367"/>
      <point x="466" y="383"/>
      <point x="504" y="383" type="curve" smooth="yes"/>
      <point x="551" y="383"/>
      <point x="565" y="352"/>
      <point x="565" y="295" type="curve" smooth="yes"/>
      <point x="565" y="0" type="line"/>
      <point x="657" y="0" type="line"/>
      <point x="657" y="364" type="line" smooth="yes"/>
      <point x="657" y="471"/>
      <point x="615" y="553"/>
      <point x="512" y="553" type="curve" smooth="yes"/>
      <point x="507" y="553" type="line" smooth="yes"/>
      <point x="434" y="553"/>
      <point x="389" y="516"/>
      <point x="368" y="457" type="curve"/>
      <point x="428" y="458" type="line"/>
      <point x="401" y="517"/>
      <point x="340" y="553"/>
      <point x="263" y="553" type="curve" smooth="yes"/>
      <point x="131" y="553"/>
      <point x="43" y="464"/>
      <point x="43" y="273" type="curve" smooth="yes"/>
      <point x="43" y="82"/>
      <point x="132" y="-7"/>
      <point x="263" y="-7" type="curve" smooth="yes"/>
      <point x="368" y="-7"/>
      <point x="443" y="55"/>
      <point x="443" y="155" type="curve" smooth="yes"/>
      <point x="443" y="224"/>
      <point x="410" y="261"/>
      <point x="316" y="261" type="curve" smooth="yes"/>
      <point x="223" y="261"/>
      <point x="191" y="231"/>
      <point x="191" y="145" type="curve" smooth="yes"/>
      <point x="191" y="120" type="line"/>
      <point x="244" y="120" type="line"/>
      <point x="244" y="164" type="line" smooth="yes"/>
      <point x="244" y="198"/>
      <point x="262" y="215"/>
      <point x="303" y="215" type="curve" smooth="yes"/>
      <point x="304" y="215" type="line" smooth="yes"/>
      <point x="335" y="215"/>
      <point x="368" y="212"/>
      <point x="368" y="185" type="curve" smooth="yes"/>
      <point x="368" y="163"/>
      <point x="345" y="153"/>
      <point x="304" y="153" type="curve" smooth="yes"/>
      <point x="247" y="153" type="line" smooth="yes"/>
      <point x="186" y="153"/>
      <point x="121" y="192"/>
      <point x="121" y="270" type="curve" smooth="yes"/>
      <point x="121" y="276" type="line" smooth="yes"/>
      <point x="121" y="354"/>
      <point x="185" y="393"/>
      <point x="247" y="393" type="curve" smooth="yes"/>
      <point x="304" y="393" type="line" smooth="yes"/>
      <point x="345" y="393"/>
      <point x="368" y="383"/>
      <point x="368" y="361" type="curve" smooth="yes"/>
      <point x="368" y="334"/>
      <point x="335" y="331"/>
      <point x="304" y="331" type="curve" smooth="yes"/>
      <point x="303" y="331" type="line" smooth="yes"/>
      <point x="262" y="331"/>
      <point x="244" y="348"/>
      <point x="244" y="382" type="curve" smooth="yes"/>
      <point x="244" y="426" type="line"/>
      <point x="191" y="426" type="line"/>
      <point x="191" y="401" type="line" smooth="yes"/>
      <point x="191" y="315"/>
      <point x="223" y="285"/>
      <point x="316" y="285" type="curve" smooth="yes"/>
      <point x="385" y="285"/>
      <point x="421" y="303"/>
    </contour>
    <component base="asatstem" xOffset="705"/>
  </outline>
</glyph>
<glyph name="vocRR_skt" format="2">
  <advance width="496"/>
  <unicode hex="1053"/>
  <note>
vocRR_skt
</note>
  <outline>
    <contour>
      <point x="258" y="-7" type="line" smooth="yes"/>
      <point x="366" y="-7"/>
      <point x="437" y="53"/>
      <point x="437" y="160" type="curve" smooth="yes"/>
      <point x="437" y="271"/>
      <point x="362" y="323"/>
      <point x="362" y="382" type="curve" smooth="yes"/>
      <point x="362" y="397"/>
      <point x="367" y="414"/>
      <point x="385" y="414" type="curve" smooth="yes"/>
      <point x="402" y="414"/>
      <point x="411" y="399"/>
      <point x="412" y="383" type="curve"/>
      <point x="463" y="383" type="line"/>
      <point x="479" y="503"/>
      <point x="426" y="556"/>
      <point x="360" y="556" type="curve" smooth="yes"/>
      <point x="302" y="556"/>
      <point x="261" y="514"/>
      <point x="261" y="448" type="curve" smooth="yes"/>
      <point x="261" y="353"/>
      <point x="344" y="322"/>
      <point x="344" y="247" type="curve" smooth="yes"/>
      <point x="344" y="194"/>
      <point x="301" y="173"/>
      <point x="248" y="173" type="curve" smooth="yes"/>
      <point x="195" y="173"/>
      <point x="152" y="194"/>
      <point x="152" y="247" type="curve" smooth="yes"/>
      <point x="152" y="322"/>
      <point x="235" y="353"/>
      <point x="235" y="448" type="curve" smooth="yes"/>
      <point x="235" y="514"/>
      <point x="194" y="556"/>
      <point x="136" y="556" type="curve" smooth="yes"/>
      <point x="70" y="556"/>
      <point x="17" y="503"/>
      <point x="33" y="383" type="curve"/>
      <point x="84" y="383" type="line"/>
      <point x="85" y="399"/>
      <point x="94" y="414"/>
      <point x="111" y="414" type="curve" smooth="yes"/>
      <point x="129" y="414"/>
      <point x="134" y="397"/>
      <point x="134" y="382" type="curve" smooth="yes"/>
      <point x="134" y="323"/>
      <point x="59" y="271"/>
      <point x="59" y="160" type="curve" smooth="yes"/>
      <point x="59" y="53"/>
      <point x="130" y="-7"/>
      <point x="238" y="-7" type="curve" smooth="yes"/>
    </contour>
  </outline>
</glyph>
<glyph name="vocLL_skt" format="2">
  <advance width="489"/>
  <unicode hex="1055"/>
  <note>
vocLL_skt
</note>
  <outline>
    <contour>
      <point x="166" y="151" type="curve" smooth="yes"/>
      <point x="137" y="151"/>
      <point x="121" y="181"/>
      <point x="121" y="254" type="curve" smooth="yes"/>
      <point x="121" y="276" type="line" smooth="yes"/>
      <point x="121" y="344"/>
      <point x="180" y="373"/>
      <point x="247" y="373" type="curve" smooth="yes"/>
      <point x="300" y="373" type="line" smooth="yes"/>
      <point x="349" y="373"/>
      <point x="376" y="360"/>
      <point x="376" y="336" type="curve" smooth="yes"/>
      <point x="376" y="318"/>
      <point x="361" y="305"/>
      <point x="328" y="305" type="curve" smooth="yes"/>
      <point x="298" y="305" type="line" smooth="yes"/>
      <point x="263" y="305"/>
      <point x="245" y="321"/>
      <point x="245" y="356" type="curve" smooth="yes"/>
      <point x="245" y="400" type="line"/>
      <point x="192" y="400" type="line"/>
      <point x="192" y="369" type="line" smooth="yes"/>
      <point x="192" y="269"/>
      <point x="239" y="245"/>
      <point x="322" y="245" type="curve" smooth="yes"/>
      <point x="423" y="245"/>
      <point x="446" y="308"/>
      <point x="446" y="372" type="curve" smooth="yes"/>
      <point x="446" y="480"/>
      <point x="376" y="553"/>
      <point x="258" y="553" type="curve" smooth="yes"/>
      <point x="183" y="553"/>
      <point x="119" y="523"/>
      <point x="83" y="463" type="curve" smooth="yes"/>
      <point x="59" y="423"/>
      <point x="43" y="362"/>
      <point x="43" y="273" type="curve" smooth="yes"/>
      <point x="43" y="80"/>
      <point x="78" y="-7"/>
      <point x="154" y="-7" type="curve" smooth="yes"/>
      <point x="196" y="-7"/>
      <point x="238" y="20"/>
      <point x="246" y="102" type="curve"/>
      <point x="254" y="20"/>
      <point x="299" y="-7"/>
      <point x="339" y="-7" type="curve" smooth="yes"/>
      <point x="410" y="-7"/>
      <point x="447" y="75"/>
      <point x="447" y="234" type="curve"/>
      <point x="374" y="234" type="line"/>
      <point x="371" y="186"/>
      <point x="359" y="151"/>
      <point x="327" y="151" type="curve" smooth="yes"/>
      <point x="292" y="151"/>
      <point x="284" y="195"/>
      <point x="283" y="231" type="curve"/>
      <point x="213" y="231" type="line"/>
      <point x="212" y="192"/>
      <point x="200" y="151"/>
    </contour>
  </outline>
</glyph>
<glyph name="_vocR_skt" format="2">
  <advance width="275"/>
  <unicode hex="1056"/>
  <note>
_vocR_skt
</note>
  <outline>
    <contour>
      <point x="37" y="-7" type="line" smooth="yes"/>
      <point x="145" y="-7"/>
      <point x="216" y="53"/>
      <point x="216" y="160" type="curve" smooth="yes"/>
      <point x="216" y="271"/>
      <point x="141" y="323"/>
      <point x="141" y="382" type="curve" smooth="yes"/>
      <point x="141" y="397"/>
      <point x="146" y="414"/>
      <point x="164" y="414" type="curve" smooth="yes"/>
      <point x="181" y="414"/>
      <point x="190" y="399"/>
      <point x="191" y="383" type="curve"/>
      <point x="242" y="383" type="line"/>
      <point x="258" y="503"/>
      <point x="205" y="556"/>
      <point x="139" y="556" type="curve" smooth="yes"/>
      <point x="81" y="556"/>
      <point x="40" y="514"/>
      <point x="40" y="448" type="curve" smooth="yes"/>
      <point x="40" y="353"/>
      <point x="123" y="322"/>
      <point x="123" y="247" type="curve" smooth="yes"/>
      <point x="123" y="194"/>
      <point x="80" y="173"/>
      <point x="27" y="173" type="curve" smooth="yes"/>
      <point x="-38" y="173"/>
      <point x="-83" y="183"/>
      <point x="-110" y="216" type="curve"/>
      <point x="-158" y="76" type="line"/>
      <point x="-125" y="24"/>
      <point x="-72" y="-7"/>
      <point x="15" y="-7" type="curve" smooth="yes"/>
    </contour>
  </outline>
</glyph>
<glyph name="_vocRR_skt" format="2">
  <advance width="367"/>
  <unicode hex="1057"/>
  <note>
_vocRR_skt
</note>
  <outline>
    <contour>
      <point x="-63" y="203" type="curve"/>
      <point x="-113" y="106" type="line"/>
      <point x="-105" y="22"/>
      <point x="-60" y="-6"/>
      <point x="-16" y="-6" type="curve" smooth="yes"/>
      <point x="31" y="-6"/>
      <point x="67" y="21"/>
      <point x="80" y="98" type="curve"/>
      <point x="91" y="21"/>
      <point x="139" y="-6"/>
      <point x="189" y="-6" type="curve" smooth="yes"/>
      <point x="265" y="-6"/>
      <point x="308" y="59"/>
      <point x="308" y="155" type="curve" smooth="yes"/>
      <point x="308" y="276"/>
      <point x="233" y="323"/>
      <point x="233" y="382" type="curve" smooth="yes"/>
      <point x="233" y="397"/>
      <point x="238" y="414"/>
      <point x="256" y="414" type="curve" smooth="yes"/>
      <point x="273" y="414"/>
      <point x="282" y="399"/>
      <point x="283" y="383" type="curve"/>
      <point x="334" y="383" type="line"/>
      <point x="350" y="503"/>
      <point x="297" y="556"/>
      <point x="231" y="556" type="curve" smooth="yes"/>
      <point x="173" y="556"/>
      <point x="132" y="514"/>
      <point x="132" y="448" type="curve" smooth="yes"/>
      <point x="132" y="354"/>
      <point x="215" y="323"/>
      <point x="215" y="222" type="curve" smooth="yes"/>
      <point x="215" y="185"/>
      <point x="203" y="156"/>
      <point x="170" y="156" type="curve" smooth="yes"/>
      <point x="134" y="156"/>
      <point x="123" y="191"/>
      <point x="120" y="228" type="curve"/>
      <point x="36" y="228" type="line"/>
      <point x="34" y="189"/>
      <point x="20" y="156"/>
      <point x="-14" y="156" type="curve" smooth="yes"/>
      <point x="-36" y="156"/>
      <point x="-51" y="168"/>
    </contour>
  </outline>
</glyph>
<glyph name="_vocLL_skt" format="2">
  <unicode hex="1059"/>
  <outline>
    <contour>
      <point x="-74" y="-342" type="curve"/>
      <point x="-136" y="-342" type="line"/>
      <point x="-139" y="-383"/>
      <point x="-149" y="-413"/>
      <point x="-176" y="-413" type="curve" smooth="yes"/>
      <point x="-207" y="-413"/>
      <point x="-214" y="-375"/>
      <point x="-215" y="-345" type="curve"/>
      <point x="-274" y="-345" type="line"/>
      <point x="-275" y="-378"/>
      <point x="-285" y="-413"/>
      <point x="-315" y="-413" type="curve" smooth="yes"/>
      <point x="-340" y="-413"/>
      <point x="-354" y="-388"/>
      <point x="-354" y="-325" type="curve" smooth="yes"/>
      <point x="-354" y="-306" type="line" smooth="yes"/>
      <point x="-354" y="-248"/>
      <point x="-318" y="-220"/>
      <point x="-243" y="-220" type="curve" smooth="yes"/>
      <point x="-199" y="-220" type="line" smooth="yes"/>
      <point x="-157" y="-220"/>
      <point x="-134" y="-232"/>
      <point x="-134" y="-254" type="curve" smooth="yes"/>
      <point x="-134" y="-270"/>
      <point x="-147" y="-281"/>
      <point x="-175" y="-281" type="curve" smooth="yes"/>
      <point x="-201" y="-281" type="line" smooth="yes"/>
      <point x="-231" y="-281"/>
      <point x="-246" y="-267"/>
      <point x="-246" y="-237" type="curve" smooth="yes"/>
      <point x="-246" y="-199" type="line"/>
      <point x="-291" y="-199" type="line"/>
      <point x="-291" y="-226" type="line" smooth="yes"/>
      <point x="-291" y="-312"/>
      <point x="-251" y="-333"/>
      <point x="-180" y="-333" type="curve" smooth="yes"/>
      <point x="-94" y="-333"/>
      <point x="-75" y="-278"/>
      <point x="-75" y="-223" type="curve" smooth="yes"/>
      <point x="-75" y="-136"/>
      <point x="-130" y="-68"/>
      <point x="-226" y="-68" type="curve" smooth="yes"/>
      <point x="-249" y="-68" type="line" smooth="yes"/>
      <point x="-308" y="-68"/>
      <point x="-354" y="-96"/>
      <point x="-382" y="-142" type="curve" smooth="yes"/>
      <point x="-408" y="-184"/>
      <point x="-418" y="-237"/>
      <point x="-418" y="-309" type="curve" smooth="yes"/>
      <point x="-418" y="-474"/>
      <point x="-388" y="-549"/>
      <point x="-324" y="-549" type="curve" smooth="yes"/>
      <point x="-288" y="-549"/>
      <point x="-252" y="-526"/>
      <point x="-245" y="-455" type="curve"/>
      <point x="-238" y="-526"/>
      <point x="-200" y="-549"/>
      <point x="-166" y="-549" type="curve" smooth="yes"/>
      <point x="-105" y="-549"/>
      <point x="-74" y="-479"/>
    </contour>
  </outline>
</glyph>
<glyph name="jha_mon" format="2">
  <advance width="674"/>
  <unicode hex="105B"/>
  <note>
Unlikely to ever take marks below.
</note>
  <outline>
    <contour>
      <point x="285" y="-361" type="line" smooth="yes"/>
      <point x="285" y="-486"/>
      <point x="332" y="-549"/>
      <point x="456" y="-549" type="curve" smooth="yes"/>
      <point x="580" y="-549"/>
      <point x="626" y="-486"/>
      <point x="626" y="-361" type="curve" smooth="yes"/>
      <point x="626" y="546" type="line"/>
      <point x="534" y="546" type="line"/>
      <point x="534" y="-300" type="line" smooth="yes"/>
      <point x="534" y="-351"/>
      <point x="509" y="-373"/>
      <point x="456" y="-373" type="curve" smooth="yes"/>
      <point x="403" y="-373"/>
      <point x="377" y="-352"/>
      <point x="377" y="-300" type="curve" smooth="yes"/>
      <point x="377" y="115" type="line"/>
      <point x="267" y="115" type="line"/>
      <point x="168" y="-297" type="line" smooth="yes"/>
      <point x="155" y="-350"/>
      <point x="136" y="-364"/>
      <point x="101" y="-358" type="curve"/>
      <point x="90" y="-357"/>
      <point x="77" y="-352"/>
      <point x="63" y="-344" type="curve"/>
      <point x="20" y="-525" type="line"/>
      <point x="34" y="-533"/>
      <point x="58" y="-543"/>
      <point x="81" y="-547" type="curve" smooth="yes"/>
      <point x="153" y="-560"/>
      <point x="190" y="-509"/>
      <point x="216" y="-398" type="curve" smooth="yes"/>
      <point x="257" y="-221" type="line" smooth="yes"/>
      <point x="270" y="-165"/>
      <point x="280" y="-119"/>
      <point x="287" y="-70" type="curve"/>
      <point x="293" y="-70" type="line"/>
      <point x="288" y="-127"/>
      <point x="285" y="-155"/>
      <point x="285" y="-211" type="curve" smooth="yes"/>
    </contour>
    <component base="ja"/>
  </outline>
</glyph>
<glyph name="bbe_mon" format="2">
  <advance width="486"/>
  <unicode hex="105D"/>
  <outline>
    <contour>
      <point x="367" y="85" type="line"/>
      <point x="288" y="41" type="line"/>
      <point x="288" y="-299" type="line" smooth="yes"/>
      <point x="288" y="-352"/>
      <point x="282" y="-379"/>
      <point x="266" y="-396" type="curve" smooth="yes"/>
      <point x="249" y="-413"/>
      <point x="218" y="-418"/>
      <point x="186" y="-418" type="curve" smooth="yes"/>
      <point x="137" y="-418"/>
      <point x="101" y="-404"/>
      <point x="101" y="-352" type="curve" smooth="yes"/>
      <point x="101" y="-323"/>
      <point x="114" y="-295"/>
      <point x="145" y="-295" type="curve" smooth="yes"/>
      <point x="179" y="-295"/>
      <point x="193" y="-324"/>
      <point x="195" y="-355" type="curve"/>
      <point x="274" y="-355" type="line"/>
      <point x="267" y="-278"/>
      <point x="226" y="-238"/>
      <point x="156" y="-238" type="curve" smooth="yes"/>
      <point x="78" y="-238"/>
      <point x="43" y="-299"/>
      <point x="43" y="-382" type="curve" smooth="yes"/>
      <point x="43" y="-441"/>
      <point x="56" y="-481"/>
      <point x="79" y="-506" type="curve" smooth="yes"/>
      <point x="107" y="-536"/>
      <point x="150" y="-548"/>
      <point x="209" y="-548" type="curve" smooth="yes"/>
      <point x="262" y="-548"/>
      <point x="304" y="-534"/>
      <point x="328" y="-502" type="curve" smooth="yes"/>
      <point x="350" y="-473"/>
      <point x="367" y="-436"/>
      <point x="367" y="-334" type="curve" smooth="yes"/>
    </contour>
    <component base="ma"/>
  </outline>
</glyph>
<glyph name="_medialNa_mon" format="2">
  <unicode hex="105E"/>
  <outline>
    <contour>
      <point x="-109" y="73" type="line"/>
      <point x="-195" y="73" type="line"/>
      <point x="-195" y="-337" type="line" smooth="yes"/>
      <point x="-195" y="-379"/>
      <point x="-199" y="-397"/>
      <point x="-229" y="-397" type="curve" smooth="yes"/>
      <point x="-279" y="-397"/>
      <point x="-350" y="-356"/>
      <point x="-350" y="-315" type="curve" smooth="yes"/>
      <point x="-350" y="-274"/>
      <point x="-283" y="-264"/>
      <point x="-217" y="-264" type="curve" smooth="yes"/>
      <point x="-143" y="-264"/>
      <point x="-82" y="-279"/>
      <point x="-29" y="-302" type="curve"/>
      <point x="1" y="-169" type="line"/>
      <point x="-54" y="-141"/>
      <point x="-139" y="-122"/>
      <point x="-202" y="-122" type="curve" smooth="yes"/>
      <point x="-361" y="-122"/>
      <point x="-414" y="-202"/>
      <point x="-414" y="-296" type="curve" smooth="yes"/>
      <point x="-414" y="-428"/>
      <point x="-304" y="-556"/>
      <point x="-202" y="-552" type="curve" smooth="yes"/>
      <point x="-117" y="-549"/>
      <point x="-109" y="-476"/>
      <point x="-109" y="-392" type="curve" smooth="yes"/>
    </contour>
  </outline>
</glyph>
<glyph name="_medialMa_mon" format="2">
  <unicode hex="105F"/>
  <outline>
    <contour>
      <point x="-153" y="45" type="line"/>
      <point x="-231" y="32" type="line"/>
      <point x="-231" y="-137" type="line"/>
      <point x="-366" y="-123"/>
      <point x="-440" y="-202"/>
      <point x="-440" y="-347" type="curve" smooth="yes"/>
      <point x="-440" y="-485"/>
      <point x="-370" y="-549"/>
      <point x="-233" y="-549" type="curve" smooth="yes"/>
      <point x="-194" y="-549"/>
      <point x="-132" y="-543"/>
      <point x="-87" y="-521" type="curve"/>
      <point x="-103" y="-363" type="line"/>
      <point x="-149" y="-379"/>
      <point x="-202" y="-385"/>
      <point x="-242" y="-385" type="curve" smooth="yes"/>
      <point x="-316" y="-385"/>
      <point x="-377" y="-373"/>
      <point x="-377" y="-336" type="curve" smooth="yes"/>
      <point x="-377" y="-296"/>
      <point x="-300" y="-276"/>
      <point x="-153" y="-291" type="curve"/>
    </contour>
  </outline>
</glyph>
<glyph name="_medialLa_mon" format="2">
  <unicode hex="1060"/>
  <outline>
    <contour>
      <point x="-159" y="34" type="curve"/>
      <point x="-256" y="36" type="line"/>
      <point x="-306" y="-108"/>
      <point x="-388" y="-234"/>
      <point x="-474" y="-357" type="curve"/>
      <point x="-469" y="-482"/>
      <point x="-383" y="-549"/>
      <point x="-257" y="-549" type="curve" smooth="yes"/>
      <point x="-129" y="-549"/>
      <point x="-57" y="-476"/>
      <point x="-43" y="-316" type="curve"/>
      <point x="-110" y="-299" type="line"/>
      <point x="-133" y="-368"/>
      <point x="-192" y="-385"/>
      <point x="-249" y="-385" type="curve" smooth="yes"/>
      <point x="-302" y="-385"/>
      <point x="-348" y="-367"/>
      <point x="-372" y="-334" type="curve"/>
      <point x="-289" y="-219"/>
      <point x="-218" y="-105"/>
    </contour>
  </outline>
</glyph>
<glyph name="sha_skn" format="2">
  <advance width="493"/>
  <unicode hex="1061"/>
  <note>
Sgaw Karen does not use subjoined consonants.
</note>
  <outline>
    <contour>
      <point x="251" y="86" type="line"/>
      <point x="251" y="-274" type="line" smooth="yes"/>
      <point x="251" y="-341"/>
      <point x="225" y="-357"/>
      <point x="169" y="-357" type="curve" smooth="yes"/>
      <point x="153" y="-357" type="line"/>
      <point x="153" y="-548" type="line"/>
      <point x="160" y="-549"/>
      <point x="166" y="-549"/>
      <point x="168" y="-549" type="curve" smooth="yes"/>
      <point x="289" y="-549"/>
      <point x="327" y="-489"/>
      <point x="327" y="-346" type="curve" smooth="yes"/>
      <point x="327" y="171" type="line"/>
    </contour>
    <component base="ra.alt"/>
  </outline>
</glyph>
<glyph name="eu_skn" format="2">
  <advance width="442"/>
  <unicode hex="1062"/>
  <note>
Used in Sgaw, Khamti, Shan.
</note>
  <outline>
    <contour>
      <point x="394" y="0" type="line"/>
      <point x="394" y="392" type="line" smooth="yes"/>
      <point x="394" y="515"/>
      <point x="340" y="553"/>
      <point x="204" y="553" type="curve" smooth="yes"/>
      <point x="83" y="553"/>
      <point x="22" y="505"/>
      <point x="22" y="386" type="curve" smooth="yes"/>
      <point x="22" y="355"/>
      <point x="26" y="329"/>
      <point x="30" y="312" type="curve"/>
      <point x="98" y="312" type="line"/>
      <point x="109" y="367"/>
      <point x="144" y="376"/>
      <point x="206" y="376" type="curve" smooth="yes"/>
      <point x="259" y="376"/>
      <point x="302" y="369"/>
      <point x="302" y="295" type="curve" smooth="yes"/>
      <point x="302" y="0" type="line"/>
    </contour>
  </outline>
</glyph>
<glyph name="kepho_skn" format="2">
  <advance width="378"/>
  <unicode hex="1064"/>
  <outline>
    <contour>
      <point x="100" y="553" type="curve" smooth="yes"/>
      <point x="64" y="553"/>
      <point x="40" y="545"/>
      <point x="22" y="533" type="curve"/>
      <point x="22" y="373" type="line"/>
      <point x="73" y="373" type="line" smooth="yes"/>
      <point x="121" y="373"/>
      <point x="153" y="351"/>
      <point x="153" y="286" type="curve" smooth="yes"/>
      <point x="153" y="114" type="line" smooth="yes"/>
      <point x="153" y="30"/>
      <point x="202" y="-7"/>
      <point x="278" y="-7" type="curve" smooth="yes"/>
      <point x="314" y="-7"/>
      <point x="338" y="1"/>
      <point x="356" y="13" type="curve"/>
      <point x="356" y="173" type="line"/>
      <point x="305" y="173" type="line" smooth="yes"/>
      <point x="257" y="173"/>
      <point x="225" y="195"/>
      <point x="225" y="260" type="curve" smooth="yes"/>
      <point x="225" y="432" type="line" smooth="yes"/>
      <point x="225" y="516"/>
      <point x="176" y="553"/>
    </contour>
  </outline>
</glyph>
<glyph name="pwa_wpk" format="2">
  <advance width="486"/>
  <unicode hex="1066"/>
  <outline>
    <contour>
      <point x="443" y="-358" type="curve" smooth="yes"/>
      <point x="443" y="273" type="line"/>
      <point x="366" y="73" type="line"/>
      <point x="366" y="-302" type="line" smooth="yes"/>
      <point x="366" y="-381"/>
      <point x="332" y="-404"/>
      <point x="288" y="-404" type="curve" smooth="yes"/>
      <point x="242" y="-404"/>
      <point x="214" y="-377"/>
      <point x="210" y="-333" type="curve"/>
      <point x="135" y="-333" type="line"/>
      <point x="133" y="-346"/>
      <point x="132" y="-359"/>
      <point x="132" y="-372" type="curve" smooth="yes"/>
      <point x="132" y="-491"/>
      <point x="206" y="-552"/>
      <point x="293" y="-552" type="curve" smooth="yes"/>
      <point x="380" y="-552"/>
      <point x="443" y="-489"/>
    </contour>
    <component base="pa"/>
  </outline>
</glyph>
<glyph name="eu_wpk" format="2">
  <advance width="337"/>
  <unicode hex="1067"/>
  <outline>
    <contour>
      <point x="289" y="546" type="line"/>
      <point x="196" y="546" type="line"/>
      <point x="196" y="244" type="line"/>
      <point x="257" y="168" type="line"/>
      <point x="257" y="253"/>
      <point x="226" y="299"/>
      <point x="156" y="299" type="curve" smooth="yes"/>
      <point x="91" y="299"/>
      <point x="49" y="242"/>
      <point x="49" y="153" type="curve" smooth="yes"/>
      <point x="49" y="48"/>
      <point x="89" y="-7"/>
      <point x="173" y="-7" type="curve" smooth="yes"/>
      <point x="252" y="-7"/>
      <point x="289" y="60"/>
      <point x="289" y="156" type="curve" smooth="yes"/>
    </contour>
    <contour>
      <point x="164" y="130" type="curve" smooth="yes"/>
      <point x="137" y="130"/>
      <point x="123" y="152"/>
      <point x="123" y="179" type="curve" smooth="yes"/>
      <point x="123" y="205"/>
      <point x="137" y="226"/>
      <point x="165" y="226" type="curve" smooth="yes"/>
      <point x="194" y="226"/>
      <point x="208" y="205"/>
      <point x="208" y="179" type="curve" smooth="yes"/>
      <point x="208" y="152"/>
      <point x="194" y="130"/>
    </contour>
  </outline>
</glyph>
<glyph name="tone1_wpk" format="2">
  <advance width="343"/>
  <unicode hex="1069"/>
  <outline>
    <contour>
      <point x="291" y="172" type="curve"/>
      <point x="223" y="172" type="line"/>
      <point x="223" y="164" type="line" smooth="yes"/>
      <point x="223" y="142"/>
      <point x="204" y="130"/>
      <point x="181" y="130" type="curve" smooth="yes"/>
      <point x="156" y="130"/>
      <point x="137" y="140"/>
      <point x="137" y="165" type="curve" smooth="yes"/>
      <point x="137" y="193"/>
      <point x="162" y="217"/>
      <point x="189" y="241" type="curve" smooth="yes"/>
      <point x="243" y="288"/>
      <point x="297" y="337"/>
      <point x="297" y="419" type="curve" smooth="yes"/>
      <point x="297" y="500"/>
      <point x="259" y="553"/>
      <point x="175" y="553" type="curve" smooth="yes"/>
      <point x="94" y="553"/>
      <point x="50" y="499"/>
      <point x="50" y="410" type="curve" smooth="yes"/>
      <point x="50" y="396"/>
      <point x="50" y="387"/>
      <point x="52" y="374" type="curve"/>
      <point x="120" y="374" type="line"/>
      <point x="120" y="382" type="line" smooth="yes"/>
      <point x="120" y="404"/>
      <point x="139" y="416"/>
      <point x="162" y="416" type="curve" smooth="yes"/>
      <point x="187" y="416"/>
      <point x="206" y="406"/>
      <point x="206" y="381" type="curve" smooth="yes"/>
      <point x="206" y="353"/>
      <point x="181" y="329"/>
      <point x="154" y="305" type="curve" smooth="yes"/>
      <point x="100" y="258"/>
      <point x="46" y="209"/>
      <point x="46" y="127" type="curve" smooth="yes"/>
      <point x="46" y="46"/>
      <point x="84" y="-7"/>
      <point x="168" y="-7" type="curve" smooth="yes"/>
      <point x="249" y="-7"/>
      <point x="293" y="47"/>
      <point x="293" y="136" type="curve" smooth="yes"/>
      <point x="293" y="150"/>
      <point x="293" y="159"/>
    </contour>
  </outline>
</glyph>
<glyph name="tone3_wpk" format="2">
  <advance width="370"/>
  <unicode hex="106B"/>
  <outline>
    <contour>
      <point x="322" y="0" type="line"/>
      <point x="322" y="394" type="line" smooth="yes"/>
      <point x="322" y="492"/>
      <point x="267" y="553"/>
      <point x="173" y="553" type="curve" smooth="yes"/>
      <point x="72" y="553"/>
      <point x="22" y="483"/>
      <point x="22" y="383" type="curve" smooth="yes"/>
      <point x="22" y="369"/>
      <point x="23" y="355"/>
      <point x="25" y="346" type="curve"/>
      <point x="96" y="346" type="line"/>
      <point x="103" y="376"/>
      <point x="122" y="400"/>
      <point x="166" y="400" type="curve" smooth="yes"/>
      <point x="209" y="400"/>
      <point x="230" y="377"/>
      <point x="230" y="329" type="curve" smooth="yes"/>
      <point x="230" y="0" type="line"/>
    </contour>
  </outline>
</glyph>
<glyph name="tone5_wpk" format="2">
  <advance width="339"/>
  <unicode hex="106D"/>
  <outline>
    <contour>
      <point x="172" y="553" type="curve" smooth="yes"/>
      <point x="90" y="553"/>
      <point x="49" y="491"/>
      <point x="49" y="417" type="curve" smooth="yes"/>
      <point x="49" y="340"/>
      <point x="74" y="309"/>
      <point x="150" y="241" type="curve" smooth="yes"/>
      <point x="177" y="217"/>
      <point x="202" y="193"/>
      <point x="202" y="165" type="curve" smooth="yes"/>
      <point x="202" y="140"/>
      <point x="183" y="130"/>
      <point x="158" y="130" type="curve" smooth="yes"/>
      <point x="135" y="130"/>
      <point x="116" y="142"/>
      <point x="116" y="164" type="curve" smooth="yes"/>
      <point x="116" y="172" type="line"/>
      <point x="48" y="172" type="line"/>
      <point x="46" y="159"/>
      <point x="46" y="150"/>
      <point x="46" y="136" type="curve" smooth="yes"/>
      <point x="46" y="47"/>
      <point x="90" y="-7"/>
      <point x="171" y="-7" type="curve" smooth="yes"/>
      <point x="255" y="-7"/>
      <point x="293" y="46"/>
      <point x="293" y="127" type="curve" smooth="yes"/>
      <point x="293" y="209"/>
      <point x="239" y="258"/>
      <point x="185" y="305" type="curve"/>
      <point x="187" y="247" type="line"/>
      <point x="245" y="247"/>
      <point x="290" y="312"/>
      <point x="290" y="402" type="curve" smooth="yes"/>
      <point x="290" y="502"/>
      <point x="250" y="553"/>
    </contour>
    <contour>
      <point x="174" y="320" type="curve" smooth="yes"/>
      <point x="145" y="320"/>
      <point x="131" y="339"/>
      <point x="131" y="367" type="curve" smooth="yes"/>
      <point x="131" y="396"/>
      <point x="145" y="416"/>
      <point x="174" y="416" type="curve" smooth="yes"/>
      <point x="203" y="416"/>
      <point x="216" y="396"/>
      <point x="216" y="367" type="curve" smooth="yes"/>
      <point x="216" y="339"/>
      <point x="203" y="320"/>
    </contour>
  </outline>
</glyph>
<glyph name="nna_epk" format="2">
  <advance width="867"/>
  <unicode hex="106E"/>
  <note>
Also used in Thai Mon.
</note>
  <outline>
    <contour>
      <point x="421" y="290" type="line"/>
      <point x="419" y="359"/>
      <point x="437" y="373"/>
      <point x="462" y="373" type="curve" smooth="yes"/>
      <point x="488" y="373"/>
      <point x="512" y="359"/>
      <point x="517" y="294" type="curve" smooth="yes"/>
      <point x="517" y="289"/>
      <point x="518" y="260"/>
      <point x="517" y="254" type="curve" smooth="yes"/>
      <point x="512" y="197"/>
      <point x="488" y="176"/>
      <point x="459" y="173" type="curve"/>
      <point x="459" y="-7" type="line"/>
      <point x="528" y="-1"/>
      <point x="563" y="66"/>
      <point x="579" y="150" type="curve" smooth="yes"/>
      <point x="594" y="227"/>
      <point x="594" y="323"/>
      <point x="579" y="401" type="curve" smooth="yes"/>
      <point x="563" y="482"/>
      <point x="523" y="553"/>
      <point x="451" y="553" type="curve" smooth="yes"/>
      <point x="379" y="553"/>
      <point x="339" y="482"/>
      <point x="323" y="401" type="curve"/>
    </contour>
    <component base="_aa" xOffset="572"/>
    <component base="ga"/>
  </outline>
</glyph>
<glyph name="ywa_epk" format="2">
  <advance width="781"/>
  <unicode hex="106F"/>
  <outline>
    <contour>
      <point x="367" y="86" type="line"/>
      <point x="367" y="-274" type="line" smooth="yes"/>
      <point x="367" y="-341"/>
      <point x="341" y="-357"/>
      <point x="285" y="-357" type="curve" smooth="yes"/>
      <point x="269" y="-357" type="line"/>
      <point x="269" y="-548" type="line"/>
      <point x="276" y="-549"/>
      <point x="282" y="-549"/>
      <point x="284" y="-549" type="curve" smooth="yes"/>
      <point x="405" y="-549"/>
      <point x="443" y="-489"/>
      <point x="443" y="-346" type="curve" smooth="yes"/>
      <point x="443" y="273" type="line"/>
    </contour>
    <component base="ha"/>
  </outline>
</glyph>
<glyph name="ghwa_epk" format="2">
  <advance width="781"/>
  <unicode hex="1070"/>
  <outline>
    <contour>
      <point x="352" y="86" type="line"/>
      <point x="352" y="-274" type="line" smooth="yes"/>
      <point x="352" y="-341"/>
      <point x="326" y="-357"/>
      <point x="270" y="-357" type="curve" smooth="yes"/>
      <point x="254" y="-357" type="line"/>
      <point x="254" y="-548" type="line"/>
      <point x="261" y="-549"/>
      <point x="267" y="-549"/>
      <point x="269" y="-549" type="curve" smooth="yes"/>
      <point x="390" y="-549"/>
      <point x="428" y="-489"/>
      <point x="428" y="-346" type="curve" smooth="yes"/>
      <point x="428" y="86" type="line"/>
    </contour>
    <component base="gha"/>
  </outline>
</glyph>
<glyph name="u_kyh" format="2">
  <unicode hex="1073"/>
  <outline>
    <contour>
      <point x="-156" y="657" type="line"/>
      <point x="-13" y="704" type="line"/>
      <point x="-200" y="938" type="line"/>
      <point x="-286" y="938" type="line"/>
      <point x="-473" y="704" type="line"/>
      <point x="-331" y="657" type="line"/>
      <point x="-243" y="872" type="line"/>
    </contour>
  </outline>
</glyph>
<glyph name="kha_shn" format="2">
  <advance width="485"/>
  <unicode hex="1076"/>
  <outline>
    <contour>
      <point x="129" y="553" type="curve"/>
      <point x="60" y="553" type="line"/>
      <point x="50" y="523"/>
      <point x="46" y="493"/>
      <point x="46" y="469" type="curve" smooth="yes"/>
      <point x="46" y="377"/>
      <point x="98" y="341"/>
      <point x="148" y="341" type="curve" smooth="yes"/>
      <point x="207" y="341"/>
      <point x="243" y="373"/>
      <point x="295" y="373" type="curve" smooth="yes"/>
      <point x="337" y="373"/>
      <point x="364" y="350"/>
      <point x="364" y="285" type="curve" smooth="yes"/>
      <point x="364" y="269" type="line" smooth="yes"/>
      <point x="364" y="202"/>
      <point x="308" y="173"/>
      <point x="244" y="173" type="curve" smooth="yes"/>
      <point x="191" y="173" type="line" smooth="yes"/>
      <point x="142" y="173"/>
      <point x="115" y="186"/>
      <point x="115" y="210" type="curve" smooth="yes"/>
      <point x="115" y="228"/>
      <point x="130" y="241"/>
      <point x="163" y="241" type="curve" smooth="yes"/>
      <point x="193" y="241" type="line" smooth="yes"/>
      <point x="228" y="241"/>
      <point x="246" y="225"/>
      <point x="246" y="190" type="curve" smooth="yes"/>
      <point x="246" y="146" type="line"/>
      <point x="299" y="146" type="line"/>
      <point x="299" y="177" type="line" smooth="yes"/>
      <point x="299" y="277"/>
      <point x="252" y="301"/>
      <point x="169" y="301" type="curve" smooth="yes"/>
      <point x="68" y="301"/>
      <point x="45" y="238"/>
      <point x="45" y="174" type="curve" smooth="yes"/>
      <point x="45" y="72"/>
      <point x="110" y="-7"/>
      <point x="222" y="-7" type="curve" smooth="yes"/>
      <point x="239" y="-7" type="line" smooth="yes"/>
      <point x="308" y="-7"/>
      <point x="372" y="23"/>
      <point x="405" y="81" type="curve" smooth="yes"/>
      <point x="428" y="123"/>
      <point x="442" y="184"/>
      <point x="442" y="273" type="curve" smooth="yes"/>
      <point x="442" y="413"/>
      <point x="414" y="553"/>
      <point x="303" y="553" type="curve" smooth="yes"/>
      <point x="237" y="553"/>
      <point x="205" y="501"/>
      <point x="169" y="501" type="curve" smooth="yes"/>
      <point x="142" y="501"/>
      <point x="125" y="516"/>
    </contour>
  </outline>
</glyph>
<glyph name="ga_shn" format="2">
  <advance width="486"/>
  <unicode hex="1077"/>
  <note>
ga_shn
</note>
  <outline>
    <contour>
      <point x="238" y="556" type="line" smooth="yes"/>
      <point x="130" y="556"/>
      <point x="59" y="496"/>
      <point x="59" y="389" type="curve" smooth="yes"/>
      <point x="59" y="278"/>
      <point x="134" y="226"/>
      <point x="134" y="167" type="curve" smooth="yes"/>
      <point x="134" y="152"/>
      <point x="129" y="135"/>
      <point x="111" y="135" type="curve" smooth="yes"/>
      <point x="94" y="135"/>
      <point x="85" y="150"/>
      <point x="84" y="166" type="curve"/>
      <point x="33" y="166" type="line"/>
      <point x="17" y="46"/>
      <point x="70" y="-7"/>
      <point x="136" y="-7" type="curve" smooth="yes"/>
      <point x="194" y="-7"/>
      <point x="235" y="35"/>
      <point x="235" y="101" type="curve" smooth="yes"/>
      <point x="235" y="196"/>
      <point x="152" y="227"/>
      <point x="152" y="302" type="curve" smooth="yes"/>
      <point x="152" y="355"/>
      <point x="195" y="376"/>
      <point x="247" y="376" type="curve" smooth="yes"/>
      <point x="310" y="376"/>
      <point x="368" y="346"/>
      <point x="368" y="275" type="curve" smooth="yes"/>
      <point x="368" y="253" type="line" smooth="yes"/>
      <point x="368" y="210"/>
      <point x="358" y="183"/>
      <point x="341" y="183" type="curve" smooth="yes"/>
      <point x="324" y="183"/>
      <point x="319" y="211"/>
      <point x="319" y="236" type="curve" smooth="yes"/>
      <point x="319" y="284"/>
      <point x="341" y="332"/>
      <point x="366" y="335" type="curve"/>
      <point x="383" y="402" type="line"/>
      <point x="291" y="402"/>
      <point x="248" y="287"/>
      <point x="248" y="158" type="curve" smooth="yes"/>
      <point x="248" y="54"/>
      <point x="275" y="-7"/>
      <point x="328" y="-7" type="curve" smooth="yes"/>
      <point x="400" y="-7"/>
      <point x="443" y="97"/>
      <point x="443" y="276" type="curve" smooth="yes"/>
      <point x="443" y="365"/>
      <point x="429" y="426"/>
      <point x="406" y="468" type="curve" smooth="yes"/>
      <point x="374" y="526"/>
      <point x="318" y="556"/>
      <point x="252" y="556" type="curve" smooth="yes"/>
    </contour>
  </outline>
</glyph>
<glyph name="na_shn" format="2">
  <advance width="821"/>
  <unicode hex="107C"/>
  <note>
na_shn
</note>
  <outline>
    <contour>
      <point x="777" y="313" type="line"/>
      <point x="780" y="462"/>
      <point x="729" y="553"/>
      <point x="611" y="553" type="curve" smooth="yes"/>
      <point x="495" y="553"/>
      <point x="432" y="447"/>
      <point x="432" y="271" type="curve" smooth="yes"/>
      <point x="432" y="74"/>
      <point x="494" y="-7"/>
      <point x="615" y="-7" type="curve" smooth="yes"/>
      <point x="695" y="-7"/>
      <point x="758" y="47"/>
      <point x="758" y="138" type="curve" smooth="yes"/>
      <point x="758" y="217"/>
      <point x="722" y="275"/>
      <point x="612" y="292" type="curve" smooth="yes"/>
      <point x="565" y="299"/>
      <point x="473" y="302"/>
      <point x="410" y="302" type="curve" smooth="yes"/>
      <point x="347" y="302"/>
      <point x="255" y="299"/>
      <point x="208" y="292" type="curve" smooth="yes"/>
      <point x="98" y="275"/>
      <point x="62" y="217"/>
      <point x="62" y="138" type="curve" smooth="yes"/>
      <point x="62" y="47"/>
      <point x="125" y="-7"/>
      <point x="205" y="-7" type="curve" smooth="yes"/>
      <point x="326" y="-7"/>
      <point x="388" y="74"/>
      <point x="388" y="271" type="curve" smooth="yes"/>
      <point x="388" y="447"/>
      <point x="325" y="553"/>
      <point x="209" y="553" type="curve" smooth="yes"/>
      <point x="91" y="553"/>
      <point x="40" y="462"/>
      <point x="43" y="313" type="curve"/>
      <point x="125" y="313" type="line"/>
      <point x="131" y="352"/>
      <point x="167" y="377"/>
      <point x="215" y="377" type="curve" smooth="yes"/>
      <point x="268" y="377"/>
      <point x="314" y="348"/>
      <point x="314" y="275" type="curve" smooth="yes"/>
      <point x="314" y="267" type="line" smooth="yes"/>
      <point x="314" y="182"/>
      <point x="270" y="148"/>
      <point x="196" y="148" type="curve" smooth="yes"/>
      <point x="168" y="148"/>
      <point x="142" y="157"/>
      <point x="142" y="185" type="curve" smooth="yes"/>
      <point x="142" y="218"/>
      <point x="172" y="226"/>
      <point x="225" y="231" type="curve" smooth="yes"/>
      <point x="264" y="235"/>
      <point x="332" y="238"/>
      <point x="410" y="238" type="curve" smooth="yes"/>
      <point x="488" y="238"/>
      <point x="556" y="235"/>
      <point x="595" y="231" type="curve" smooth="yes"/>
      <point x="648" y="226"/>
      <point x="678" y="218"/>
      <point x="678" y="185" type="curve" smooth="yes"/>
      <point x="678" y="157"/>
      <point x="652" y="148"/>
      <point x="624" y="148" type="curve" smooth="yes"/>
      <point x="550" y="148"/>
      <point x="506" y="182"/>
      <point x="506" y="267" type="curve" smooth="yes"/>
      <point x="506" y="275" type="line" smooth="yes"/>
      <point x="506" y="348"/>
      <point x="552" y="377"/>
      <point x="605" y="377" type="curve" smooth="yes"/>
      <point x="653" y="377"/>
      <point x="689" y="352"/>
      <point x="695" y="313" type="curve"/>
    </contour>
  </outline>
</glyph>
<glyph name="tha_shn" format="2">
  <advance width="781"/>
  <unicode hex="1080"/>
  <note>
tha_shn
</note>
  <outline>
    <contour>
      <point x="44" y="312" type="curve"/>
      <point x="126" y="312" type="line"/>
      <point x="135" y="351"/>
      <point x="176" y="373"/>
      <point x="243" y="373" type="curve" smooth="yes"/>
      <point x="308" y="373"/>
      <point x="365" y="344"/>
      <point x="365" y="277" type="curve" smooth="yes"/>
      <point x="365" y="269" type="line" smooth="yes"/>
      <point x="365" y="202"/>
      <point x="309" y="173"/>
      <point x="245" y="173" type="curve" smooth="yes"/>
      <point x="192" y="173" type="line" smooth="yes"/>
      <point x="143" y="173"/>
      <point x="116" y="186"/>
      <point x="116" y="210" type="curve" smooth="yes"/>
      <point x="116" y="228"/>
      <point x="131" y="241"/>
      <point x="164" y="241" type="curve" smooth="yes"/>
      <point x="194" y="241" type="line" smooth="yes"/>
      <point x="229" y="241"/>
      <point x="247" y="225"/>
      <point x="247" y="190" type="curve" smooth="yes"/>
      <point x="247" y="146" type="line"/>
      <point x="300" y="146" type="line"/>
      <point x="300" y="177" type="line" smooth="yes"/>
      <point x="300" y="277"/>
      <point x="251" y="301"/>
      <point x="172" y="301" type="curve" smooth="yes"/>
      <point x="67" y="301"/>
      <point x="46" y="238"/>
      <point x="46" y="173" type="curve" smooth="yes"/>
      <point x="46" y="70"/>
      <point x="111" y="-7"/>
      <point x="223" y="-7" type="curve" smooth="yes"/>
      <point x="240" y="-7" type="line" smooth="yes"/>
      <point x="309" y="-7"/>
      <point x="373" y="23"/>
      <point x="406" y="81" type="curve" smooth="yes"/>
      <point x="429" y="123"/>
      <point x="443" y="184"/>
      <point x="443" y="273" type="curve" smooth="yes"/>
      <point x="443" y="362"/>
      <point x="429" y="423"/>
      <point x="406" y="465" type="curve" smooth="yes"/>
      <point x="374" y="523"/>
      <point x="318" y="553"/>
      <point x="252" y="553" type="curve" smooth="yes"/>
      <point x="234" y="553" type="line" smooth="yes"/>
      <point x="120" y="553"/>
      <point x="47" y="467"/>
    </contour>
    <contour>
      <point x="375" y="81" type="line"/>
      <point x="407" y="23"/>
      <point x="463" y="-7"/>
      <point x="529" y="-7" type="curve" smooth="yes"/>
      <point x="547" y="-7" type="line" smooth="yes"/>
      <point x="613" y="-7"/>
      <point x="669" y="23"/>
      <point x="701" y="81" type="curve" smooth="yes"/>
      <point x="724" y="123"/>
      <point x="738" y="184"/>
      <point x="738" y="273" type="curve" smooth="yes"/>
      <point x="738" y="362"/>
      <point x="724" y="423"/>
      <point x="701" y="465" type="curve" smooth="yes"/>
      <point x="669" y="523"/>
      <point x="613" y="553"/>
      <point x="547" y="553" type="curve" smooth="yes"/>
      <point x="533" y="553"/>
      <point x="521" y="553"/>
      <point x="505" y="552" type="curve"/>
      <point x="505" y="373" type="line"/>
      <point x="538" y="373" type="line" smooth="yes"/>
      <point x="603" y="373"/>
      <point x="659" y="344"/>
      <point x="660" y="277" type="curve" smooth="yes"/>
      <point x="660" y="269" type="line" smooth="yes"/>
      <point x="659" y="202"/>
      <point x="603" y="173"/>
      <point x="538" y="173" type="curve" smooth="yes"/>
      <point x="492" y="173"/>
      <point x="451" y="187"/>
      <point x="430" y="219" type="curve"/>
    </contour>
  </outline>
</glyph>
<glyph name="ha_shn" format="2">
  <advance width="486"/>
  <unicode hex="1081"/>
  <outline>
    <contour>
      <point x="427" y="170" type="line"/>
      <point x="436" y="202"/>
      <point x="443" y="242"/>
      <point x="443" y="289" type="curve" smooth="yes"/>
      <point x="443" y="362"/>
      <point x="429" y="423"/>
      <point x="406" y="465" type="curve" smooth="yes"/>
      <point x="374" y="523"/>
      <point x="318" y="553"/>
      <point x="252" y="553" type="curve" smooth="yes"/>
      <point x="234" y="553" type="line" smooth="yes"/>
      <point x="168" y="553"/>
      <point x="112" y="523"/>
      <point x="80" y="465" type="curve" smooth="yes"/>
      <point x="57" y="423"/>
      <point x="43" y="362"/>
      <point x="43" y="273" type="curve" smooth="yes"/>
      <point x="43" y="184"/>
      <point x="57" y="123"/>
      <point x="80" y="81" type="curve" smooth="yes"/>
      <point x="113" y="20"/>
      <point x="163" y="-4"/>
      <point x="209" y="-7" type="curve" smooth="yes"/>
      <point x="238" y="-7"/>
      <point x="263" y="3"/>
      <point x="281" y="20" type="curve"/>
      <point x="227" y="40" type="line"/>
      <point x="146" y="-297" type="line" smooth="yes"/>
      <point x="135" y="-344"/>
      <point x="114" y="-359"/>
      <point x="84" y="-359" type="curve" smooth="yes"/>
      <point x="70" y="-359"/>
      <point x="60" y="-357"/>
      <point x="46" y="-352" type="curve"/>
      <point x="3" y="-533" type="line"/>
      <point x="22" y="-544"/>
      <point x="48" y="-549"/>
      <point x="75" y="-549" type="curve" smooth="yes"/>
      <point x="142" y="-549"/>
      <point x="174" y="-502"/>
      <point x="197" y="-408" type="curve" smooth="yes"/>
      <point x="307" y="52" type="line" smooth="yes"/>
      <point x="317" y="92"/>
      <point x="319" y="107"/>
      <point x="319" y="123" type="curve" smooth="yes"/>
      <point x="319" y="204"/>
      <point x="276" y="255"/>
      <point x="209" y="255" type="curve" smooth="yes"/>
      <point x="142" y="255"/>
      <point x="99" y="204"/>
      <point x="99" y="123" type="curve" smooth="yes"/>
      <point x="99" y="44"/>
      <point x="142" y="3"/>
      <point x="209" y="3" type="curve"/>
      <point x="209" y="47" type="line"/>
      <point x="158" y="60"/>
      <point x="121" y="133"/>
      <point x="121" y="248" type="curve" smooth="yes"/>
      <point x="121" y="342"/>
      <point x="173" y="373"/>
      <point x="247" y="373" type="curve" smooth="yes"/>
      <point x="320" y="373"/>
      <point x="365" y="333"/>
      <point x="365" y="246" type="curve" smooth="yes"/>
      <point x="365" y="226"/>
      <point x="363" y="203"/>
      <point x="355" y="170" type="curve"/>
    </contour>
    <contour>
      <point x="209" y="79" type="curve" smooth="yes"/>
      <point x="174" y="79"/>
      <point x="159" y="97"/>
      <point x="159" y="123" type="curve" smooth="yes"/>
      <point x="159" y="150"/>
      <point x="174" y="169"/>
      <point x="209" y="169" type="curve" smooth="yes"/>
      <point x="244" y="169"/>
      <point x="259" y="150"/>
      <point x="259" y="123" type="curve" smooth="yes"/>
      <point x="259" y="97"/>
      <point x="244" y="79"/>
    </contour>
  </outline>
</glyph>
<glyph name="aa_shn" format="2">
  <advance width="285"/>
  <unicode hex="1083"/>
  <outline>
    <contour>
      <point x="233" y="355" type="line" smooth="yes"/>
      <point x="233" y="487"/>
      <point x="204" y="553"/>
      <point x="98" y="553" type="curve" smooth="yes"/>
      <point x="64" y="553"/>
      <point x="38" y="549"/>
      <point x="20" y="540" type="curve"/>
      <point x="20" y="367" type="line"/>
      <point x="33" y="371"/>
      <point x="50" y="375"/>
      <point x="76" y="375" type="curve" smooth="yes"/>
      <point x="120" y="375"/>
      <point x="143" y="353"/>
      <point x="143" y="296" type="curve" smooth="yes"/>
      <point x="143" y="-353" type="line" smooth="yes"/>
      <point x="143" y="-489"/>
      <point x="184" y="-549"/>
      <point x="289" y="-549" type="curve" smooth="yes"/>
      <point x="300" y="-549"/>
      <point x="316" y="-548"/>
      <point x="327" y="-544" type="curve"/>
      <point x="327" y="-367" type="line"/>
      <point x="319" y="-369"/>
      <point x="311" y="-370"/>
      <point x="300" y="-370" type="curve" smooth="yes"/>
      <point x="260" y="-370"/>
      <point x="237" y="-349"/>
      <point x="233" y="-289" type="curve" smooth="yes"/>
    </contour>
  </outline>
</glyph>
<glyph name="_final_y_shn" format="2">
  <unicode hex="1086"/>
  <note>
Renamed from _f_above_shn
</note>
  <outline>
    <contour>
      <point x="-168" y="866" type="curve"/>
      <point x="-238" y="861" type="line"/>
      <point x="-251" y="793"/>
      <point x="-297" y="720"/>
      <point x="-340" y="666" type="curve"/>
      <point x="-278" y="608" type="line"/>
      <point x="-178" y="720"/>
      <point x="-133" y="840"/>
      <point x="-133" y="949" type="curve" smooth="yes"/>
      <point x="-133" y="1051"/>
      <point x="-177" y="1095"/>
      <point x="-243" y="1095" type="curve" smooth="yes"/>
      <point x="-310" y="1095"/>
      <point x="-353" y="1043"/>
      <point x="-353" y="959" type="curve" smooth="yes"/>
      <point x="-353" y="882"/>
      <point x="-310" y="833"/>
      <point x="-243" y="833" type="curve" smooth="yes"/>
      <point x="-211" y="833"/>
      <point x="-185" y="845"/>
    </contour>
    <contour>
      <point x="-243" y="919" type="curve" smooth="yes"/>
      <point x="-278" y="919"/>
      <point x="-293" y="937"/>
      <point x="-293" y="963" type="curve" smooth="yes"/>
      <point x="-293" y="990"/>
      <point x="-278" y="1009"/>
      <point x="-243" y="1009" type="curve" smooth="yes"/>
      <point x="-208" y="1009"/>
      <point x="-193" y="990"/>
      <point x="-193" y="963" type="curve" smooth="yes"/>
      <point x="-193" y="937"/>
      <point x="-208" y="919"/>
    </contour>
  </outline>
</glyph>
<glyph name="tone2_shn" format="2">
  <advance width="280"/>
  <unicode hex="1087"/>
  <outline>
    <contour>
      <point x="99" y="-228" type="line"/>
      <point x="195" y="-138"/>
      <point x="250" y="-21"/>
      <point x="250" y="104" type="curve" smooth="yes"/>
      <point x="250" y="213"/>
      <point x="203" y="255"/>
      <point x="140" y="255" type="curve" smooth="yes"/>
      <point x="78" y="255"/>
      <point x="30" y="209"/>
      <point x="30" y="123" type="curve" smooth="yes"/>
      <point x="30" y="39"/>
      <point x="78" y="-7"/>
      <point x="140" y="-7" type="curve" smooth="yes"/>
      <point x="179" y="-7"/>
      <point x="204" y="12"/>
      <point x="220" y="44" type="curve"/>
      <point x="166" y="60" type="line"/>
      <point x="156" y="-15"/>
      <point x="133" y="-90"/>
      <point x="52" y="-176" type="curve"/>
    </contour>
    <contour>
      <point x="140" y="79" type="curve" smooth="yes"/>
      <point x="105" y="79"/>
      <point x="90" y="97"/>
      <point x="90" y="123" type="curve" smooth="yes"/>
      <point x="90" y="150"/>
      <point x="105" y="169"/>
      <point x="140" y="169" type="curve" smooth="yes"/>
      <point x="175" y="169"/>
      <point x="190" y="150"/>
      <point x="190" y="123" type="curve" smooth="yes"/>
      <point x="190" y="97"/>
      <point x="175" y="79"/>
    </contour>
  </outline>
</glyph>
<glyph name="tone6_shn" format="2">
  <advance width="431"/>
  <unicode hex="108A"/>
  <outline>
    <contour>
      <point x="185" y="371" type="curve"/>
      <point x="230" y="351" type="line"/>
      <point x="243" y="370"/>
      <point x="249" y="394"/>
      <point x="249" y="421" type="curve" smooth="yes"/>
      <point x="249" y="502"/>
      <point x="206" y="553"/>
      <point x="144" y="553" type="curve" smooth="yes"/>
      <point x="76" y="553"/>
      <point x="30" y="502"/>
      <point x="30" y="422" type="curve" smooth="yes"/>
      <point x="30" y="341"/>
      <point x="78" y="291"/>
      <point x="179" y="291" type="curve" smooth="yes"/>
      <point x="286" y="291"/>
      <point x="367" y="357"/>
      <point x="409" y="446" type="curve"/>
      <point x="351" y="491" type="line"/>
      <point x="310" y="419"/>
      <point x="263" y="376"/>
    </contour>
    <contour>
      <point x="139" y="380" type="curve" smooth="yes"/>
      <point x="104" y="380"/>
      <point x="89" y="398"/>
      <point x="89" y="424" type="curve" smooth="yes"/>
      <point x="89" y="451"/>
      <point x="104" y="470"/>
      <point x="139" y="470" type="curve" smooth="yes"/>
      <point x="175" y="470"/>
      <point x="189" y="451"/>
      <point x="189" y="424" type="curve" smooth="yes"/>
      <point x="189" y="398"/>
      <point x="175" y="380"/>
    </contour>
    <contour>
      <point x="185" y="73" type="curve"/>
      <point x="230" y="53" type="line"/>
      <point x="243" y="72"/>
      <point x="249" y="96"/>
      <point x="249" y="123" type="curve" smooth="yes"/>
      <point x="249" y="204"/>
      <point x="206" y="255"/>
      <point x="144" y="255" type="curve" smooth="yes"/>
      <point x="76" y="255"/>
      <point x="30" y="204"/>
      <point x="30" y="124" type="curve" smooth="yes"/>
      <point x="30" y="43"/>
      <point x="78" y="-7"/>
      <point x="179" y="-7" type="curve" smooth="yes"/>
      <point x="286" y="-7"/>
      <point x="367" y="59"/>
      <point x="409" y="148" type="curve"/>
      <point x="351" y="193" type="line"/>
      <point x="310" y="121"/>
      <point x="263" y="78"/>
    </contour>
    <contour>
      <point x="139" y="79" type="curve" smooth="yes"/>
      <point x="104" y="79"/>
      <point x="89" y="97"/>
      <point x="89" y="123" type="curve" smooth="yes"/>
      <point x="89" y="150"/>
      <point x="104" y="169"/>
      <point x="139" y="169" type="curve" smooth="yes"/>
      <point x="175" y="169"/>
      <point x="189" y="150"/>
      <point x="189" y="123" type="curve" smooth="yes"/>
      <point x="189" y="97"/>
      <point x="175" y="79"/>
    </contour>
  </outline>
</glyph>
<glyph name="zero_shn" format="2">
  <advance width="496"/>
  <unicode hex="1090"/>
  <outline>
    <contour>
      <point x="448" y="275" type="line" smooth="yes"/>
      <point x="448" y="361"/>
      <point x="434" y="423"/>
      <point x="411" y="465" type="curve" smooth="yes"/>
      <point x="379" y="523"/>
      <point x="323" y="553"/>
      <point x="257" y="553" type="curve" smooth="yes"/>
      <point x="239" y="553" type="line" smooth="yes"/>
      <point x="173" y="553"/>
      <point x="117" y="523"/>
      <point x="85" y="465" type="curve" smooth="yes"/>
      <point x="62" y="423"/>
      <point x="48" y="361"/>
      <point x="48" y="275" type="curve" smooth="yes"/>
      <point x="48" y="-171" type="line" smooth="yes"/>
      <point x="48" y="-257"/>
      <point x="62" y="-319"/>
      <point x="85" y="-361" type="curve" smooth="yes"/>
      <point x="117" y="-419"/>
      <point x="173" y="-449"/>
      <point x="239" y="-449" type="curve" smooth="yes"/>
      <point x="257" y="-449" type="line" smooth="yes"/>
      <point x="323" y="-449"/>
      <point x="379" y="-419"/>
      <point x="411" y="-361" type="curve" smooth="yes"/>
      <point x="434" y="-319"/>
      <point x="448" y="-257"/>
      <point x="448" y="-171" type="curve" smooth="yes"/>
    </contour>
    <contour>
      <point x="368" y="241" type="curve" smooth="yes"/>
      <point x="368" y="-137" type="line" smooth="yes"/>
      <point x="368" y="-237"/>
      <point x="311" y="-269"/>
      <point x="248" y="-269" type="curve" smooth="yes"/>
      <point x="185" y="-269"/>
      <point x="128" y="-237"/>
      <point x="128" y="-137" type="curve" smooth="yes"/>
      <point x="128" y="241" type="line" smooth="yes"/>
      <point x="128" y="341"/>
      <point x="185" y="373"/>
      <point x="248" y="373" type="curve" smooth="yes"/>
      <point x="311" y="373"/>
      <point x="368" y="341"/>
    </contour>
  </outline>
</glyph>
<glyph name="one_shn" format="2">
  <advance width="352"/>
  <unicode hex="1091"/>
  <outline>
    <contour>
      <point x="234" y="546" type="line"/>
      <point x="158" y="546" type="line"/>
      <point x="35" y="443" type="line"/>
      <point x="35" y="276" type="line"/>
      <point x="142" y="368" type="line"/>
      <point x="142" y="-246" type="line" smooth="yes"/>
      <point x="142" y="-389"/>
      <point x="182" y="-449"/>
      <point x="309" y="-449" type="curve" smooth="yes"/>
      <point x="319" y="-449"/>
      <point x="328" y="-448"/>
      <point x="332" y="-447" type="curve"/>
      <point x="332" y="-257" type="line"/>
      <point x="316" y="-257" type="line" smooth="yes"/>
      <point x="260" y="-257"/>
      <point x="234" y="-241"/>
      <point x="234" y="-174" type="curve" smooth="yes"/>
    </contour>
  </outline>
</glyph>
<glyph name="two_shn" format="2">
  <advance width="494"/>
  <unicode hex="1092"/>
  <outline>
    <contour>
      <point x="121" y="556" type="curve"/>
      <point x="44" y="556" type="line"/>
      <point x="29" y="533"/>
      <point x="21" y="500"/>
      <point x="21" y="466" type="curve" smooth="yes"/>
      <point x="21" y="388"/>
      <point x="64" y="340"/>
      <point x="126" y="340" type="curve" smooth="yes"/>
      <point x="189" y="340"/>
      <point x="217" y="388"/>
      <point x="274" y="388" type="curve" smooth="yes"/>
      <point x="326" y="388"/>
      <point x="354" y="338"/>
      <point x="354" y="255" type="curve" smooth="yes"/>
      <point x="354" y="-19"/>
      <point x="20" y="-41"/>
      <point x="20" y="-329" type="curve" smooth="yes"/>
      <point x="20" y="-384"/>
      <point x="32" y="-426"/>
      <point x="47" y="-452" type="curve"/>
      <point x="196" y="-452" type="line"/>
      <point x="200" y="-437" type="line"/>
      <point x="185" y="-409"/>
      <point x="174" y="-367"/>
      <point x="174" y="-316" type="curve" smooth="yes"/>
      <point x="174" y="-77"/>
      <point x="451" y="-20"/>
      <point x="451" y="305" type="curve" smooth="yes"/>
      <point x="451" y="435"/>
      <point x="410" y="556"/>
      <point x="298" y="556" type="curve" smooth="yes"/>
      <point x="216" y="556"/>
      <point x="185" y="492"/>
      <point x="146" y="492" type="curve" smooth="yes"/>
      <point x="124" y="492"/>
      <point x="118" y="511"/>
      <point x="118" y="532" type="curve" smooth="yes"/>
      <point x="118" y="540"/>
      <point x="119" y="549"/>
    </contour>
  </outline>
</glyph>
<glyph name="three_shn" format="2">
  <advance width="455"/>
  <unicode hex="1093"/>
  <outline>
    <contour>
      <point x="307" y="546" type="line"/>
      <point x="72" y="546" type="line"/>
      <point x="72" y="365" type="line"/>
      <point x="189" y="365" type="line"/>
      <point x="7" y="-442" type="line"/>
      <point x="92" y="-442" type="line"/>
      <point x="311" y="530" type="line"/>
    </contour>
    <contour>
      <point x="196" y="115" type="line"/>
      <point x="136" y="-65" type="line"/>
      <point x="216" y="-65" type="line" smooth="yes"/>
      <point x="280" y="-65"/>
      <point x="301" y="-83"/>
      <point x="313" y="-163" type="curve" smooth="yes"/>
      <point x="326" y="-244"/>
      <point x="332" y="-360"/>
      <point x="336" y="-442" type="curve"/>
      <point x="445" y="-442" type="line"/>
      <point x="427" y="-336"/>
      <point x="408" y="-214"/>
      <point x="384" y="-100" type="curve" smooth="yes"/>
      <point x="352" y="50"/>
      <point x="329" y="115"/>
      <point x="256" y="115" type="curve" smooth="yes"/>
    </contour>
  </outline>
</glyph>
<glyph name="four_shn" format="2">
  <advance width="618"/>
  <unicode hex="1094"/>
  <outline>
    <contour>
      <point x="355" y="546" type="line"/>
      <point x="115" y="546" type="line"/>
      <point x="115" y="365" type="line"/>
      <point x="237" y="365" type="line"/>
      <point x="144" y="-174" type="line" smooth="yes"/>
      <point x="133" y="-239"/>
      <point x="117" y="-257"/>
      <point x="81" y="-257" type="curve" smooth="yes"/>
      <point x="70" y="-257"/>
      <point x="52" y="-256"/>
      <point x="39" y="-253" type="curve"/>
      <point x="6" y="-442" type="line"/>
      <point x="30" y="-447"/>
      <point x="55" y="-449"/>
      <point x="79" y="-449" type="curve" smooth="yes"/>
      <point x="153" y="-449"/>
      <point x="186" y="-417"/>
      <point x="200" y="-331" type="curve" smooth="yes"/>
      <point x="335" y="505" type="line"/>
      <point x="291" y="505" type="line"/>
      <point x="426" y="-331" type="line" smooth="yes"/>
      <point x="440" y="-417"/>
      <point x="473" y="-449"/>
      <point x="547" y="-449" type="curve" smooth="yes"/>
      <point x="571" y="-449"/>
      <point x="596" y="-447"/>
      <point x="620" y="-442" type="curve"/>
      <point x="587" y="-253" type="line"/>
      <point x="574" y="-256"/>
      <point x="556" y="-257"/>
      <point x="545" y="-257" type="curve" smooth="yes"/>
      <point x="509" y="-257"/>
      <point x="493" y="-239"/>
      <point x="481" y="-174" type="curve" smooth="yes"/>
    </contour>
  </outline>
</glyph>
<glyph name="six_shn" format="2">
  <advance width="552"/>
  <unicode hex="1096"/>
  <outline>
    <contour>
      <point x="507" y="162" type="line"/>
      <point x="243" y="162" type="line" smooth="yes"/>
      <point x="178" y="162"/>
      <point x="121" y="193"/>
      <point x="121" y="263" type="curve" smooth="yes"/>
      <point x="121" y="272" type="line" smooth="yes"/>
      <point x="121" y="342"/>
      <point x="178" y="373"/>
      <point x="243" y="373" type="curve" smooth="yes"/>
      <point x="292" y="373"/>
      <point x="365" y="355"/>
      <point x="365" y="235" type="curve" smooth="yes"/>
      <point x="365" y="229" type="line" smooth="yes"/>
      <point x="365" y="49"/>
      <point x="287" y="-202"/>
      <point x="209" y="-442" type="curve"/>
      <point x="371" y="-442" type="line"/>
      <point x="409" y="-211"/>
      <point x="443" y="89"/>
      <point x="443" y="273" type="curve" smooth="yes"/>
      <point x="443" y="434"/>
      <point x="394" y="553"/>
      <point x="252" y="553" type="curve" smooth="yes"/>
      <point x="234" y="553" type="line" smooth="yes"/>
      <point x="168" y="553"/>
      <point x="112" y="523"/>
      <point x="80" y="465" type="curve" smooth="yes"/>
      <point x="57" y="423"/>
      <point x="43" y="362"/>
      <point x="43" y="273" type="curve" smooth="yes"/>
      <point x="43" y="112"/>
      <point x="92" y="-7"/>
      <point x="234" y="-7" type="curve" smooth="yes"/>
      <point x="507" y="-7" type="line"/>
    </contour>
  </outline>
</glyph>
<glyph name="seven_shn" format="2">
  <advance width="489"/>
  <unicode hex="1097"/>
  <outline>
    <contour>
      <point x="479" y="473" type="line"/>
      <point x="444" y="525"/>
      <point x="377" y="553"/>
      <point x="275" y="553" type="curve" smooth="yes"/>
      <point x="253" y="553" type="line" smooth="yes"/>
      <point x="108" y="553"/>
      <point x="39" y="488"/>
      <point x="39" y="361" type="curve" smooth="yes"/>
      <point x="39" y="335"/>
      <point x="42" y="300"/>
      <point x="47" y="279" type="curve"/>
      <point x="105" y="279" type="line"/>
      <point x="105" y="346"/>
      <point x="144" y="373"/>
      <point x="235" y="373" type="curve" smooth="yes"/>
      <point x="293" y="373"/>
      <point x="328" y="362"/>
      <point x="348" y="349" type="curve"/>
      <point x="34" y="-408" type="line"/>
      <point x="77" y="-442"/>
      <point x="151" y="-449"/>
      <point x="205" y="-449" type="curve" smooth="yes"/>
      <point x="358" y="-449"/>
      <point x="409" y="-392"/>
      <point x="409" y="-271" type="curve" smooth="yes"/>
      <point x="409" y="-242"/>
      <point x="406" y="-214"/>
      <point x="402" y="-193" type="curve"/>
      <point x="344" y="-193" type="line"/>
      <point x="344" y="-254"/>
      <point x="311" y="-275"/>
      <point x="237" y="-275" type="curve" smooth="yes"/>
      <point x="209" y="-275"/>
      <point x="187" y="-272"/>
      <point x="171" y="-267" type="curve"/>
    </contour>
  </outline>
</glyph>
<glyph name="eight_shn" format="2">
  <advance width="513"/>
  <unicode hex="1098"/>
  <outline>
    <contour>
      <point x="45" y="404" type="curve" smooth="yes"/>
      <point x="45" y="107"/>
      <point x="374" y="56"/>
      <point x="374" y="-150" type="curve" smooth="yes"/>
      <point x="374" y="-215"/>
      <point x="340" y="-269"/>
      <point x="268" y="-269" type="curve" smooth="yes"/>
      <point x="246" y="-269" type="line" smooth="yes"/>
      <point x="175" y="-269"/>
      <point x="142" y="-215"/>
      <point x="142" y="-150" type="curve" smooth="yes"/>
      <point x="142" y="56"/>
      <point x="469" y="107"/>
      <point x="469" y="404" type="curve" smooth="yes"/>
      <point x="469" y="467"/>
      <point x="459" y="514"/>
      <point x="447" y="546" type="curve"/>
      <point x="312" y="546" type="line"/>
      <point x="308" y="534" type="line"/>
      <point x="329" y="495"/>
      <point x="344" y="444"/>
      <point x="344" y="380" type="curve" smooth="yes"/>
      <point x="344" y="92"/>
      <point x="43" y="96"/>
      <point x="43" y="-211" type="curve" smooth="yes"/>
      <point x="43" y="-333"/>
      <point x="100" y="-449"/>
      <point x="229" y="-449" type="curve" smooth="yes"/>
      <point x="285" y="-449" type="line" smooth="yes"/>
      <point x="414" y="-449"/>
      <point x="470" y="-333"/>
      <point x="470" y="-211" type="curve" smooth="yes"/>
      <point x="470" y="96"/>
      <point x="171" y="92"/>
      <point x="171" y="380" type="curve" smooth="yes"/>
      <point x="171" y="444"/>
      <point x="185" y="495"/>
      <point x="206" y="534" type="curve"/>
      <point x="202" y="546" type="line"/>
      <point x="66" y="546" type="line"/>
      <point x="54" y="514"/>
      <point x="45" y="467"/>
    </contour>
  </outline>
</glyph>
<glyph name="tone1_khm" format="2">
  <advance width="262"/>
  <unicode hex="109A"/>
  <outline>
    <contour>
      <point x="131" y="321" type="curve" smooth="yes"/>
      <point x="193" y="321"/>
      <point x="232" y="368"/>
      <point x="232" y="436" type="curve" smooth="yes"/>
      <point x="232" y="506"/>
      <point x="193" y="553"/>
      <point x="131" y="553" type="curve" smooth="yes"/>
      <point x="69" y="553"/>
      <point x="30" y="506"/>
      <point x="30" y="436" type="curve" smooth="yes"/>
      <point x="30" y="368"/>
      <point x="69" y="321"/>
    </contour>
  </outline>
</glyph>
<glyph name="_a_atn" format="2">
  <advance width="369"/>
  <unicode hex="109C"/>
  <outline>
    <contour>
      <point x="332" y="449" type="line"/>
      <point x="271" y="524"/>
      <point x="215" y="553"/>
      <point x="154" y="553" type="curve" smooth="yes"/>
      <point x="77" y="553"/>
      <point x="30" y="500"/>
      <point x="30" y="423" type="curve" smooth="yes"/>
      <point x="30" y="358"/>
      <point x="66" y="317"/>
      <point x="116" y="317" type="curve" smooth="yes"/>
      <point x="167" y="317"/>
      <point x="196" y="353"/>
      <point x="196" y="403" type="curve" smooth="yes"/>
      <point x="196" y="448"/>
      <point x="165" y="483"/>
      <point x="115" y="483" type="curve" smooth="yes"/>
      <point x="106" y="483"/>
      <point x="94" y="482"/>
      <point x="88" y="478" type="curve"/>
      <point x="98" y="456" type="line"/>
      <point x="112" y="465"/>
      <point x="133" y="472"/>
      <point x="153" y="472" type="curve" smooth="yes"/>
      <point x="190" y="472"/>
      <point x="236" y="461"/>
      <point x="295" y="393" type="curve"/>
    </contour>
    <contour>
      <point x="332" y="124" type="line"/>
      <point x="271" y="200"/>
      <point x="216" y="228"/>
      <point x="155" y="228" type="curve" smooth="yes"/>
      <point x="77" y="228"/>
      <point x="30" y="176"/>
      <point x="30" y="99" type="curve" smooth="yes"/>
      <point x="30" y="34"/>
      <point x="66" y="-7"/>
      <point x="116" y="-7" type="curve" smooth="yes"/>
      <point x="166" y="-7"/>
      <point x="196" y="29"/>
      <point x="196" y="79" type="curve" smooth="yes"/>
      <point x="196" y="124"/>
      <point x="165" y="160"/>
      <point x="117" y="160" type="curve" smooth="yes"/>
      <point x="106" y="160"/>
      <point x="95" y="158"/>
      <point x="88" y="154" type="curve"/>
      <point x="98" y="132" type="line"/>
      <point x="112" y="141"/>
      <point x="133" y="148"/>
      <point x="153" y="148" type="curve" smooth="yes"/>
      <point x="190" y="148"/>
      <point x="236" y="137"/>
      <point x="295" y="70" type="curve"/>
    </contour>
  </outline>
</glyph>
<glyph name="_ai_phk" format="2">
  <unicode hex="109D"/>
  <outline>
    <contour>
      <point x="-170" y="775" type="curve"/>
      <point x="-221" y="841" type="line"/>
      <point x="-221" y="794"/>
      <point x="-242" y="775"/>
      <point x="-286" y="775" type="curve" smooth="yes"/>
      <point x="-322" y="775"/>
      <point x="-344" y="811"/>
      <point x="-344" y="857" type="curve" smooth="yes"/>
      <point x="-344" y="921"/>
      <point x="-302" y="956"/>
      <point x="-241" y="956" type="curve" smooth="yes"/>
      <point x="-174" y="956"/>
      <point x="-123" y="910"/>
      <point x="-123" y="805" type="curve" smooth="yes"/>
      <point x="-123" y="719"/>
      <point x="-144" y="612"/>
      <point x="-193" y="493" type="curve"/>
      <point x="-124" y="479" type="line"/>
      <point x="-69" y="614"/>
      <point x="-42" y="726"/>
      <point x="-42" y="842" type="curve" smooth="yes"/>
      <point x="-42" y="995"/>
      <point x="-106" y="1095"/>
      <point x="-238" y="1095" type="curve" smooth="yes"/>
      <point x="-360" y="1095"/>
      <point x="-422" y="1006"/>
      <point x="-422" y="881" type="curve" smooth="yes"/>
      <point x="-422" y="777"/>
      <point x="-368" y="697"/>
      <point x="-271" y="697" type="curve" smooth="yes"/>
      <point x="-207" y="697"/>
      <point x="-163" y="732"/>
      <point x="-163" y="811" type="curve" smooth="yes"/>
      <point x="-163" y="864"/>
      <point x="-195" y="898"/>
      <point x="-241" y="898" type="curve" smooth="yes"/>
      <point x="-286" y="898"/>
      <point x="-319" y="865"/>
      <point x="-319" y="815" type="curve" smooth="yes"/>
      <point x="-319" y="766"/>
      <point x="-286" y="732"/>
      <point x="-241" y="732" type="curve" smooth="yes"/>
      <point x="-209" y="732"/>
      <point x="-183" y="749"/>
    </contour>
  </outline>
</glyph>
<glyph name="exclam_shn" format="2">
  <advance width="679"/>
  <unicode hex="109F"/>
  <outline>
    <contour>
      <point x="631" y="10" type="line"/>
      <point x="539" y="10" type="line"/>
      <point x="539" y="-347" type="line" smooth="yes"/>
      <point x="539" y="-387"/>
      <point x="517" y="-397"/>
      <point x="491" y="-397" type="curve" smooth="yes"/>
      <point x="465" y="-397"/>
      <point x="443" y="-387"/>
      <point x="443" y="-347" type="curve" smooth="yes"/>
      <point x="443" y="273" type="line" smooth="yes"/>
      <point x="443" y="362"/>
      <point x="429" y="423"/>
      <point x="406" y="465" type="curve" smooth="yes"/>
      <point x="374" y="523"/>
      <point x="318" y="553"/>
      <point x="252" y="553" type="curve" smooth="yes"/>
      <point x="234" y="553" type="line" smooth="yes"/>
      <point x="168" y="553"/>
      <point x="112" y="523"/>
      <point x="80" y="465" type="curve" smooth="yes"/>
      <point x="57" y="423"/>
      <point x="43" y="362"/>
      <point x="43" y="273" type="curve" smooth="yes"/>
      <point x="43" y="188"/>
      <point x="55" y="126"/>
      <point x="85" y="73" type="curve" smooth="yes"/>
      <point x="112" y="25"/>
      <point x="149" y="-7"/>
      <point x="201" y="-7" type="curve" smooth="yes"/>
      <point x="281" y="-7"/>
      <point x="306" y="64"/>
      <point x="306" y="179" type="curve"/>
      <point x="278" y="125"/>
      <point x="243" y="111"/>
      <point x="202" y="111" type="curve" smooth="yes"/>
      <point x="140" y="111"/>
      <point x="117" y="194"/>
      <point x="117" y="259" type="curve" smooth="yes"/>
      <point x="117" y="273" type="line" smooth="yes"/>
      <point x="117" y="344"/>
      <point x="169" y="373"/>
      <point x="233" y="373" type="curve" smooth="yes"/>
      <point x="304" y="373"/>
      <point x="359" y="337"/>
      <point x="359" y="251" type="curve" smooth="yes"/>
      <point x="359" y="-396" type="line" smooth="yes"/>
      <point x="359" y="-492"/>
      <point x="405" y="-549"/>
      <point x="488" y="-549" type="curve" smooth="yes"/>
      <point x="502" y="-549" type="line" smooth="yes"/>
      <point x="585" y="-549"/>
      <point x="631" y="-485"/>
      <point x="631" y="-396" type="curve" smooth="yes"/>
    </contour>
    <contour>
      <point x="204" y="49" type="curve" smooth="yes"/>
      <point x="265" y="49"/>
      <point x="306" y="100"/>
      <point x="306" y="179" type="curve" smooth="yes"/>
      <point x="306" y="260"/>
      <point x="265" y="311"/>
      <point x="204" y="311" type="curve" smooth="yes"/>
      <point x="143" y="311"/>
      <point x="102" y="260"/>
      <point x="102" y="179" type="curve" smooth="yes"/>
      <point x="102" y="100"/>
      <point x="143" y="49"/>
    </contour>
    <contour>
      <point x="204" y="134" type="curve" smooth="yes"/>
      <point x="171" y="134"/>
      <point x="156" y="152"/>
      <point x="156" y="179" type="curve" smooth="yes"/>
      <point x="156" y="207"/>
      <point x="171" y="226"/>
      <point x="204" y="226" type="curve" smooth="yes"/>
      <point x="237" y="226"/>
      <point x="252" y="207"/>
      <point x="252" y="179" type="curve" smooth="yes"/>
      <point x="252" y="152"/>
      <point x="237" y="134"/>
    </contour>
    <component base="asatstem" xOffset="491"/>
  </outline>
</glyph>
<glyph name="quoteright" format="2">
  <advance width="280"/>
  <unicode hex="2019"/>
  <outline>
    <contour>
      <point x="250" y="863" type="curve"/>
      <point x="125" y="745" type="line"/>
      <point x="110" y="691"/>
      <point x="86" y="642"/>
      <point x="45" y="577" type="curve"/>
      <point x="103" y="543" type="line"/>
      <point x="165" y="600"/>
      <point x="250" y="727"/>
    </contour>
    <contour>
      <point x="140" y="733" type="curve" smooth="yes"/>
      <point x="207" y="733"/>
      <point x="250" y="784"/>
      <point x="250" y="863" type="curve" smooth="yes"/>
      <point x="250" y="944"/>
      <point x="207" y="995"/>
      <point x="140" y="995" type="curve" smooth="yes"/>
      <point x="73" y="995"/>
      <point x="30" y="944"/>
      <point x="30" y="863" type="curve" smooth="yes"/>
      <point x="30" y="784"/>
      <point x="73" y="733"/>
    </contour>
    <contour>
      <point x="140" y="819" type="curve" smooth="yes"/>
      <point x="105" y="819"/>
      <point x="90" y="837"/>
      <point x="90" y="863" type="curve" smooth="yes"/>
      <point x="90" y="890"/>
      <point x="105" y="909"/>
      <point x="140" y="909" type="curve" smooth="yes"/>
      <point x="175" y="909"/>
      <point x="190" y="890"/>
      <point x="190" y="863" type="curve" smooth="yes"/>
      <point x="190" y="837"/>
      <point x="175" y="819"/>
    </contour>
  </outline>
</glyph>
<glyph name="ellipsis" format="2">
  <advance width="840"/>
  <unicode hex="2026"/>
  <outline>
    <contour>
      <point x="140" y="-4" type="curve" smooth="yes"/>
      <point x="207" y="-4"/>
      <point x="250" y="47"/>
      <point x="250" y="126" type="curve" smooth="yes"/>
      <point x="250" y="207"/>
      <point x="207" y="258"/>
      <point x="140" y="258" type="curve" smooth="yes"/>
      <point x="73" y="258"/>
      <point x="30" y="207"/>
      <point x="30" y="126" type="curve" smooth="yes"/>
      <point x="30" y="47"/>
      <point x="73" y="-4"/>
    </contour>
    <contour>
      <point x="140" y="82" type="curve" smooth="yes"/>
      <point x="105" y="82"/>
      <point x="90" y="100"/>
      <point x="90" y="126" type="curve" smooth="yes"/>
      <point x="90" y="153"/>
      <point x="105" y="172"/>
      <point x="140" y="172" type="curve" smooth="yes"/>
      <point x="175" y="172"/>
      <point x="190" y="153"/>
      <point x="190" y="126" type="curve" smooth="yes"/>
      <point x="190" y="100"/>
      <point x="175" y="82"/>
    </contour>
    <contour>
      <point x="420" y="-4" type="curve" smooth="yes"/>
      <point x="487" y="-4"/>
      <point x="530" y="47"/>
      <point x="530" y="126" type="curve" smooth="yes"/>
      <point x="530" y="207"/>
      <point x="487" y="258"/>
      <point x="420" y="258" type="curve" smooth="yes"/>
      <point x="353" y="258"/>
      <point x="310" y="207"/>
      <point x="310" y="126" type="curve" smooth="yes"/>
      <point x="310" y="47"/>
      <point x="353" y="-4"/>
    </contour>
    <contour>
      <point x="420" y="82" type="curve" smooth="yes"/>
      <point x="385" y="82"/>
      <point x="370" y="100"/>
      <point x="370" y="126" type="curve" smooth="yes"/>
      <point x="370" y="153"/>
      <point x="385" y="172"/>
      <point x="420" y="172" type="curve" smooth="yes"/>
      <point x="455" y="172"/>
      <point x="470" y="153"/>
      <point x="470" y="126" type="curve" smooth="yes"/>
      <point x="470" y="100"/>
      <point x="455" y="82"/>
    </contour>
    <contour>
      <point x="700" y="-4" type="curve" smooth="yes"/>
      <point x="767" y="-4"/>
      <point x="810" y="47"/>
      <point x="810" y="126" type="curve" smooth="yes"/>
      <point x="810" y="207"/>
      <point x="767" y="258"/>
      <point x="700" y="258" type="curve" smooth="yes"/>
      <point x="633" y="258"/>
      <point x="590" y="207"/>
      <point x="590" y="126" type="curve" smooth="yes"/>
      <point x="590" y="47"/>
      <point x="633" y="-4"/>
    </contour>
    <contour>
      <point x="700" y="82" type="curve" smooth="yes"/>
      <point x="665" y="82"/>
      <point x="650" y="100"/>
      <point x="650" y="126" type="curve" smooth="yes"/>
      <point x="650" y="153"/>
      <point x="665" y="172"/>
      <point x="700" y="172" type="curve" smooth="yes"/>
      <point x="735" y="172"/>
      <point x="750" y="153"/>
      <point x="750" y="126" type="curve" smooth="yes"/>
      <point x="750" y="100"/>
      <point x="735" y="82"/>
    </contour>
  </outline>
</glyph>
<glyph name="uni25CC" format="2">
  <advance width="433"/>
  <unicode hex="25CC"/>
  <note>
uni25CC
</note>
  <outline>
    <contour>
      <point x="328" y="404" type="curve" smooth="yes"/>
      <point x="339" y="404"/>
      <point x="346" y="414"/>
      <point x="346" y="430" type="curve" smooth="yes"/>
      <point x="346" y="446"/>
      <point x="339" y="457"/>
      <point x="328" y="457" type="curve" smooth="yes"/>
      <point x="317" y="457"/>
      <point x="309" y="446"/>
      <point x="309" y="430" type="curve" smooth="yes"/>
      <point x="309" y="414"/>
      <point x="317" y="404"/>
    </contour>
    <contour>
      <point x="276" y="452" type="curve" smooth="yes"/>
      <point x="287" y="452"/>
      <point x="294" y="462"/>
      <point x="294" y="478" type="curve" smooth="yes"/>
      <point x="294" y="494"/>
      <point x="287" y="505"/>
      <point x="276" y="505" type="curve" smooth="yes"/>
      <point x="264" y="505"/>
      <point x="256" y="494"/>
      <point x="256" y="478" type="curve" smooth="yes"/>
      <point x="256" y="462"/>
      <point x="264" y="452"/>
    </contour>
    <contour>
      <point x="362" y="331" type="curve" smooth="yes"/>
      <point x="373" y="331"/>
      <point x="381" y="342"/>
      <point x="381" y="358" type="curve" smooth="yes"/>
      <point x="381" y="374"/>
      <point x="374" y="384"/>
      <point x="363" y="384" type="curve" smooth="yes"/>
      <point x="351" y="384"/>
      <point x="343" y="374"/>
      <point x="343" y="358" type="curve" smooth="yes"/>
      <point x="343" y="342"/>
      <point x="351" y="331"/>
    </contour>
    <contour>
      <point x="376" y="247" type="curve" smooth="yes"/>
      <point x="387" y="247"/>
      <point x="394" y="257"/>
      <point x="394" y="273" type="curve" smooth="yes"/>
      <point x="394" y="289"/>
      <point x="387" y="299"/>
      <point x="376" y="299" type="curve" smooth="yes"/>
      <point x="364" y="299"/>
      <point x="356" y="289"/>
      <point x="356" y="273" type="curve" smooth="yes"/>
      <point x="356" y="257"/>
      <point x="364" y="247"/>
    </contour>
    <contour>
      <point x="214" y="469" type="curve" smooth="yes"/>
      <point x="225" y="469"/>
      <point x="233" y="480"/>
      <point x="233" y="496" type="curve" smooth="yes"/>
      <point x="233" y="512"/>
      <point x="225" y="522"/>
      <point x="214" y="522" type="curve" smooth="yes"/>
      <point x="203" y="522"/>
      <point x="196" y="512"/>
      <point x="196" y="496" type="curve" smooth="yes"/>
      <point x="196" y="480"/>
      <point x="203" y="469"/>
    </contour>
    <contour>
      <point x="153" y="452" type="curve" smooth="yes"/>
      <point x="165" y="452"/>
      <point x="173" y="462"/>
      <point x="173" y="478" type="curve" smooth="yes"/>
      <point x="173" y="494"/>
      <point x="165" y="505"/>
      <point x="153" y="505" type="curve" smooth="yes"/>
      <point x="142" y="505"/>
      <point x="134" y="494"/>
      <point x="134" y="478" type="curve" smooth="yes"/>
      <point x="134" y="462"/>
      <point x="142" y="452"/>
    </contour>
    <contour>
      <point x="362" y="162" type="curve" smooth="yes"/>
      <point x="373" y="162"/>
      <point x="381" y="172"/>
      <point x="381" y="188" type="curve" smooth="yes"/>
      <point x="381" y="204"/>
      <point x="373" y="215"/>
      <point x="362" y="215" type="curve" smooth="yes"/>
      <point x="351" y="215"/>
      <point x="343" y="204"/>
      <point x="343" y="188" type="curve" smooth="yes"/>
      <point x="343" y="172"/>
      <point x="351" y="162"/>
    </contour>
    <contour>
      <point x="101" y="404" type="curve" smooth="yes"/>
      <point x="113" y="404"/>
      <point x="121" y="414"/>
      <point x="121" y="430" type="curve" smooth="yes"/>
      <point x="121" y="446"/>
      <point x="113" y="457"/>
      <point x="101" y="457" type="curve" smooth="yes"/>
      <point x="90" y="457"/>
      <point x="83" y="446"/>
      <point x="83" y="429" type="curve" smooth="yes"/>
      <point x="83" y="414"/>
      <point x="90" y="404"/>
    </contour>
    <contour>
      <point x="328" y="89" type="curve" smooth="yes"/>
      <point x="339" y="89"/>
      <point x="346" y="99"/>
      <point x="346" y="115" type="curve" smooth="yes"/>
      <point x="346" y="131"/>
      <point x="339" y="142"/>
      <point x="328" y="142" type="curve" smooth="yes"/>
      <point x="317" y="142"/>
      <point x="309" y="131"/>
      <point x="309" y="115" type="curve" smooth="yes"/>
      <point x="309" y="99"/>
      <point x="317" y="89"/>
    </contour>
    <contour>
      <point x="276" y="42" type="curve" smooth="yes"/>
      <point x="287" y="42"/>
      <point x="294" y="52"/>
      <point x="294" y="67" type="curve" smooth="yes"/>
      <point x="294" y="83"/>
      <point x="287" y="94"/>
      <point x="276" y="94" type="curve" smooth="yes"/>
      <point x="264" y="94"/>
      <point x="256" y="83"/>
      <point x="256" y="67" type="curve" smooth="yes"/>
      <point x="256" y="52"/>
      <point x="264" y="42"/>
    </contour>
    <contour>
      <point x="67" y="331" type="curve" smooth="yes"/>
      <point x="78" y="331"/>
      <point x="85" y="342"/>
      <point x="85" y="358" type="curve" smooth="yes"/>
      <point x="85" y="374"/>
      <point x="78" y="384"/>
      <point x="67" y="384" type="curve" smooth="yes"/>
      <point x="55" y="384"/>
      <point x="47" y="374"/>
      <point x="47" y="358" type="curve" smooth="yes"/>
      <point x="47" y="342"/>
      <point x="55" y="331"/>
    </contour>
    <contour>
      <point x="54" y="247" type="curve" smooth="yes"/>
      <point x="65" y="247"/>
      <point x="73" y="257"/>
      <point x="73" y="273" type="curve" smooth="yes"/>
      <point x="73" y="289"/>
      <point x="65" y="299"/>
      <point x="54" y="299" type="curve" smooth="yes"/>
      <point x="43" y="299"/>
      <point x="35" y="289"/>
      <point x="35" y="273" type="curve" smooth="yes"/>
      <point x="35" y="257"/>
      <point x="43" y="247"/>
    </contour>
    <contour>
      <point x="214" y="24" type="curve" smooth="yes"/>
      <point x="225" y="24"/>
      <point x="233" y="35"/>
      <point x="233" y="51" type="curve" smooth="yes"/>
      <point x="233" y="67"/>
      <point x="225" y="77"/>
      <point x="214" y="77" type="curve" smooth="yes"/>
      <point x="203" y="77"/>
      <point x="196" y="67"/>
      <point x="196" y="51" type="curve" smooth="yes"/>
      <point x="196" y="35"/>
      <point x="203" y="24"/>
    </contour>
    <contour>
      <point x="67" y="162" type="curve" smooth="yes"/>
      <point x="78" y="162"/>
      <point x="85" y="172"/>
      <point x="85" y="188" type="curve" smooth="yes"/>
      <point x="85" y="204"/>
      <point x="78" y="215"/>
      <point x="67" y="215" type="curve" smooth="yes"/>
      <point x="55" y="215"/>
      <point x="47" y="204"/>
      <point x="47" y="188" type="curve" smooth="yes"/>
      <point x="47" y="172"/>
      <point x="55" y="162"/>
    </contour>
    <contour>
      <point x="153" y="42" type="curve" smooth="yes"/>
      <point x="165" y="42"/>
      <point x="173" y="53"/>
      <point x="173" y="69" type="curve" smooth="yes"/>
      <point x="173" y="84"/>
      <point x="165" y="94"/>
      <point x="153" y="94" type="curve" smooth="yes"/>
      <point x="142" y="94"/>
      <point x="134" y="83"/>
      <point x="134" y="67" type="curve" smooth="yes"/>
      <point x="134" y="52"/>
      <point x="142" y="42"/>
    </contour>
    <contour>
      <point x="101" y="89" type="curve" smooth="yes"/>
      <point x="113" y="89"/>
      <point x="121" y="99"/>
      <point x="121" y="115" type="curve" smooth="yes"/>
      <point x="121" y="131"/>
      <point x="113" y="142"/>
      <point x="101" y="142" type="curve" smooth="yes"/>
      <point x="90" y="142"/>
      <point x="83" y="131"/>
      <point x="83" y="115" type="curve" smooth="yes"/>
      <point x="83" y="99"/>
      <point x="90" y="89"/>
    </contour>
  </outline>
</glyph>
<glyph name="uniA92E" format="2">
  <advance width="583"/>
  <unicode hex="A92E"/>
  <outline>
    <contour>
      <point x="291" y="331" type="curve" smooth="yes"/>
      <point x="145" y="331"/>
      <point x="51" y="242"/>
      <point x="12" y="51" type="curve"/>
      <point x="92" y="51" type="line"/>
      <point x="127" y="135"/>
      <point x="181" y="182"/>
      <point x="291" y="182" type="curve" smooth="yes"/>
      <point x="401" y="182"/>
      <point x="456" y="135"/>
      <point x="491" y="51" type="curve"/>
      <point x="571" y="51" type="line"/>
      <point x="531" y="242"/>
      <point x="438" y="331"/>
    </contour>
  </outline>
</glyph>
